%TF.GenerationSoftware,KiCad,Pcbnew,10.0.3*%
%TF.CreationDate,2026-08-03T08:43:12+02:00*%
%TF.ProjectId,wulpus_pro_wifi_host,77756c70-7573-45f7-9072-6f5f77696669,rev?*%
%TF.SameCoordinates,Original*%
%TF.FileFunction,AssemblyDrawing,Top*%
%FSLAX45Y45*%
G04 Gerber Fmt 4.5, Leading zero omitted, Abs format (unit mm)*
G04 Created by KiCad (PCBNEW 10.0.3) date 2026-08-03 08:43:12*
%MOMM*%
%LPD*%
G01*
G04 APERTURE LIST*
%ADD10C,0.150000*%
%ADD11C,0.040000*%
%ADD12C,0.030000*%
%ADD13C,0.098425*%
%ADD14C,0.060000*%
%ADD15C,0.073152*%
%ADD16C,0.100000*%
%ADD17C,0.127000*%
%ADD18C,0.200000*%
%ADD19C,0.504000*%
%ADD20C,0.300000*%
G04 APERTURE END LIST*
D10*
X10035482Y-9152262D02*
X10035482Y-9142738D01*
X10035482Y-9142738D02*
X10040244Y-9133214D01*
X10040244Y-9133214D02*
X10045006Y-9128452D01*
X10045006Y-9128452D02*
X10054530Y-9123690D01*
X10054530Y-9123690D02*
X10073577Y-9118929D01*
X10073577Y-9118929D02*
X10097387Y-9118929D01*
X10097387Y-9118929D02*
X10116434Y-9123690D01*
X10116434Y-9123690D02*
X10125958Y-9128452D01*
X10125958Y-9128452D02*
X10130720Y-9133214D01*
X10130720Y-9133214D02*
X10135482Y-9142738D01*
X10135482Y-9142738D02*
X10135482Y-9152262D01*
X10135482Y-9152262D02*
X10130720Y-9161786D01*
X10130720Y-9161786D02*
X10125958Y-9166548D01*
X10125958Y-9166548D02*
X10116434Y-9171309D01*
X10116434Y-9171309D02*
X10097387Y-9176071D01*
X10097387Y-9176071D02*
X10073577Y-9176071D01*
X10073577Y-9176071D02*
X10054530Y-9171309D01*
X10054530Y-9171309D02*
X10045006Y-9166548D01*
X10045006Y-9166548D02*
X10040244Y-9161786D01*
X10040244Y-9161786D02*
X10035482Y-9152262D01*
D11*
X10067820Y-9302714D02*
X10055439Y-9311381D01*
X10067820Y-9317571D02*
X10041820Y-9317571D01*
X10041820Y-9317571D02*
X10041820Y-9307667D01*
X10041820Y-9307667D02*
X10043058Y-9305190D01*
X10043058Y-9305190D02*
X10044296Y-9303952D01*
X10044296Y-9303952D02*
X10046772Y-9302714D01*
X10046772Y-9302714D02*
X10050487Y-9302714D01*
X10050487Y-9302714D02*
X10052963Y-9303952D01*
X10052963Y-9303952D02*
X10054201Y-9305190D01*
X10054201Y-9305190D02*
X10055439Y-9307667D01*
X10055439Y-9307667D02*
X10055439Y-9317571D01*
X10067820Y-9277952D02*
X10067820Y-9292810D01*
X10067820Y-9285381D02*
X10041820Y-9285381D01*
X10041820Y-9285381D02*
X10045534Y-9287857D01*
X10045534Y-9287857D02*
X10048011Y-9290333D01*
X10048011Y-9290333D02*
X10049249Y-9292810D01*
X10044296Y-9268048D02*
X10043058Y-9266810D01*
X10043058Y-9266810D02*
X10041820Y-9264333D01*
X10041820Y-9264333D02*
X10041820Y-9258143D01*
X10041820Y-9258143D02*
X10043058Y-9255667D01*
X10043058Y-9255667D02*
X10044296Y-9254429D01*
X10044296Y-9254429D02*
X10046772Y-9253190D01*
X10046772Y-9253190D02*
X10049249Y-9253190D01*
X10049249Y-9253190D02*
X10052963Y-9254429D01*
X10052963Y-9254429D02*
X10067820Y-9269286D01*
X10067820Y-9269286D02*
X10067820Y-9253190D01*
D12*
X9186001Y-8580905D02*
X9185049Y-8582810D01*
X9185049Y-8582810D02*
X9183144Y-8584714D01*
X9183144Y-8584714D02*
X9180287Y-8587571D01*
X9180287Y-8587571D02*
X9179334Y-8589476D01*
X9179334Y-8589476D02*
X9179334Y-8591381D01*
X9184096Y-8590429D02*
X9183144Y-8592333D01*
X9183144Y-8592333D02*
X9181239Y-8594238D01*
X9181239Y-8594238D02*
X9177430Y-8595190D01*
X9177430Y-8595190D02*
X9170763Y-8595190D01*
X9170763Y-8595190D02*
X9166954Y-8594238D01*
X9166954Y-8594238D02*
X9165049Y-8592333D01*
X9165049Y-8592333D02*
X9164096Y-8590429D01*
X9164096Y-8590429D02*
X9164096Y-8586619D01*
X9164096Y-8586619D02*
X9165049Y-8584714D01*
X9165049Y-8584714D02*
X9166954Y-8582810D01*
X9166954Y-8582810D02*
X9170763Y-8581857D01*
X9170763Y-8581857D02*
X9177430Y-8581857D01*
X9177430Y-8581857D02*
X9181239Y-8582810D01*
X9181239Y-8582810D02*
X9183144Y-8584714D01*
X9183144Y-8584714D02*
X9184096Y-8586619D01*
X9184096Y-8586619D02*
X9184096Y-8590429D01*
X9166001Y-8574238D02*
X9165049Y-8573286D01*
X9165049Y-8573286D02*
X9164096Y-8571381D01*
X9164096Y-8571381D02*
X9164096Y-8566619D01*
X9164096Y-8566619D02*
X9165049Y-8564714D01*
X9165049Y-8564714D02*
X9166001Y-8563762D01*
X9166001Y-8563762D02*
X9167906Y-8562810D01*
X9167906Y-8562810D02*
X9169811Y-8562810D01*
X9169811Y-8562810D02*
X9172668Y-8563762D01*
X9172668Y-8563762D02*
X9184096Y-8575190D01*
X9184096Y-8575190D02*
X9184096Y-8562810D01*
D13*
X9127855Y-10080201D02*
X9127855Y-10040831D01*
X9127855Y-10040831D02*
X9137229Y-10040831D01*
X9137229Y-10040831D02*
X9142853Y-10042706D01*
X9142853Y-10042706D02*
X9146603Y-10046456D01*
X9146603Y-10046456D02*
X9148478Y-10050205D01*
X9148478Y-10050205D02*
X9150352Y-10057704D01*
X9150352Y-10057704D02*
X9150352Y-10063329D01*
X9150352Y-10063329D02*
X9148478Y-10070828D01*
X9148478Y-10070828D02*
X9146603Y-10074577D01*
X9146603Y-10074577D02*
X9142853Y-10078327D01*
X9142853Y-10078327D02*
X9137229Y-10080201D01*
X9137229Y-10080201D02*
X9127855Y-10080201D01*
X9180349Y-10059579D02*
X9167225Y-10059579D01*
X9167225Y-10080201D02*
X9167225Y-10040831D01*
X9167225Y-10040831D02*
X9185973Y-10040831D01*
X9200971Y-10059579D02*
X9214095Y-10059579D01*
X9219719Y-10080201D02*
X9200971Y-10080201D01*
X9200971Y-10080201D02*
X9200971Y-10040831D01*
X9200971Y-10040831D02*
X9219719Y-10040831D01*
X9234717Y-10044581D02*
X9236592Y-10042706D01*
X9236592Y-10042706D02*
X9240341Y-10040831D01*
X9240341Y-10040831D02*
X9249715Y-10040831D01*
X9249715Y-10040831D02*
X9253465Y-10042706D01*
X9253465Y-10042706D02*
X9255339Y-10044581D01*
X9255339Y-10044581D02*
X9257214Y-10048330D01*
X9257214Y-10048330D02*
X9257214Y-10052080D01*
X9257214Y-10052080D02*
X9255339Y-10057704D01*
X9255339Y-10057704D02*
X9232842Y-10080201D01*
X9232842Y-10080201D02*
X9257214Y-10080201D01*
X9281586Y-10040831D02*
X9285336Y-10040831D01*
X9285336Y-10040831D02*
X9289085Y-10042706D01*
X9289085Y-10042706D02*
X9290960Y-10044581D01*
X9290960Y-10044581D02*
X9292835Y-10048330D01*
X9292835Y-10048330D02*
X9294709Y-10055830D01*
X9294709Y-10055830D02*
X9294709Y-10065203D01*
X9294709Y-10065203D02*
X9292835Y-10072702D01*
X9292835Y-10072702D02*
X9290960Y-10076452D01*
X9290960Y-10076452D02*
X9289085Y-10078327D01*
X9289085Y-10078327D02*
X9285336Y-10080201D01*
X9285336Y-10080201D02*
X9281586Y-10080201D01*
X9281586Y-10080201D02*
X9277837Y-10078327D01*
X9277837Y-10078327D02*
X9275962Y-10076452D01*
X9275962Y-10076452D02*
X9274087Y-10072702D01*
X9274087Y-10072702D02*
X9272212Y-10065203D01*
X9272212Y-10065203D02*
X9272212Y-10055830D01*
X9272212Y-10055830D02*
X9274087Y-10048330D01*
X9274087Y-10048330D02*
X9275962Y-10044581D01*
X9275962Y-10044581D02*
X9277837Y-10042706D01*
X9277837Y-10042706D02*
X9281586Y-10040831D01*
X9332205Y-10080201D02*
X9309708Y-10080201D01*
X9320956Y-10080201D02*
X9320956Y-10040831D01*
X9320956Y-10040831D02*
X9317207Y-10046456D01*
X9317207Y-10046456D02*
X9313457Y-10050205D01*
X9313457Y-10050205D02*
X9309708Y-10052080D01*
X9365951Y-10040831D02*
X9358451Y-10040831D01*
X9358451Y-10040831D02*
X9354702Y-10042706D01*
X9354702Y-10042706D02*
X9352827Y-10044581D01*
X9352827Y-10044581D02*
X9349078Y-10050205D01*
X9349078Y-10050205D02*
X9347203Y-10057704D01*
X9347203Y-10057704D02*
X9347203Y-10072702D01*
X9347203Y-10072702D02*
X9349078Y-10076452D01*
X9349078Y-10076452D02*
X9350952Y-10078327D01*
X9350952Y-10078327D02*
X9354702Y-10080201D01*
X9354702Y-10080201D02*
X9362201Y-10080201D01*
X9362201Y-10080201D02*
X9365951Y-10078327D01*
X9365951Y-10078327D02*
X9367825Y-10076452D01*
X9367825Y-10076452D02*
X9369700Y-10072702D01*
X9369700Y-10072702D02*
X9369700Y-10063329D01*
X9369700Y-10063329D02*
X9367825Y-10059579D01*
X9367825Y-10059579D02*
X9365951Y-10057704D01*
X9365951Y-10057704D02*
X9362201Y-10055830D01*
X9362201Y-10055830D02*
X9354702Y-10055830D01*
X9354702Y-10055830D02*
X9350952Y-10057704D01*
X9350952Y-10057704D02*
X9349078Y-10059579D01*
X9349078Y-10059579D02*
X9347203Y-10063329D01*
X9407195Y-10080201D02*
X9384698Y-10080201D01*
X9395947Y-10080201D02*
X9395947Y-10040831D01*
X9395947Y-10040831D02*
X9392197Y-10046456D01*
X9392197Y-10046456D02*
X9388448Y-10050205D01*
X9388448Y-10050205D02*
X9384698Y-10052080D01*
X9422193Y-10044581D02*
X9424068Y-10042706D01*
X9424068Y-10042706D02*
X9427818Y-10040831D01*
X9427818Y-10040831D02*
X9437192Y-10040831D01*
X9437192Y-10040831D02*
X9440941Y-10042706D01*
X9440941Y-10042706D02*
X9442816Y-10044581D01*
X9442816Y-10044581D02*
X9444691Y-10048330D01*
X9444691Y-10048330D02*
X9444691Y-10052080D01*
X9444691Y-10052080D02*
X9442816Y-10057704D01*
X9442816Y-10057704D02*
X9420319Y-10080201D01*
X9420319Y-10080201D02*
X9444691Y-10080201D01*
X9461564Y-10059579D02*
X9474687Y-10059579D01*
X9480311Y-10080201D02*
X9461564Y-10080201D01*
X9461564Y-10080201D02*
X9461564Y-10040831D01*
X9461564Y-10040831D02*
X9480311Y-10040831D01*
X9497184Y-10065203D02*
X9527180Y-10065203D01*
X9544053Y-10044581D02*
X9545928Y-10042706D01*
X9545928Y-10042706D02*
X9549678Y-10040831D01*
X9549678Y-10040831D02*
X9559051Y-10040831D01*
X9559051Y-10040831D02*
X9562801Y-10042706D01*
X9562801Y-10042706D02*
X9564676Y-10044581D01*
X9564676Y-10044581D02*
X9566550Y-10048330D01*
X9566550Y-10048330D02*
X9566550Y-10052080D01*
X9566550Y-10052080D02*
X9564676Y-10057704D01*
X9564676Y-10057704D02*
X9542179Y-10080201D01*
X9542179Y-10080201D02*
X9566550Y-10080201D01*
X9605921Y-10080201D02*
X9592797Y-10061454D01*
X9583423Y-10080201D02*
X9583423Y-10040831D01*
X9583423Y-10040831D02*
X9598421Y-10040831D01*
X9598421Y-10040831D02*
X9602171Y-10042706D01*
X9602171Y-10042706D02*
X9604046Y-10044581D01*
X9604046Y-10044581D02*
X9605921Y-10048330D01*
X9605921Y-10048330D02*
X9605921Y-10053955D01*
X9605921Y-10053955D02*
X9604046Y-10057704D01*
X9604046Y-10057704D02*
X9602171Y-10059579D01*
X9602171Y-10059579D02*
X9598421Y-10061454D01*
X9598421Y-10061454D02*
X9583423Y-10061454D01*
X9620919Y-10044581D02*
X9622793Y-10042706D01*
X9622793Y-10042706D02*
X9626543Y-10040831D01*
X9626543Y-10040831D02*
X9635917Y-10040831D01*
X9635917Y-10040831D02*
X9639666Y-10042706D01*
X9639666Y-10042706D02*
X9641541Y-10044581D01*
X9641541Y-10044581D02*
X9643416Y-10048330D01*
X9643416Y-10048330D02*
X9643416Y-10052080D01*
X9643416Y-10052080D02*
X9641541Y-10057704D01*
X9641541Y-10057704D02*
X9619044Y-10080201D01*
X9619044Y-10080201D02*
X9643416Y-10080201D01*
X9660289Y-10080201D02*
X9660289Y-10040831D01*
X9660289Y-10040831D02*
X9673412Y-10068953D01*
X9673412Y-10068953D02*
X9686535Y-10040831D01*
X9686535Y-10040831D02*
X9686535Y-10080201D01*
X9705283Y-10059579D02*
X9735279Y-10059579D01*
X9735279Y-10070828D02*
X9705283Y-10070828D01*
X9754027Y-10080201D02*
X9754027Y-10040831D01*
X9754027Y-10040831D02*
X9769025Y-10040831D01*
X9769025Y-10040831D02*
X9772775Y-10042706D01*
X9772775Y-10042706D02*
X9774649Y-10044581D01*
X9774649Y-10044581D02*
X9776524Y-10048330D01*
X9776524Y-10048330D02*
X9776524Y-10053955D01*
X9776524Y-10053955D02*
X9774649Y-10057704D01*
X9774649Y-10057704D02*
X9772775Y-10059579D01*
X9772775Y-10059579D02*
X9769025Y-10061454D01*
X9769025Y-10061454D02*
X9754027Y-10061454D01*
X9791522Y-10044581D02*
X9793397Y-10042706D01*
X9793397Y-10042706D02*
X9797147Y-10040831D01*
X9797147Y-10040831D02*
X9806521Y-10040831D01*
X9806521Y-10040831D02*
X9810270Y-10042706D01*
X9810270Y-10042706D02*
X9812145Y-10044581D01*
X9812145Y-10044581D02*
X9814020Y-10048330D01*
X9814020Y-10048330D02*
X9814020Y-10052080D01*
X9814020Y-10052080D02*
X9812145Y-10057704D01*
X9812145Y-10057704D02*
X9789648Y-10080201D01*
X9789648Y-10080201D02*
X9814020Y-10080201D01*
D14*
X9838383Y-9860667D02*
X9840288Y-9862571D01*
X9840288Y-9862571D02*
X9842193Y-9868286D01*
X9842193Y-9868286D02*
X9842193Y-9872095D01*
X9842193Y-9872095D02*
X9840288Y-9877810D01*
X9840288Y-9877810D02*
X9836478Y-9881619D01*
X9836478Y-9881619D02*
X9832669Y-9883524D01*
X9832669Y-9883524D02*
X9825050Y-9885429D01*
X9825050Y-9885429D02*
X9819336Y-9885429D01*
X9819336Y-9885429D02*
X9811717Y-9883524D01*
X9811717Y-9883524D02*
X9807907Y-9881619D01*
X9807907Y-9881619D02*
X9804098Y-9877810D01*
X9804098Y-9877810D02*
X9802193Y-9872095D01*
X9802193Y-9872095D02*
X9802193Y-9868286D01*
X9802193Y-9868286D02*
X9804098Y-9862571D01*
X9804098Y-9862571D02*
X9806002Y-9860667D01*
X9842193Y-9822571D02*
X9842193Y-9845429D01*
X9842193Y-9834000D02*
X9802193Y-9834000D01*
X9802193Y-9834000D02*
X9807907Y-9837810D01*
X9807907Y-9837810D02*
X9811717Y-9841619D01*
X9811717Y-9841619D02*
X9813621Y-9845429D01*
D11*
X6921820Y-9514333D02*
X6909439Y-9523000D01*
X6921820Y-9529190D02*
X6895820Y-9529190D01*
X6895820Y-9529190D02*
X6895820Y-9519286D01*
X6895820Y-9519286D02*
X6897058Y-9516809D01*
X6897058Y-9516809D02*
X6898296Y-9515571D01*
X6898296Y-9515571D02*
X6900772Y-9514333D01*
X6900772Y-9514333D02*
X6904487Y-9514333D01*
X6904487Y-9514333D02*
X6906963Y-9515571D01*
X6906963Y-9515571D02*
X6908201Y-9516809D01*
X6908201Y-9516809D02*
X6909439Y-9519286D01*
X6909439Y-9519286D02*
X6909439Y-9529190D01*
X6895820Y-9492048D02*
X6895820Y-9497000D01*
X6895820Y-9497000D02*
X6897058Y-9499476D01*
X6897058Y-9499476D02*
X6898296Y-9500714D01*
X6898296Y-9500714D02*
X6902010Y-9503190D01*
X6902010Y-9503190D02*
X6906963Y-9504429D01*
X6906963Y-9504429D02*
X6916868Y-9504429D01*
X6916868Y-9504429D02*
X6919344Y-9503190D01*
X6919344Y-9503190D02*
X6920582Y-9501952D01*
X6920582Y-9501952D02*
X6921820Y-9499476D01*
X6921820Y-9499476D02*
X6921820Y-9494524D01*
X6921820Y-9494524D02*
X6920582Y-9492048D01*
X6920582Y-9492048D02*
X6919344Y-9490809D01*
X6919344Y-9490809D02*
X6916868Y-9489571D01*
X6916868Y-9489571D02*
X6910677Y-9489571D01*
X6910677Y-9489571D02*
X6908201Y-9490809D01*
X6908201Y-9490809D02*
X6906963Y-9492048D01*
X6906963Y-9492048D02*
X6905725Y-9494524D01*
X6905725Y-9494524D02*
X6905725Y-9499476D01*
X6905725Y-9499476D02*
X6906963Y-9501952D01*
X6906963Y-9501952D02*
X6908201Y-9503190D01*
X6908201Y-9503190D02*
X6910677Y-9504429D01*
D13*
X9905355Y-10077701D02*
X9905355Y-10038331D01*
X9905355Y-10038331D02*
X9914729Y-10038331D01*
X9914729Y-10038331D02*
X9920353Y-10040206D01*
X9920353Y-10040206D02*
X9924103Y-10043956D01*
X9924103Y-10043956D02*
X9925978Y-10047705D01*
X9925978Y-10047705D02*
X9927852Y-10055204D01*
X9927852Y-10055204D02*
X9927852Y-10060829D01*
X9927852Y-10060829D02*
X9925978Y-10068328D01*
X9925978Y-10068328D02*
X9924103Y-10072077D01*
X9924103Y-10072077D02*
X9920353Y-10075827D01*
X9920353Y-10075827D02*
X9914729Y-10077701D01*
X9914729Y-10077701D02*
X9905355Y-10077701D01*
X9957849Y-10057079D02*
X9944725Y-10057079D01*
X9944725Y-10077701D02*
X9944725Y-10038331D01*
X9944725Y-10038331D02*
X9963473Y-10038331D01*
X9978471Y-10057079D02*
X9991595Y-10057079D01*
X9997219Y-10077701D02*
X9978471Y-10077701D01*
X9978471Y-10077701D02*
X9978471Y-10038331D01*
X9978471Y-10038331D02*
X9997219Y-10038331D01*
X10012217Y-10042081D02*
X10014092Y-10040206D01*
X10014092Y-10040206D02*
X10017841Y-10038331D01*
X10017841Y-10038331D02*
X10027215Y-10038331D01*
X10027215Y-10038331D02*
X10030965Y-10040206D01*
X10030965Y-10040206D02*
X10032839Y-10042081D01*
X10032839Y-10042081D02*
X10034714Y-10045830D01*
X10034714Y-10045830D02*
X10034714Y-10049580D01*
X10034714Y-10049580D02*
X10032839Y-10055204D01*
X10032839Y-10055204D02*
X10010342Y-10077701D01*
X10010342Y-10077701D02*
X10034714Y-10077701D01*
X10059086Y-10038331D02*
X10062836Y-10038331D01*
X10062836Y-10038331D02*
X10066585Y-10040206D01*
X10066585Y-10040206D02*
X10068460Y-10042081D01*
X10068460Y-10042081D02*
X10070335Y-10045830D01*
X10070335Y-10045830D02*
X10072209Y-10053330D01*
X10072209Y-10053330D02*
X10072209Y-10062703D01*
X10072209Y-10062703D02*
X10070335Y-10070202D01*
X10070335Y-10070202D02*
X10068460Y-10073952D01*
X10068460Y-10073952D02*
X10066585Y-10075827D01*
X10066585Y-10075827D02*
X10062836Y-10077701D01*
X10062836Y-10077701D02*
X10059086Y-10077701D01*
X10059086Y-10077701D02*
X10055337Y-10075827D01*
X10055337Y-10075827D02*
X10053462Y-10073952D01*
X10053462Y-10073952D02*
X10051587Y-10070202D01*
X10051587Y-10070202D02*
X10049712Y-10062703D01*
X10049712Y-10062703D02*
X10049712Y-10053330D01*
X10049712Y-10053330D02*
X10051587Y-10045830D01*
X10051587Y-10045830D02*
X10053462Y-10042081D01*
X10053462Y-10042081D02*
X10055337Y-10040206D01*
X10055337Y-10040206D02*
X10059086Y-10038331D01*
X10109705Y-10077701D02*
X10087208Y-10077701D01*
X10098456Y-10077701D02*
X10098456Y-10038331D01*
X10098456Y-10038331D02*
X10094707Y-10043956D01*
X10094707Y-10043956D02*
X10090957Y-10047705D01*
X10090957Y-10047705D02*
X10087208Y-10049580D01*
X10143451Y-10038331D02*
X10135951Y-10038331D01*
X10135951Y-10038331D02*
X10132202Y-10040206D01*
X10132202Y-10040206D02*
X10130327Y-10042081D01*
X10130327Y-10042081D02*
X10126578Y-10047705D01*
X10126578Y-10047705D02*
X10124703Y-10055204D01*
X10124703Y-10055204D02*
X10124703Y-10070202D01*
X10124703Y-10070202D02*
X10126578Y-10073952D01*
X10126578Y-10073952D02*
X10128452Y-10075827D01*
X10128452Y-10075827D02*
X10132202Y-10077701D01*
X10132202Y-10077701D02*
X10139701Y-10077701D01*
X10139701Y-10077701D02*
X10143451Y-10075827D01*
X10143451Y-10075827D02*
X10145325Y-10073952D01*
X10145325Y-10073952D02*
X10147200Y-10070202D01*
X10147200Y-10070202D02*
X10147200Y-10060829D01*
X10147200Y-10060829D02*
X10145325Y-10057079D01*
X10145325Y-10057079D02*
X10143451Y-10055204D01*
X10143451Y-10055204D02*
X10139701Y-10053330D01*
X10139701Y-10053330D02*
X10132202Y-10053330D01*
X10132202Y-10053330D02*
X10128452Y-10055204D01*
X10128452Y-10055204D02*
X10126578Y-10057079D01*
X10126578Y-10057079D02*
X10124703Y-10060829D01*
X10184695Y-10077701D02*
X10162198Y-10077701D01*
X10173447Y-10077701D02*
X10173447Y-10038331D01*
X10173447Y-10038331D02*
X10169697Y-10043956D01*
X10169697Y-10043956D02*
X10165948Y-10047705D01*
X10165948Y-10047705D02*
X10162198Y-10049580D01*
X10199693Y-10042081D02*
X10201568Y-10040206D01*
X10201568Y-10040206D02*
X10205318Y-10038331D01*
X10205318Y-10038331D02*
X10214692Y-10038331D01*
X10214692Y-10038331D02*
X10218441Y-10040206D01*
X10218441Y-10040206D02*
X10220316Y-10042081D01*
X10220316Y-10042081D02*
X10222191Y-10045830D01*
X10222191Y-10045830D02*
X10222191Y-10049580D01*
X10222191Y-10049580D02*
X10220316Y-10055204D01*
X10220316Y-10055204D02*
X10197819Y-10077701D01*
X10197819Y-10077701D02*
X10222191Y-10077701D01*
X10239064Y-10057079D02*
X10252187Y-10057079D01*
X10257811Y-10077701D02*
X10239064Y-10077701D01*
X10239064Y-10077701D02*
X10239064Y-10038331D01*
X10239064Y-10038331D02*
X10257811Y-10038331D01*
X10274684Y-10062703D02*
X10304680Y-10062703D01*
X10321553Y-10042081D02*
X10323428Y-10040206D01*
X10323428Y-10040206D02*
X10327178Y-10038331D01*
X10327178Y-10038331D02*
X10336551Y-10038331D01*
X10336551Y-10038331D02*
X10340301Y-10040206D01*
X10340301Y-10040206D02*
X10342176Y-10042081D01*
X10342176Y-10042081D02*
X10344050Y-10045830D01*
X10344050Y-10045830D02*
X10344050Y-10049580D01*
X10344050Y-10049580D02*
X10342176Y-10055204D01*
X10342176Y-10055204D02*
X10319679Y-10077701D01*
X10319679Y-10077701D02*
X10344050Y-10077701D01*
X10383421Y-10077701D02*
X10370297Y-10058954D01*
X10360923Y-10077701D02*
X10360923Y-10038331D01*
X10360923Y-10038331D02*
X10375921Y-10038331D01*
X10375921Y-10038331D02*
X10379671Y-10040206D01*
X10379671Y-10040206D02*
X10381546Y-10042081D01*
X10381546Y-10042081D02*
X10383421Y-10045830D01*
X10383421Y-10045830D02*
X10383421Y-10051455D01*
X10383421Y-10051455D02*
X10381546Y-10055204D01*
X10381546Y-10055204D02*
X10379671Y-10057079D01*
X10379671Y-10057079D02*
X10375921Y-10058954D01*
X10375921Y-10058954D02*
X10360923Y-10058954D01*
X10398419Y-10042081D02*
X10400293Y-10040206D01*
X10400293Y-10040206D02*
X10404043Y-10038331D01*
X10404043Y-10038331D02*
X10413417Y-10038331D01*
X10413417Y-10038331D02*
X10417166Y-10040206D01*
X10417166Y-10040206D02*
X10419041Y-10042081D01*
X10419041Y-10042081D02*
X10420916Y-10045830D01*
X10420916Y-10045830D02*
X10420916Y-10049580D01*
X10420916Y-10049580D02*
X10419041Y-10055204D01*
X10419041Y-10055204D02*
X10396544Y-10077701D01*
X10396544Y-10077701D02*
X10420916Y-10077701D01*
X10437789Y-10077701D02*
X10437789Y-10038331D01*
X10437789Y-10038331D02*
X10450912Y-10066453D01*
X10450912Y-10066453D02*
X10464035Y-10038331D01*
X10464035Y-10038331D02*
X10464035Y-10077701D01*
X10482783Y-10057079D02*
X10512779Y-10057079D01*
X10512779Y-10068328D02*
X10482783Y-10068328D01*
X10531527Y-10077701D02*
X10531527Y-10038331D01*
X10531527Y-10038331D02*
X10546525Y-10038331D01*
X10546525Y-10038331D02*
X10550275Y-10040206D01*
X10550275Y-10040206D02*
X10552149Y-10042081D01*
X10552149Y-10042081D02*
X10554024Y-10045830D01*
X10554024Y-10045830D02*
X10554024Y-10051455D01*
X10554024Y-10051455D02*
X10552149Y-10055204D01*
X10552149Y-10055204D02*
X10550275Y-10057079D01*
X10550275Y-10057079D02*
X10546525Y-10058954D01*
X10546525Y-10058954D02*
X10531527Y-10058954D01*
X10569022Y-10042081D02*
X10570897Y-10040206D01*
X10570897Y-10040206D02*
X10574647Y-10038331D01*
X10574647Y-10038331D02*
X10584021Y-10038331D01*
X10584021Y-10038331D02*
X10587770Y-10040206D01*
X10587770Y-10040206D02*
X10589645Y-10042081D01*
X10589645Y-10042081D02*
X10591520Y-10045830D01*
X10591520Y-10045830D02*
X10591520Y-10049580D01*
X10591520Y-10049580D02*
X10589645Y-10055204D01*
X10589645Y-10055204D02*
X10567148Y-10077701D01*
X10567148Y-10077701D02*
X10591520Y-10077701D01*
D11*
X9063977Y-8319167D02*
X9065167Y-8320357D01*
X9065167Y-8320357D02*
X9066357Y-8323928D01*
X9066357Y-8323928D02*
X9066357Y-8326309D01*
X9066357Y-8326309D02*
X9065167Y-8329881D01*
X9065167Y-8329881D02*
X9062786Y-8332262D01*
X9062786Y-8332262D02*
X9060405Y-8333452D01*
X9060405Y-8333452D02*
X9055643Y-8334643D01*
X9055643Y-8334643D02*
X9052072Y-8334643D01*
X9052072Y-8334643D02*
X9047310Y-8333452D01*
X9047310Y-8333452D02*
X9044929Y-8332262D01*
X9044929Y-8332262D02*
X9042548Y-8329881D01*
X9042548Y-8329881D02*
X9041357Y-8326309D01*
X9041357Y-8326309D02*
X9041357Y-8323928D01*
X9041357Y-8323928D02*
X9042548Y-8320357D01*
X9042548Y-8320357D02*
X9043738Y-8319167D01*
X9052072Y-8304881D02*
X9050881Y-8307262D01*
X9050881Y-8307262D02*
X9049691Y-8308452D01*
X9049691Y-8308452D02*
X9047310Y-8309643D01*
X9047310Y-8309643D02*
X9046119Y-8309643D01*
X9046119Y-8309643D02*
X9043738Y-8308452D01*
X9043738Y-8308452D02*
X9042548Y-8307262D01*
X9042548Y-8307262D02*
X9041357Y-8304881D01*
X9041357Y-8304881D02*
X9041357Y-8300119D01*
X9041357Y-8300119D02*
X9042548Y-8297738D01*
X9042548Y-8297738D02*
X9043738Y-8296547D01*
X9043738Y-8296547D02*
X9046119Y-8295357D01*
X9046119Y-8295357D02*
X9047310Y-8295357D01*
X9047310Y-8295357D02*
X9049691Y-8296547D01*
X9049691Y-8296547D02*
X9050881Y-8297738D01*
X9050881Y-8297738D02*
X9052072Y-8300119D01*
X9052072Y-8300119D02*
X9052072Y-8304881D01*
X9052072Y-8304881D02*
X9053262Y-8307262D01*
X9053262Y-8307262D02*
X9054453Y-8308452D01*
X9054453Y-8308452D02*
X9056834Y-8309643D01*
X9056834Y-8309643D02*
X9061596Y-8309643D01*
X9061596Y-8309643D02*
X9063977Y-8308452D01*
X9063977Y-8308452D02*
X9065167Y-8307262D01*
X9065167Y-8307262D02*
X9066357Y-8304881D01*
X9066357Y-8304881D02*
X9066357Y-8300119D01*
X9066357Y-8300119D02*
X9065167Y-8297738D01*
X9065167Y-8297738D02*
X9063977Y-8296547D01*
X9063977Y-8296547D02*
X9061596Y-8295357D01*
X9061596Y-8295357D02*
X9056834Y-8295357D01*
X9056834Y-8295357D02*
X9054453Y-8296547D01*
X9054453Y-8296547D02*
X9053262Y-8297738D01*
X9053262Y-8297738D02*
X9052072Y-8300119D01*
X9217820Y-9296714D02*
X9205439Y-9305381D01*
X9217820Y-9311571D02*
X9191820Y-9311571D01*
X9191820Y-9311571D02*
X9191820Y-9301667D01*
X9191820Y-9301667D02*
X9193058Y-9299190D01*
X9193058Y-9299190D02*
X9194296Y-9297952D01*
X9194296Y-9297952D02*
X9196772Y-9296714D01*
X9196772Y-9296714D02*
X9200487Y-9296714D01*
X9200487Y-9296714D02*
X9202963Y-9297952D01*
X9202963Y-9297952D02*
X9204201Y-9299190D01*
X9204201Y-9299190D02*
X9205439Y-9301667D01*
X9205439Y-9301667D02*
X9205439Y-9311571D01*
X9194296Y-9286810D02*
X9193058Y-9285571D01*
X9193058Y-9285571D02*
X9191820Y-9283095D01*
X9191820Y-9283095D02*
X9191820Y-9276905D01*
X9191820Y-9276905D02*
X9193058Y-9274429D01*
X9193058Y-9274429D02*
X9194296Y-9273190D01*
X9194296Y-9273190D02*
X9196772Y-9271952D01*
X9196772Y-9271952D02*
X9199249Y-9271952D01*
X9199249Y-9271952D02*
X9202963Y-9273190D01*
X9202963Y-9273190D02*
X9217820Y-9288048D01*
X9217820Y-9288048D02*
X9217820Y-9271952D01*
X9217820Y-9247190D02*
X9217820Y-9262048D01*
X9217820Y-9254619D02*
X9191820Y-9254619D01*
X9191820Y-9254619D02*
X9195534Y-9257095D01*
X9195534Y-9257095D02*
X9198011Y-9259571D01*
X9198011Y-9259571D02*
X9199249Y-9262048D01*
D10*
X9387982Y-9114762D02*
X9387982Y-9105238D01*
X9387982Y-9105238D02*
X9392744Y-9095714D01*
X9392744Y-9095714D02*
X9397506Y-9090952D01*
X9397506Y-9090952D02*
X9407030Y-9086190D01*
X9407030Y-9086190D02*
X9426077Y-9081429D01*
X9426077Y-9081429D02*
X9449887Y-9081429D01*
X9449887Y-9081429D02*
X9468934Y-9086190D01*
X9468934Y-9086190D02*
X9478458Y-9090952D01*
X9478458Y-9090952D02*
X9483220Y-9095714D01*
X9483220Y-9095714D02*
X9487982Y-9105238D01*
X9487982Y-9105238D02*
X9487982Y-9114762D01*
X9487982Y-9114762D02*
X9483220Y-9124286D01*
X9483220Y-9124286D02*
X9478458Y-9129048D01*
X9478458Y-9129048D02*
X9468934Y-9133809D01*
X9468934Y-9133809D02*
X9449887Y-9138571D01*
X9449887Y-9138571D02*
X9426077Y-9138571D01*
X9426077Y-9138571D02*
X9407030Y-9133809D01*
X9407030Y-9133809D02*
X9397506Y-9129048D01*
X9397506Y-9129048D02*
X9392744Y-9124286D01*
X9392744Y-9124286D02*
X9387982Y-9114762D01*
D11*
X9409820Y-9297714D02*
X9397439Y-9306381D01*
X9409820Y-9312571D02*
X9383820Y-9312571D01*
X9383820Y-9312571D02*
X9383820Y-9302667D01*
X9383820Y-9302667D02*
X9385058Y-9300190D01*
X9385058Y-9300190D02*
X9386296Y-9298952D01*
X9386296Y-9298952D02*
X9388772Y-9297714D01*
X9388772Y-9297714D02*
X9392487Y-9297714D01*
X9392487Y-9297714D02*
X9394963Y-9298952D01*
X9394963Y-9298952D02*
X9396201Y-9300190D01*
X9396201Y-9300190D02*
X9397439Y-9302667D01*
X9397439Y-9302667D02*
X9397439Y-9312571D01*
X9409820Y-9272952D02*
X9409820Y-9287810D01*
X9409820Y-9280381D02*
X9383820Y-9280381D01*
X9383820Y-9280381D02*
X9387534Y-9282857D01*
X9387534Y-9282857D02*
X9390011Y-9285333D01*
X9390011Y-9285333D02*
X9391249Y-9287810D01*
X9394963Y-9258095D02*
X9393725Y-9260571D01*
X9393725Y-9260571D02*
X9392487Y-9261810D01*
X9392487Y-9261810D02*
X9390011Y-9263048D01*
X9390011Y-9263048D02*
X9388772Y-9263048D01*
X9388772Y-9263048D02*
X9386296Y-9261810D01*
X9386296Y-9261810D02*
X9385058Y-9260571D01*
X9385058Y-9260571D02*
X9383820Y-9258095D01*
X9383820Y-9258095D02*
X9383820Y-9253143D01*
X9383820Y-9253143D02*
X9385058Y-9250667D01*
X9385058Y-9250667D02*
X9386296Y-9249429D01*
X9386296Y-9249429D02*
X9388772Y-9248190D01*
X9388772Y-9248190D02*
X9390011Y-9248190D01*
X9390011Y-9248190D02*
X9392487Y-9249429D01*
X9392487Y-9249429D02*
X9393725Y-9250667D01*
X9393725Y-9250667D02*
X9394963Y-9253143D01*
X9394963Y-9253143D02*
X9394963Y-9258095D01*
X9394963Y-9258095D02*
X9396201Y-9260571D01*
X9396201Y-9260571D02*
X9397439Y-9261810D01*
X9397439Y-9261810D02*
X9399915Y-9263048D01*
X9399915Y-9263048D02*
X9404868Y-9263048D01*
X9404868Y-9263048D02*
X9407344Y-9261810D01*
X9407344Y-9261810D02*
X9408582Y-9260571D01*
X9408582Y-9260571D02*
X9409820Y-9258095D01*
X9409820Y-9258095D02*
X9409820Y-9253143D01*
X9409820Y-9253143D02*
X9408582Y-9250667D01*
X9408582Y-9250667D02*
X9407344Y-9249429D01*
X9407344Y-9249429D02*
X9404868Y-9248190D01*
X9404868Y-9248190D02*
X9399915Y-9248190D01*
X9399915Y-9248190D02*
X9397439Y-9249429D01*
X9397439Y-9249429D02*
X9396201Y-9250667D01*
X9396201Y-9250667D02*
X9394963Y-9253143D01*
X9869820Y-9302714D02*
X9857439Y-9311381D01*
X9869820Y-9317571D02*
X9843820Y-9317571D01*
X9843820Y-9317571D02*
X9843820Y-9307667D01*
X9843820Y-9307667D02*
X9845058Y-9305190D01*
X9845058Y-9305190D02*
X9846296Y-9303952D01*
X9846296Y-9303952D02*
X9848772Y-9302714D01*
X9848772Y-9302714D02*
X9852487Y-9302714D01*
X9852487Y-9302714D02*
X9854963Y-9303952D01*
X9854963Y-9303952D02*
X9856201Y-9305190D01*
X9856201Y-9305190D02*
X9857439Y-9307667D01*
X9857439Y-9307667D02*
X9857439Y-9317571D01*
X9869820Y-9277952D02*
X9869820Y-9292810D01*
X9869820Y-9285381D02*
X9843820Y-9285381D01*
X9843820Y-9285381D02*
X9847534Y-9287857D01*
X9847534Y-9287857D02*
X9850011Y-9290333D01*
X9850011Y-9290333D02*
X9851249Y-9292810D01*
X9843820Y-9254429D02*
X9843820Y-9266810D01*
X9843820Y-9266810D02*
X9856201Y-9268048D01*
X9856201Y-9268048D02*
X9854963Y-9266810D01*
X9854963Y-9266810D02*
X9853725Y-9264333D01*
X9853725Y-9264333D02*
X9853725Y-9258143D01*
X9853725Y-9258143D02*
X9854963Y-9255667D01*
X9854963Y-9255667D02*
X9856201Y-9254429D01*
X9856201Y-9254429D02*
X9858677Y-9253190D01*
X9858677Y-9253190D02*
X9864868Y-9253190D01*
X9864868Y-9253190D02*
X9867344Y-9254429D01*
X9867344Y-9254429D02*
X9868582Y-9255667D01*
X9868582Y-9255667D02*
X9869820Y-9258143D01*
X9869820Y-9258143D02*
X9869820Y-9264333D01*
X9869820Y-9264333D02*
X9868582Y-9266810D01*
X9868582Y-9266810D02*
X9867344Y-9268048D01*
D14*
X9190383Y-9859667D02*
X9192288Y-9861571D01*
X9192288Y-9861571D02*
X9194193Y-9867286D01*
X9194193Y-9867286D02*
X9194193Y-9871095D01*
X9194193Y-9871095D02*
X9192288Y-9876810D01*
X9192288Y-9876810D02*
X9188478Y-9880619D01*
X9188478Y-9880619D02*
X9184669Y-9882524D01*
X9184669Y-9882524D02*
X9177050Y-9884429D01*
X9177050Y-9884429D02*
X9171336Y-9884429D01*
X9171336Y-9884429D02*
X9163717Y-9882524D01*
X9163717Y-9882524D02*
X9159907Y-9880619D01*
X9159907Y-9880619D02*
X9156098Y-9876810D01*
X9156098Y-9876810D02*
X9154193Y-9871095D01*
X9154193Y-9871095D02*
X9154193Y-9867286D01*
X9154193Y-9867286D02*
X9156098Y-9861571D01*
X9156098Y-9861571D02*
X9158002Y-9859667D01*
X9154193Y-9823476D02*
X9154193Y-9842524D01*
X9154193Y-9842524D02*
X9173240Y-9844429D01*
X9173240Y-9844429D02*
X9171336Y-9842524D01*
X9171336Y-9842524D02*
X9169431Y-9838714D01*
X9169431Y-9838714D02*
X9169431Y-9829190D01*
X9169431Y-9829190D02*
X9171336Y-9825381D01*
X9171336Y-9825381D02*
X9173240Y-9823476D01*
X9173240Y-9823476D02*
X9177050Y-9821571D01*
X9177050Y-9821571D02*
X9186574Y-9821571D01*
X9186574Y-9821571D02*
X9190383Y-9823476D01*
X9190383Y-9823476D02*
X9192288Y-9825381D01*
X9192288Y-9825381D02*
X9194193Y-9829190D01*
X9194193Y-9829190D02*
X9194193Y-9838714D01*
X9194193Y-9838714D02*
X9192288Y-9842524D01*
X9192288Y-9842524D02*
X9190383Y-9844429D01*
D11*
X6921820Y-9264333D02*
X6909439Y-9273000D01*
X6921820Y-9279190D02*
X6895820Y-9279190D01*
X6895820Y-9279190D02*
X6895820Y-9269286D01*
X6895820Y-9269286D02*
X6897058Y-9266809D01*
X6897058Y-9266809D02*
X6898296Y-9265571D01*
X6898296Y-9265571D02*
X6900772Y-9264333D01*
X6900772Y-9264333D02*
X6904487Y-9264333D01*
X6904487Y-9264333D02*
X6906963Y-9265571D01*
X6906963Y-9265571D02*
X6908201Y-9266809D01*
X6908201Y-9266809D02*
X6909439Y-9269286D01*
X6909439Y-9269286D02*
X6909439Y-9279190D01*
X6895820Y-9240809D02*
X6895820Y-9253190D01*
X6895820Y-9253190D02*
X6908201Y-9254429D01*
X6908201Y-9254429D02*
X6906963Y-9253190D01*
X6906963Y-9253190D02*
X6905725Y-9250714D01*
X6905725Y-9250714D02*
X6905725Y-9244524D01*
X6905725Y-9244524D02*
X6906963Y-9242048D01*
X6906963Y-9242048D02*
X6908201Y-9240809D01*
X6908201Y-9240809D02*
X6910677Y-9239571D01*
X6910677Y-9239571D02*
X6916868Y-9239571D01*
X6916868Y-9239571D02*
X6919344Y-9240809D01*
X6919344Y-9240809D02*
X6920582Y-9242048D01*
X6920582Y-9242048D02*
X6921820Y-9244524D01*
X6921820Y-9244524D02*
X6921820Y-9250714D01*
X6921820Y-9250714D02*
X6920582Y-9253190D01*
X6920582Y-9253190D02*
X6919344Y-9254429D01*
D14*
X10300383Y-9535667D02*
X10302288Y-9537571D01*
X10302288Y-9537571D02*
X10304193Y-9543286D01*
X10304193Y-9543286D02*
X10304193Y-9547095D01*
X10304193Y-9547095D02*
X10302288Y-9552810D01*
X10302288Y-9552810D02*
X10298478Y-9556619D01*
X10298478Y-9556619D02*
X10294669Y-9558524D01*
X10294669Y-9558524D02*
X10287050Y-9560429D01*
X10287050Y-9560429D02*
X10281336Y-9560429D01*
X10281336Y-9560429D02*
X10273717Y-9558524D01*
X10273717Y-9558524D02*
X10269907Y-9556619D01*
X10269907Y-9556619D02*
X10266098Y-9552810D01*
X10266098Y-9552810D02*
X10264193Y-9547095D01*
X10264193Y-9547095D02*
X10264193Y-9543286D01*
X10264193Y-9543286D02*
X10266098Y-9537571D01*
X10266098Y-9537571D02*
X10268002Y-9535667D01*
X10264193Y-9522333D02*
X10264193Y-9497571D01*
X10264193Y-9497571D02*
X10279431Y-9510905D01*
X10279431Y-9510905D02*
X10279431Y-9505190D01*
X10279431Y-9505190D02*
X10281336Y-9501381D01*
X10281336Y-9501381D02*
X10283240Y-9499476D01*
X10283240Y-9499476D02*
X10287050Y-9497571D01*
X10287050Y-9497571D02*
X10296574Y-9497571D01*
X10296574Y-9497571D02*
X10300383Y-9499476D01*
X10300383Y-9499476D02*
X10302288Y-9501381D01*
X10302288Y-9501381D02*
X10304193Y-9505190D01*
X10304193Y-9505190D02*
X10304193Y-9516619D01*
X10304193Y-9516619D02*
X10302288Y-9520429D01*
X10302288Y-9520429D02*
X10300383Y-9522333D01*
X9646383Y-9540167D02*
X9648288Y-9542071D01*
X9648288Y-9542071D02*
X9650193Y-9547786D01*
X9650193Y-9547786D02*
X9650193Y-9551595D01*
X9650193Y-9551595D02*
X9648288Y-9557310D01*
X9648288Y-9557310D02*
X9644478Y-9561119D01*
X9644478Y-9561119D02*
X9640669Y-9563024D01*
X9640669Y-9563024D02*
X9633050Y-9564929D01*
X9633050Y-9564929D02*
X9627336Y-9564929D01*
X9627336Y-9564929D02*
X9619717Y-9563024D01*
X9619717Y-9563024D02*
X9615907Y-9561119D01*
X9615907Y-9561119D02*
X9612098Y-9557310D01*
X9612098Y-9557310D02*
X9610193Y-9551595D01*
X9610193Y-9551595D02*
X9610193Y-9547786D01*
X9610193Y-9547786D02*
X9612098Y-9542071D01*
X9612098Y-9542071D02*
X9614002Y-9540167D01*
X9610193Y-9526833D02*
X9610193Y-9500167D01*
X9610193Y-9500167D02*
X9650193Y-9517310D01*
D15*
X7541464Y-8999317D02*
X7577228Y-9052962D01*
X7577228Y-8999317D02*
X7541464Y-9052962D01*
X7597664Y-9052962D02*
X7597664Y-8999317D01*
X7620654Y-9037635D02*
X7646199Y-9037635D01*
X7615545Y-9052962D02*
X7633427Y-8999317D01*
X7633427Y-8999317D02*
X7651308Y-9052962D01*
X7679408Y-8999317D02*
X7689626Y-8999317D01*
X7689626Y-8999317D02*
X7694735Y-9001871D01*
X7694735Y-9001871D02*
X7699844Y-9006980D01*
X7699844Y-9006980D02*
X7702399Y-9017199D01*
X7702399Y-9017199D02*
X7702399Y-9035080D01*
X7702399Y-9035080D02*
X7699844Y-9045298D01*
X7699844Y-9045298D02*
X7694735Y-9050407D01*
X7694735Y-9050407D02*
X7689626Y-9052962D01*
X7689626Y-9052962D02*
X7679408Y-9052962D01*
X7679408Y-9052962D02*
X7674299Y-9050407D01*
X7674299Y-9050407D02*
X7669190Y-9045298D01*
X7669190Y-9045298D02*
X7666636Y-9035080D01*
X7666636Y-9035080D02*
X7666636Y-9017199D01*
X7666636Y-9017199D02*
X7669190Y-9006980D01*
X7669190Y-9006980D02*
X7674299Y-9001871D01*
X7674299Y-9001871D02*
X7679408Y-8999317D01*
X7725389Y-9032526D02*
X7766262Y-9032526D01*
X7791807Y-9024862D02*
X7809688Y-9024862D01*
X7817352Y-9052962D02*
X7791807Y-9052962D01*
X7791807Y-9052962D02*
X7791807Y-8999317D01*
X7791807Y-8999317D02*
X7817352Y-8999317D01*
X7837788Y-9050407D02*
X7845452Y-9052962D01*
X7845452Y-9052962D02*
X7858224Y-9052962D01*
X7858224Y-9052962D02*
X7863333Y-9050407D01*
X7863333Y-9050407D02*
X7865888Y-9047853D01*
X7865888Y-9047853D02*
X7868442Y-9042744D01*
X7868442Y-9042744D02*
X7868442Y-9037635D01*
X7868442Y-9037635D02*
X7865888Y-9032526D01*
X7865888Y-9032526D02*
X7863333Y-9029971D01*
X7863333Y-9029971D02*
X7858224Y-9027417D01*
X7858224Y-9027417D02*
X7848006Y-9024862D01*
X7848006Y-9024862D02*
X7842897Y-9022308D01*
X7842897Y-9022308D02*
X7840343Y-9019753D01*
X7840343Y-9019753D02*
X7837788Y-9014644D01*
X7837788Y-9014644D02*
X7837788Y-9009535D01*
X7837788Y-9009535D02*
X7840343Y-9004426D01*
X7840343Y-9004426D02*
X7842897Y-9001871D01*
X7842897Y-9001871D02*
X7848006Y-8999317D01*
X7848006Y-8999317D02*
X7860779Y-8999317D01*
X7860779Y-8999317D02*
X7868442Y-9001871D01*
X7891433Y-9052962D02*
X7891433Y-8999317D01*
X7891433Y-8999317D02*
X7911869Y-8999317D01*
X7911869Y-8999317D02*
X7916978Y-9001871D01*
X7916978Y-9001871D02*
X7919533Y-9004426D01*
X7919533Y-9004426D02*
X7922087Y-9009535D01*
X7922087Y-9009535D02*
X7922087Y-9017199D01*
X7922087Y-9017199D02*
X7919533Y-9022308D01*
X7919533Y-9022308D02*
X7916978Y-9024862D01*
X7916978Y-9024862D02*
X7911869Y-9027417D01*
X7911869Y-9027417D02*
X7891433Y-9027417D01*
X7939969Y-8999317D02*
X7973177Y-8999317D01*
X7973177Y-8999317D02*
X7955296Y-9019753D01*
X7955296Y-9019753D02*
X7962959Y-9019753D01*
X7962959Y-9019753D02*
X7968068Y-9022308D01*
X7968068Y-9022308D02*
X7970623Y-9024862D01*
X7970623Y-9024862D02*
X7973177Y-9029971D01*
X7973177Y-9029971D02*
X7973177Y-9042744D01*
X7973177Y-9042744D02*
X7970623Y-9047853D01*
X7970623Y-9047853D02*
X7968068Y-9050407D01*
X7968068Y-9050407D02*
X7962959Y-9052962D01*
X7962959Y-9052962D02*
X7947632Y-9052962D01*
X7947632Y-9052962D02*
X7942523Y-9050407D01*
X7942523Y-9050407D02*
X7939969Y-9047853D01*
X7993613Y-9004426D02*
X7996168Y-9001871D01*
X7996168Y-9001871D02*
X8001277Y-8999317D01*
X8001277Y-8999317D02*
X8014050Y-8999317D01*
X8014050Y-8999317D02*
X8019159Y-9001871D01*
X8019159Y-9001871D02*
X8021713Y-9004426D01*
X8021713Y-9004426D02*
X8024268Y-9009535D01*
X8024268Y-9009535D02*
X8024268Y-9014644D01*
X8024268Y-9014644D02*
X8021713Y-9022308D01*
X8021713Y-9022308D02*
X7991059Y-9052962D01*
X7991059Y-9052962D02*
X8024268Y-9052962D01*
X8047258Y-9032526D02*
X8088131Y-9032526D01*
X8144330Y-9047853D02*
X8141775Y-9050407D01*
X8141775Y-9050407D02*
X8134112Y-9052962D01*
X8134112Y-9052962D02*
X8129003Y-9052962D01*
X8129003Y-9052962D02*
X8121339Y-9050407D01*
X8121339Y-9050407D02*
X8116230Y-9045298D01*
X8116230Y-9045298D02*
X8113676Y-9040189D01*
X8113676Y-9040189D02*
X8111121Y-9029971D01*
X8111121Y-9029971D02*
X8111121Y-9022308D01*
X8111121Y-9022308D02*
X8113676Y-9012089D01*
X8113676Y-9012089D02*
X8116230Y-9006980D01*
X8116230Y-9006980D02*
X8121339Y-9001871D01*
X8121339Y-9001871D02*
X8129003Y-8999317D01*
X8129003Y-8999317D02*
X8134112Y-8999317D01*
X8134112Y-8999317D02*
X8141775Y-9001871D01*
X8141775Y-9001871D02*
X8144330Y-9004426D01*
X8190311Y-8999317D02*
X8180093Y-8999317D01*
X8180093Y-8999317D02*
X8174984Y-9001871D01*
X8174984Y-9001871D02*
X8172430Y-9004426D01*
X8172430Y-9004426D02*
X8167320Y-9012089D01*
X8167320Y-9012089D02*
X8164766Y-9022308D01*
X8164766Y-9022308D02*
X8164766Y-9042744D01*
X8164766Y-9042744D02*
X8167320Y-9047853D01*
X8167320Y-9047853D02*
X8169875Y-9050407D01*
X8169875Y-9050407D02*
X8174984Y-9052962D01*
X8174984Y-9052962D02*
X8185202Y-9052962D01*
X8185202Y-9052962D02*
X8190311Y-9050407D01*
X8190311Y-9050407D02*
X8192866Y-9047853D01*
X8192866Y-9047853D02*
X8195420Y-9042744D01*
X8195420Y-9042744D02*
X8195420Y-9029971D01*
X8195420Y-9029971D02*
X8192866Y-9024862D01*
X8192866Y-9024862D02*
X8190311Y-9022308D01*
X8190311Y-9022308D02*
X8185202Y-9019753D01*
X8185202Y-9019753D02*
X8174984Y-9019753D01*
X8174984Y-9019753D02*
X8169875Y-9022308D01*
X8169875Y-9022308D02*
X8167320Y-9024862D01*
X8167320Y-9024862D02*
X8164766Y-9029971D01*
X8218411Y-9032526D02*
X8259283Y-9032526D01*
X8282274Y-9050407D02*
X8289937Y-9052962D01*
X8289937Y-9052962D02*
X8302710Y-9052962D01*
X8302710Y-9052962D02*
X8307819Y-9050407D01*
X8307819Y-9050407D02*
X8310373Y-9047853D01*
X8310373Y-9047853D02*
X8312928Y-9042744D01*
X8312928Y-9042744D02*
X8312928Y-9037635D01*
X8312928Y-9037635D02*
X8310373Y-9032526D01*
X8310373Y-9032526D02*
X8307819Y-9029971D01*
X8307819Y-9029971D02*
X8302710Y-9027417D01*
X8302710Y-9027417D02*
X8292492Y-9024862D01*
X8292492Y-9024862D02*
X8287383Y-9022308D01*
X8287383Y-9022308D02*
X8284828Y-9019753D01*
X8284828Y-9019753D02*
X8282274Y-9014644D01*
X8282274Y-9014644D02*
X8282274Y-9009535D01*
X8282274Y-9009535D02*
X8284828Y-9004426D01*
X8284828Y-9004426D02*
X8287383Y-9001871D01*
X8287383Y-9001871D02*
X8292492Y-8999317D01*
X8292492Y-8999317D02*
X8305264Y-8999317D01*
X8305264Y-8999317D02*
X8312928Y-9001871D01*
X8335918Y-9052962D02*
X8335918Y-8999317D01*
X8335918Y-8999317D02*
X8353800Y-9037635D01*
X8353800Y-9037635D02*
X8371682Y-8999317D01*
X8371682Y-8999317D02*
X8371682Y-9052962D01*
X8397227Y-9052962D02*
X8397227Y-8999317D01*
X8397227Y-8999317D02*
X8409999Y-8999317D01*
X8409999Y-8999317D02*
X8417663Y-9001871D01*
X8417663Y-9001871D02*
X8422772Y-9006980D01*
X8422772Y-9006980D02*
X8425327Y-9012089D01*
X8425327Y-9012089D02*
X8427881Y-9022308D01*
X8427881Y-9022308D02*
X8427881Y-9029971D01*
X8427881Y-9029971D02*
X8425327Y-9040189D01*
X8425327Y-9040189D02*
X8422772Y-9045298D01*
X8422772Y-9045298D02*
X8417663Y-9050407D01*
X8417663Y-9050407D02*
X8409999Y-9052962D01*
X8409999Y-9052962D02*
X8397227Y-9052962D01*
D11*
X6855667Y-9831820D02*
X6847000Y-9819439D01*
X6840809Y-9831820D02*
X6840809Y-9805820D01*
X6840809Y-9805820D02*
X6850714Y-9805820D01*
X6850714Y-9805820D02*
X6853190Y-9807058D01*
X6853190Y-9807058D02*
X6854429Y-9808296D01*
X6854429Y-9808296D02*
X6855667Y-9810772D01*
X6855667Y-9810772D02*
X6855667Y-9814487D01*
X6855667Y-9814487D02*
X6854429Y-9816963D01*
X6854429Y-9816963D02*
X6853190Y-9818201D01*
X6853190Y-9818201D02*
X6850714Y-9819439D01*
X6850714Y-9819439D02*
X6840809Y-9819439D01*
X6864333Y-9805820D02*
X6881667Y-9805820D01*
X6881667Y-9805820D02*
X6870524Y-9831820D01*
D14*
X9197383Y-9542167D02*
X9199288Y-9544071D01*
X9199288Y-9544071D02*
X9201193Y-9549786D01*
X9201193Y-9549786D02*
X9201193Y-9553595D01*
X9201193Y-9553595D02*
X9199288Y-9559310D01*
X9199288Y-9559310D02*
X9195478Y-9563119D01*
X9195478Y-9563119D02*
X9191669Y-9565024D01*
X9191669Y-9565024D02*
X9184050Y-9566929D01*
X9184050Y-9566929D02*
X9178336Y-9566929D01*
X9178336Y-9566929D02*
X9170717Y-9565024D01*
X9170717Y-9565024D02*
X9166907Y-9563119D01*
X9166907Y-9563119D02*
X9163098Y-9559310D01*
X9163098Y-9559310D02*
X9161193Y-9553595D01*
X9161193Y-9553595D02*
X9161193Y-9549786D01*
X9161193Y-9549786D02*
X9163098Y-9544071D01*
X9163098Y-9544071D02*
X9165002Y-9542167D01*
X9161193Y-9507881D02*
X9161193Y-9515500D01*
X9161193Y-9515500D02*
X9163098Y-9519310D01*
X9163098Y-9519310D02*
X9165002Y-9521214D01*
X9165002Y-9521214D02*
X9170717Y-9525024D01*
X9170717Y-9525024D02*
X9178336Y-9526929D01*
X9178336Y-9526929D02*
X9193574Y-9526929D01*
X9193574Y-9526929D02*
X9197383Y-9525024D01*
X9197383Y-9525024D02*
X9199288Y-9523119D01*
X9199288Y-9523119D02*
X9201193Y-9519310D01*
X9201193Y-9519310D02*
X9201193Y-9511690D01*
X9201193Y-9511690D02*
X9199288Y-9507881D01*
X9199288Y-9507881D02*
X9197383Y-9505976D01*
X9197383Y-9505976D02*
X9193574Y-9504071D01*
X9193574Y-9504071D02*
X9184050Y-9504071D01*
X9184050Y-9504071D02*
X9180240Y-9505976D01*
X9180240Y-9505976D02*
X9178336Y-9507881D01*
X9178336Y-9507881D02*
X9176431Y-9511690D01*
X9176431Y-9511690D02*
X9176431Y-9519310D01*
X9176431Y-9519310D02*
X9178336Y-9523119D01*
X9178336Y-9523119D02*
X9180240Y-9525024D01*
X9180240Y-9525024D02*
X9184050Y-9526929D01*
X9850383Y-9534667D02*
X9852288Y-9536571D01*
X9852288Y-9536571D02*
X9854193Y-9542286D01*
X9854193Y-9542286D02*
X9854193Y-9546095D01*
X9854193Y-9546095D02*
X9852288Y-9551810D01*
X9852288Y-9551810D02*
X9848478Y-9555619D01*
X9848478Y-9555619D02*
X9844669Y-9557524D01*
X9844669Y-9557524D02*
X9837050Y-9559429D01*
X9837050Y-9559429D02*
X9831336Y-9559429D01*
X9831336Y-9559429D02*
X9823717Y-9557524D01*
X9823717Y-9557524D02*
X9819907Y-9555619D01*
X9819907Y-9555619D02*
X9816098Y-9551810D01*
X9816098Y-9551810D02*
X9814193Y-9546095D01*
X9814193Y-9546095D02*
X9814193Y-9542286D01*
X9814193Y-9542286D02*
X9816098Y-9536571D01*
X9816098Y-9536571D02*
X9818002Y-9534667D01*
X9818002Y-9519429D02*
X9816098Y-9517524D01*
X9816098Y-9517524D02*
X9814193Y-9513714D01*
X9814193Y-9513714D02*
X9814193Y-9504190D01*
X9814193Y-9504190D02*
X9816098Y-9500381D01*
X9816098Y-9500381D02*
X9818002Y-9498476D01*
X9818002Y-9498476D02*
X9821812Y-9496571D01*
X9821812Y-9496571D02*
X9825621Y-9496571D01*
X9825621Y-9496571D02*
X9831336Y-9498476D01*
X9831336Y-9498476D02*
X9854193Y-9521333D01*
X9854193Y-9521333D02*
X9854193Y-9496571D01*
D11*
X6860667Y-8186820D02*
X6852000Y-8174439D01*
X6845809Y-8186820D02*
X6845809Y-8160820D01*
X6845809Y-8160820D02*
X6855714Y-8160820D01*
X6855714Y-8160820D02*
X6858190Y-8162058D01*
X6858190Y-8162058D02*
X6859429Y-8163296D01*
X6859429Y-8163296D02*
X6860667Y-8165772D01*
X6860667Y-8165772D02*
X6860667Y-8169487D01*
X6860667Y-8169487D02*
X6859429Y-8171963D01*
X6859429Y-8171963D02*
X6858190Y-8173201D01*
X6858190Y-8173201D02*
X6855714Y-8174439D01*
X6855714Y-8174439D02*
X6845809Y-8174439D01*
X6885429Y-8186820D02*
X6870571Y-8186820D01*
X6878000Y-8186820D02*
X6878000Y-8160820D01*
X6878000Y-8160820D02*
X6875524Y-8164534D01*
X6875524Y-8164534D02*
X6873048Y-8167010D01*
X6873048Y-8167010D02*
X6870571Y-8168249D01*
X6926820Y-9009333D02*
X6914439Y-9018000D01*
X6926820Y-9024190D02*
X6900820Y-9024190D01*
X6900820Y-9024190D02*
X6900820Y-9014286D01*
X6900820Y-9014286D02*
X6902058Y-9011809D01*
X6902058Y-9011809D02*
X6903296Y-9010571D01*
X6903296Y-9010571D02*
X6905772Y-9009333D01*
X6905772Y-9009333D02*
X6909487Y-9009333D01*
X6909487Y-9009333D02*
X6911963Y-9010571D01*
X6911963Y-9010571D02*
X6913201Y-9011809D01*
X6913201Y-9011809D02*
X6914439Y-9014286D01*
X6914439Y-9014286D02*
X6914439Y-9024190D01*
X6909487Y-8987048D02*
X6926820Y-8987048D01*
X6899582Y-8993238D02*
X6918153Y-8999429D01*
X6918153Y-8999429D02*
X6918153Y-8983333D01*
D10*
X9252982Y-9117262D02*
X9252982Y-9107738D01*
X9252982Y-9107738D02*
X9257744Y-9098214D01*
X9257744Y-9098214D02*
X9262506Y-9093452D01*
X9262506Y-9093452D02*
X9272030Y-9088690D01*
X9272030Y-9088690D02*
X9291077Y-9083929D01*
X9291077Y-9083929D02*
X9314887Y-9083929D01*
X9314887Y-9083929D02*
X9333934Y-9088690D01*
X9333934Y-9088690D02*
X9343458Y-9093452D01*
X9343458Y-9093452D02*
X9348220Y-9098214D01*
X9348220Y-9098214D02*
X9352982Y-9107738D01*
X9352982Y-9107738D02*
X9352982Y-9117262D01*
X9352982Y-9117262D02*
X9348220Y-9126786D01*
X9348220Y-9126786D02*
X9343458Y-9131548D01*
X9343458Y-9131548D02*
X9333934Y-9136309D01*
X9333934Y-9136309D02*
X9314887Y-9141071D01*
X9314887Y-9141071D02*
X9291077Y-9141071D01*
X9291077Y-9141071D02*
X9272030Y-9136309D01*
X9272030Y-9136309D02*
X9262506Y-9131548D01*
X9262506Y-9131548D02*
X9257744Y-9126786D01*
X9257744Y-9126786D02*
X9252982Y-9117262D01*
D11*
X9314820Y-9297714D02*
X9302439Y-9306381D01*
X9314820Y-9312571D02*
X9288820Y-9312571D01*
X9288820Y-9312571D02*
X9288820Y-9302667D01*
X9288820Y-9302667D02*
X9290058Y-9300190D01*
X9290058Y-9300190D02*
X9291296Y-9298952D01*
X9291296Y-9298952D02*
X9293772Y-9297714D01*
X9293772Y-9297714D02*
X9297487Y-9297714D01*
X9297487Y-9297714D02*
X9299963Y-9298952D01*
X9299963Y-9298952D02*
X9301201Y-9300190D01*
X9301201Y-9300190D02*
X9302439Y-9302667D01*
X9302439Y-9302667D02*
X9302439Y-9312571D01*
X9291296Y-9287810D02*
X9290058Y-9286571D01*
X9290058Y-9286571D02*
X9288820Y-9284095D01*
X9288820Y-9284095D02*
X9288820Y-9277905D01*
X9288820Y-9277905D02*
X9290058Y-9275429D01*
X9290058Y-9275429D02*
X9291296Y-9274190D01*
X9291296Y-9274190D02*
X9293772Y-9272952D01*
X9293772Y-9272952D02*
X9296249Y-9272952D01*
X9296249Y-9272952D02*
X9299963Y-9274190D01*
X9299963Y-9274190D02*
X9314820Y-9289048D01*
X9314820Y-9289048D02*
X9314820Y-9272952D01*
X9288820Y-9256857D02*
X9288820Y-9254381D01*
X9288820Y-9254381D02*
X9290058Y-9251905D01*
X9290058Y-9251905D02*
X9291296Y-9250667D01*
X9291296Y-9250667D02*
X9293772Y-9249429D01*
X9293772Y-9249429D02*
X9298725Y-9248190D01*
X9298725Y-9248190D02*
X9304915Y-9248190D01*
X9304915Y-9248190D02*
X9309868Y-9249429D01*
X9309868Y-9249429D02*
X9312344Y-9250667D01*
X9312344Y-9250667D02*
X9313582Y-9251905D01*
X9313582Y-9251905D02*
X9314820Y-9254381D01*
X9314820Y-9254381D02*
X9314820Y-9256857D01*
X9314820Y-9256857D02*
X9313582Y-9259333D01*
X9313582Y-9259333D02*
X9312344Y-9260571D01*
X9312344Y-9260571D02*
X9309868Y-9261810D01*
X9309868Y-9261810D02*
X9304915Y-9263048D01*
X9304915Y-9263048D02*
X9298725Y-9263048D01*
X9298725Y-9263048D02*
X9293772Y-9261810D01*
X9293772Y-9261810D02*
X9291296Y-9260571D01*
X9291296Y-9260571D02*
X9290058Y-9259333D01*
X9290058Y-9259333D02*
X9288820Y-9256857D01*
D10*
X9905482Y-9149762D02*
X9905482Y-9140238D01*
X9905482Y-9140238D02*
X9910244Y-9130714D01*
X9910244Y-9130714D02*
X9915006Y-9125952D01*
X9915006Y-9125952D02*
X9924530Y-9121190D01*
X9924530Y-9121190D02*
X9943577Y-9116429D01*
X9943577Y-9116429D02*
X9967387Y-9116429D01*
X9967387Y-9116429D02*
X9986434Y-9121190D01*
X9986434Y-9121190D02*
X9995958Y-9125952D01*
X9995958Y-9125952D02*
X10000720Y-9130714D01*
X10000720Y-9130714D02*
X10005482Y-9140238D01*
X10005482Y-9140238D02*
X10005482Y-9149762D01*
X10005482Y-9149762D02*
X10000720Y-9159286D01*
X10000720Y-9159286D02*
X9995958Y-9164048D01*
X9995958Y-9164048D02*
X9986434Y-9168809D01*
X9986434Y-9168809D02*
X9967387Y-9173571D01*
X9967387Y-9173571D02*
X9943577Y-9173571D01*
X9943577Y-9173571D02*
X9924530Y-9168809D01*
X9924530Y-9168809D02*
X9915006Y-9164048D01*
X9915006Y-9164048D02*
X9910244Y-9159286D01*
X9910244Y-9159286D02*
X9905482Y-9149762D01*
D11*
X9967820Y-9302714D02*
X9955439Y-9311381D01*
X9967820Y-9317571D02*
X9941820Y-9317571D01*
X9941820Y-9317571D02*
X9941820Y-9307667D01*
X9941820Y-9307667D02*
X9943058Y-9305190D01*
X9943058Y-9305190D02*
X9944296Y-9303952D01*
X9944296Y-9303952D02*
X9946772Y-9302714D01*
X9946772Y-9302714D02*
X9950487Y-9302714D01*
X9950487Y-9302714D02*
X9952963Y-9303952D01*
X9952963Y-9303952D02*
X9954201Y-9305190D01*
X9954201Y-9305190D02*
X9955439Y-9307667D01*
X9955439Y-9307667D02*
X9955439Y-9317571D01*
X9967820Y-9277952D02*
X9967820Y-9292810D01*
X9967820Y-9285381D02*
X9941820Y-9285381D01*
X9941820Y-9285381D02*
X9945534Y-9287857D01*
X9945534Y-9287857D02*
X9948011Y-9290333D01*
X9948011Y-9290333D02*
X9949249Y-9292810D01*
X9941820Y-9269286D02*
X9941820Y-9253190D01*
X9941820Y-9253190D02*
X9951725Y-9261857D01*
X9951725Y-9261857D02*
X9951725Y-9258143D01*
X9951725Y-9258143D02*
X9952963Y-9255667D01*
X9952963Y-9255667D02*
X9954201Y-9254429D01*
X9954201Y-9254429D02*
X9956677Y-9253190D01*
X9956677Y-9253190D02*
X9962868Y-9253190D01*
X9962868Y-9253190D02*
X9965344Y-9254429D01*
X9965344Y-9254429D02*
X9966582Y-9255667D01*
X9966582Y-9255667D02*
X9967820Y-9258143D01*
X9967820Y-9258143D02*
X9967820Y-9265571D01*
X9967820Y-9265571D02*
X9966582Y-9268048D01*
X9966582Y-9268048D02*
X9965344Y-9269286D01*
X6926820Y-8754333D02*
X6914439Y-8763000D01*
X6926820Y-8769190D02*
X6900820Y-8769190D01*
X6900820Y-8769190D02*
X6900820Y-8759286D01*
X6900820Y-8759286D02*
X6902058Y-8756809D01*
X6902058Y-8756809D02*
X6903296Y-8755571D01*
X6903296Y-8755571D02*
X6905772Y-8754333D01*
X6905772Y-8754333D02*
X6909487Y-8754333D01*
X6909487Y-8754333D02*
X6911963Y-8755571D01*
X6911963Y-8755571D02*
X6913201Y-8756809D01*
X6913201Y-8756809D02*
X6914439Y-8759286D01*
X6914439Y-8759286D02*
X6914439Y-8769190D01*
X6900820Y-8745667D02*
X6900820Y-8729571D01*
X6900820Y-8729571D02*
X6910725Y-8738238D01*
X6910725Y-8738238D02*
X6910725Y-8734524D01*
X6910725Y-8734524D02*
X6911963Y-8732048D01*
X6911963Y-8732048D02*
X6913201Y-8730809D01*
X6913201Y-8730809D02*
X6915677Y-8729571D01*
X6915677Y-8729571D02*
X6921868Y-8729571D01*
X6921868Y-8729571D02*
X6924344Y-8730809D01*
X6924344Y-8730809D02*
X6925582Y-8732048D01*
X6925582Y-8732048D02*
X6926820Y-8734524D01*
X6926820Y-8734524D02*
X6926820Y-8741952D01*
X6926820Y-8741952D02*
X6925582Y-8744429D01*
X6925582Y-8744429D02*
X6924344Y-8745667D01*
X9186820Y-8415714D02*
X9174439Y-8424381D01*
X9186820Y-8430571D02*
X9160820Y-8430571D01*
X9160820Y-8430571D02*
X9160820Y-8420667D01*
X9160820Y-8420667D02*
X9162058Y-8418190D01*
X9162058Y-8418190D02*
X9163296Y-8416952D01*
X9163296Y-8416952D02*
X9165772Y-8415714D01*
X9165772Y-8415714D02*
X9169487Y-8415714D01*
X9169487Y-8415714D02*
X9171963Y-8416952D01*
X9171963Y-8416952D02*
X9173201Y-8418190D01*
X9173201Y-8418190D02*
X9174439Y-8420667D01*
X9174439Y-8420667D02*
X9174439Y-8430571D01*
X9163296Y-8405810D02*
X9162058Y-8404571D01*
X9162058Y-8404571D02*
X9160820Y-8402095D01*
X9160820Y-8402095D02*
X9160820Y-8395905D01*
X9160820Y-8395905D02*
X9162058Y-8393429D01*
X9162058Y-8393429D02*
X9163296Y-8392190D01*
X9163296Y-8392190D02*
X9165772Y-8390952D01*
X9165772Y-8390952D02*
X9168249Y-8390952D01*
X9168249Y-8390952D02*
X9171963Y-8392190D01*
X9171963Y-8392190D02*
X9186820Y-8407048D01*
X9186820Y-8407048D02*
X9186820Y-8390952D01*
X9163296Y-8381048D02*
X9162058Y-8379809D01*
X9162058Y-8379809D02*
X9160820Y-8377333D01*
X9160820Y-8377333D02*
X9160820Y-8371143D01*
X9160820Y-8371143D02*
X9162058Y-8368667D01*
X9162058Y-8368667D02*
X9163296Y-8367428D01*
X9163296Y-8367428D02*
X9165772Y-8366190D01*
X9165772Y-8366190D02*
X9168249Y-8366190D01*
X9168249Y-8366190D02*
X9171963Y-8367428D01*
X9171963Y-8367428D02*
X9186820Y-8382286D01*
X9186820Y-8382286D02*
X9186820Y-8366190D01*
D10*
X9515983Y-7925868D02*
X9530320Y-7930647D01*
X9530320Y-7930647D02*
X9554214Y-7930647D01*
X9554214Y-7930647D02*
X9563772Y-7925868D01*
X9563772Y-7925868D02*
X9568551Y-7921089D01*
X9568551Y-7921089D02*
X9573330Y-7911532D01*
X9573330Y-7911532D02*
X9573330Y-7901974D01*
X9573330Y-7901974D02*
X9568551Y-7892416D01*
X9568551Y-7892416D02*
X9563772Y-7887637D01*
X9563772Y-7887637D02*
X9554214Y-7882858D01*
X9554214Y-7882858D02*
X9535099Y-7878079D01*
X9535099Y-7878079D02*
X9525541Y-7873300D01*
X9525541Y-7873300D02*
X9520762Y-7868521D01*
X9520762Y-7868521D02*
X9515983Y-7858963D01*
X9515983Y-7858963D02*
X9515983Y-7849405D01*
X9515983Y-7849405D02*
X9520762Y-7839848D01*
X9520762Y-7839848D02*
X9525541Y-7835069D01*
X9525541Y-7835069D02*
X9535099Y-7830290D01*
X9535099Y-7830290D02*
X9558993Y-7830290D01*
X9558993Y-7830290D02*
X9573330Y-7835069D01*
X9611561Y-7839848D02*
X9616340Y-7835069D01*
X9616340Y-7835069D02*
X9625898Y-7830290D01*
X9625898Y-7830290D02*
X9649793Y-7830290D01*
X9649793Y-7830290D02*
X9659351Y-7835069D01*
X9659351Y-7835069D02*
X9664130Y-7839848D01*
X9664130Y-7839848D02*
X9668909Y-7849405D01*
X9668909Y-7849405D02*
X9668909Y-7858963D01*
X9668909Y-7858963D02*
X9664130Y-7873300D01*
X9664130Y-7873300D02*
X9606782Y-7930647D01*
X9606782Y-7930647D02*
X9668909Y-7930647D01*
X9745371Y-7878079D02*
X9759708Y-7882858D01*
X9759708Y-7882858D02*
X9764487Y-7887637D01*
X9764487Y-7887637D02*
X9769266Y-7897195D01*
X9769266Y-7897195D02*
X9769266Y-7911532D01*
X9769266Y-7911532D02*
X9764487Y-7921089D01*
X9764487Y-7921089D02*
X9759708Y-7925868D01*
X9759708Y-7925868D02*
X9750150Y-7930647D01*
X9750150Y-7930647D02*
X9711919Y-7930647D01*
X9711919Y-7930647D02*
X9711919Y-7830290D01*
X9711919Y-7830290D02*
X9745371Y-7830290D01*
X9745371Y-7830290D02*
X9754929Y-7835069D01*
X9754929Y-7835069D02*
X9759708Y-7839848D01*
X9759708Y-7839848D02*
X9764487Y-7849405D01*
X9764487Y-7849405D02*
X9764487Y-7858963D01*
X9764487Y-7858963D02*
X9759708Y-7868521D01*
X9759708Y-7868521D02*
X9754929Y-7873300D01*
X9754929Y-7873300D02*
X9745371Y-7878079D01*
X9745371Y-7878079D02*
X9711919Y-7878079D01*
X9812276Y-7892416D02*
X9888739Y-7892416D01*
X9936529Y-7930647D02*
X9936529Y-7830290D01*
X9936529Y-7830290D02*
X9974760Y-7830290D01*
X9974760Y-7830290D02*
X9984318Y-7835069D01*
X9984318Y-7835069D02*
X9989097Y-7839848D01*
X9989097Y-7839848D02*
X9993876Y-7849405D01*
X9993876Y-7849405D02*
X9993876Y-7863742D01*
X9993876Y-7863742D02*
X9989097Y-7873300D01*
X9989097Y-7873300D02*
X9984318Y-7878079D01*
X9984318Y-7878079D02*
X9974760Y-7882858D01*
X9974760Y-7882858D02*
X9936529Y-7882858D01*
X10036886Y-7930647D02*
X10036886Y-7830290D01*
X10036886Y-7878079D02*
X10094233Y-7878079D01*
X10094233Y-7930647D02*
X10094233Y-7830290D01*
X10142022Y-7892416D02*
X10218485Y-7892416D01*
X10261496Y-7925868D02*
X10275832Y-7930647D01*
X10275832Y-7930647D02*
X10299727Y-7930647D01*
X10299727Y-7930647D02*
X10309285Y-7925868D01*
X10309285Y-7925868D02*
X10314064Y-7921089D01*
X10314064Y-7921089D02*
X10318843Y-7911532D01*
X10318843Y-7911532D02*
X10318843Y-7901974D01*
X10318843Y-7901974D02*
X10314064Y-7892416D01*
X10314064Y-7892416D02*
X10309285Y-7887637D01*
X10309285Y-7887637D02*
X10299727Y-7882858D01*
X10299727Y-7882858D02*
X10280611Y-7878079D01*
X10280611Y-7878079D02*
X10271053Y-7873300D01*
X10271053Y-7873300D02*
X10266275Y-7868521D01*
X10266275Y-7868521D02*
X10261496Y-7858963D01*
X10261496Y-7858963D02*
X10261496Y-7849405D01*
X10261496Y-7849405D02*
X10266275Y-7839848D01*
X10266275Y-7839848D02*
X10271053Y-7835069D01*
X10271053Y-7835069D02*
X10280611Y-7830290D01*
X10280611Y-7830290D02*
X10304506Y-7830290D01*
X10304506Y-7830290D02*
X10318843Y-7835069D01*
X10361853Y-7930647D02*
X10361853Y-7830290D01*
X10361853Y-7830290D02*
X10395306Y-7901974D01*
X10395306Y-7901974D02*
X10428758Y-7830290D01*
X10428758Y-7830290D02*
X10428758Y-7930647D01*
X10519558Y-7863742D02*
X10519558Y-7930647D01*
X10495663Y-7825511D02*
X10471769Y-7897195D01*
X10471769Y-7897195D02*
X10533895Y-7897195D01*
X10572126Y-7892416D02*
X10648589Y-7892416D01*
X10682041Y-7830290D02*
X10739389Y-7830290D01*
X10710715Y-7930647D02*
X10710715Y-7830290D01*
X10806294Y-7878079D02*
X10820630Y-7882858D01*
X10820630Y-7882858D02*
X10825409Y-7887637D01*
X10825409Y-7887637D02*
X10830188Y-7897195D01*
X10830188Y-7897195D02*
X10830188Y-7911532D01*
X10830188Y-7911532D02*
X10825409Y-7921089D01*
X10825409Y-7921089D02*
X10820630Y-7925868D01*
X10820630Y-7925868D02*
X10811072Y-7930647D01*
X10811072Y-7930647D02*
X10772841Y-7930647D01*
X10772841Y-7930647D02*
X10772841Y-7830290D01*
X10772841Y-7830290D02*
X10806294Y-7830290D01*
X10806294Y-7830290D02*
X10815851Y-7835069D01*
X10815851Y-7835069D02*
X10820630Y-7839848D01*
X10820630Y-7839848D02*
X10825409Y-7849405D01*
X10825409Y-7849405D02*
X10825409Y-7858963D01*
X10825409Y-7858963D02*
X10820630Y-7868521D01*
X10820630Y-7868521D02*
X10815851Y-7873300D01*
X10815851Y-7873300D02*
X10806294Y-7878079D01*
X10806294Y-7878079D02*
X10772841Y-7878079D01*
X10849304Y-7940205D02*
X10925767Y-7940205D01*
X10997451Y-7930647D02*
X10949661Y-7930647D01*
X10949661Y-7930647D02*
X10949661Y-7830290D01*
X11064356Y-7878079D02*
X11030903Y-7878079D01*
X11030903Y-7930647D02*
X11030903Y-7830290D01*
X11030903Y-7830290D02*
X11078693Y-7830290D01*
X11093029Y-7940205D02*
X11169492Y-7940205D01*
X11169492Y-7940205D02*
X11245955Y-7940205D01*
X11265071Y-7925868D02*
X11279408Y-7930647D01*
X11279408Y-7930647D02*
X11303302Y-7930647D01*
X11303302Y-7930647D02*
X11312860Y-7925868D01*
X11312860Y-7925868D02*
X11317639Y-7921089D01*
X11317639Y-7921089D02*
X11322418Y-7911532D01*
X11322418Y-7911532D02*
X11322418Y-7901974D01*
X11322418Y-7901974D02*
X11317639Y-7892416D01*
X11317639Y-7892416D02*
X11312860Y-7887637D01*
X11312860Y-7887637D02*
X11303302Y-7882858D01*
X11303302Y-7882858D02*
X11284186Y-7878079D01*
X11284186Y-7878079D02*
X11274629Y-7873300D01*
X11274629Y-7873300D02*
X11269850Y-7868521D01*
X11269850Y-7868521D02*
X11265071Y-7858963D01*
X11265071Y-7858963D02*
X11265071Y-7849405D01*
X11265071Y-7849405D02*
X11269850Y-7839848D01*
X11269850Y-7839848D02*
X11274629Y-7835069D01*
X11274629Y-7835069D02*
X11284186Y-7830290D01*
X11284186Y-7830290D02*
X11308081Y-7830290D01*
X11308081Y-7830290D02*
X11322418Y-7835069D01*
X11365428Y-7930647D02*
X11365428Y-7830290D01*
X11365428Y-7830290D02*
X11422775Y-7930647D01*
X11422775Y-7930647D02*
X11422775Y-7830290D01*
X11446670Y-7940205D02*
X11523133Y-7940205D01*
D11*
X9291820Y-8495714D02*
X9279439Y-8504381D01*
X9291820Y-8510571D02*
X9265820Y-8510571D01*
X9265820Y-8510571D02*
X9265820Y-8500667D01*
X9265820Y-8500667D02*
X9267058Y-8498190D01*
X9267058Y-8498190D02*
X9268296Y-8496952D01*
X9268296Y-8496952D02*
X9270772Y-8495714D01*
X9270772Y-8495714D02*
X9274487Y-8495714D01*
X9274487Y-8495714D02*
X9276963Y-8496952D01*
X9276963Y-8496952D02*
X9278201Y-8498190D01*
X9278201Y-8498190D02*
X9279439Y-8500667D01*
X9279439Y-8500667D02*
X9279439Y-8510571D01*
X9268296Y-8485810D02*
X9267058Y-8484571D01*
X9267058Y-8484571D02*
X9265820Y-8482095D01*
X9265820Y-8482095D02*
X9265820Y-8475905D01*
X9265820Y-8475905D02*
X9267058Y-8473429D01*
X9267058Y-8473429D02*
X9268296Y-8472190D01*
X9268296Y-8472190D02*
X9270772Y-8470952D01*
X9270772Y-8470952D02*
X9273249Y-8470952D01*
X9273249Y-8470952D02*
X9276963Y-8472190D01*
X9276963Y-8472190D02*
X9291820Y-8487048D01*
X9291820Y-8487048D02*
X9291820Y-8470952D01*
X9265820Y-8462286D02*
X9265820Y-8446190D01*
X9265820Y-8446190D02*
X9275725Y-8454857D01*
X9275725Y-8454857D02*
X9275725Y-8451143D01*
X9275725Y-8451143D02*
X9276963Y-8448667D01*
X9276963Y-8448667D02*
X9278201Y-8447429D01*
X9278201Y-8447429D02*
X9280677Y-8446190D01*
X9280677Y-8446190D02*
X9286868Y-8446190D01*
X9286868Y-8446190D02*
X9289344Y-8447429D01*
X9289344Y-8447429D02*
X9290582Y-8448667D01*
X9290582Y-8448667D02*
X9291820Y-8451143D01*
X9291820Y-8451143D02*
X9291820Y-8458571D01*
X9291820Y-8458571D02*
X9290582Y-8461048D01*
X9290582Y-8461048D02*
X9289344Y-8462286D01*
%TO.C,R12*%
D16*
X10029000Y-9233500D02*
X10083000Y-9233500D01*
X10083000Y-9338500D01*
X10029000Y-9338500D01*
X10029000Y-9233500D01*
%TO.C,Q2*%
X9144000Y-8528000D02*
X9186000Y-8528000D01*
X9144000Y-8630000D02*
X9144000Y-8528000D01*
X9206000Y-8548000D02*
X9186000Y-8528000D01*
X9206000Y-8548000D02*
X9206000Y-8630000D01*
X9206000Y-8630000D02*
X9144000Y-8630000D01*
%TO.C,L2*%
D17*
X9330000Y-9975000D02*
X9330000Y-9795000D01*
X9550000Y-9795000D02*
X9330000Y-9795000D01*
X9550000Y-9975000D02*
X9330000Y-9975000D01*
X9550000Y-9975000D02*
X9550000Y-9795000D01*
%TO.C,C1*%
D16*
X9784000Y-9774000D02*
X9864000Y-9774000D01*
X9864000Y-9934000D01*
X9784000Y-9934000D01*
X9784000Y-9774000D01*
%TO.C,R6*%
X6883000Y-9457500D02*
X6937000Y-9457500D01*
X6937000Y-9562500D01*
X6883000Y-9562500D01*
X6883000Y-9457500D01*
%TO.C,D1*%
X9025000Y-8444000D02*
X9085000Y-8444000D01*
X9025000Y-8544000D02*
X9025000Y-8444000D01*
X9035000Y-8479000D02*
X9055000Y-8509000D01*
X9055000Y-8479000D02*
X9055000Y-8464000D01*
X9055000Y-8509000D02*
X9055000Y-8524000D01*
X9055000Y-8509000D02*
X9075000Y-8479000D01*
X9075000Y-8479000D02*
X9035000Y-8479000D01*
X9075000Y-8509000D02*
X9035000Y-8509000D01*
X9085000Y-8444000D02*
X9085000Y-8544000D01*
X9085000Y-8544000D02*
X9025000Y-8544000D01*
%TO.C,L1*%
D17*
X9980000Y-9976000D02*
X9980000Y-9796000D01*
X10200000Y-9796000D02*
X9980000Y-9796000D01*
X10200000Y-9976000D02*
X9980000Y-9976000D01*
X10200000Y-9976000D02*
X10200000Y-9796000D01*
%TO.C,C8*%
D16*
X9030000Y-8265000D02*
X9080000Y-8265000D01*
X9080000Y-8365000D01*
X9030000Y-8365000D01*
X9030000Y-8265000D01*
%TO.C,R21*%
X9179000Y-9227500D02*
X9233000Y-9227500D01*
X9233000Y-9332500D01*
X9179000Y-9332500D01*
X9179000Y-9227500D01*
%TO.C,R18*%
X9371000Y-9228500D02*
X9425000Y-9228500D01*
X9425000Y-9333500D01*
X9371000Y-9333500D01*
X9371000Y-9228500D01*
%TO.C,R15*%
X9831000Y-9233500D02*
X9885000Y-9233500D01*
X9885000Y-9338500D01*
X9831000Y-9338500D01*
X9831000Y-9233500D01*
%TO.C,C5*%
X9136000Y-9773000D02*
X9216000Y-9773000D01*
X9216000Y-9933000D01*
X9136000Y-9933000D01*
X9136000Y-9773000D01*
%TO.C,R5*%
X6883000Y-9207500D02*
X6937000Y-9207500D01*
X6937000Y-9312500D01*
X6883000Y-9312500D01*
X6883000Y-9207500D01*
%TO.C,C3*%
X10246000Y-9449000D02*
X10326000Y-9449000D01*
X10326000Y-9609000D01*
X10246000Y-9609000D01*
X10246000Y-9449000D01*
%TO.C,C7*%
X9592000Y-9453500D02*
X9672000Y-9453500D01*
X9672000Y-9613500D01*
X9592000Y-9613500D01*
X9592000Y-9453500D01*
%TO.C,U2*%
D17*
X9936000Y-9426000D02*
X9936000Y-9676000D01*
X9936000Y-9676000D02*
X10186000Y-9676000D01*
X10186000Y-9426000D02*
X9936000Y-9426000D01*
X10186000Y-9676000D02*
X10186000Y-9426000D01*
D18*
X10176000Y-9346000D02*
G75*
G02*
X10156000Y-9346000I-10000J0D01*
G01*
X10156000Y-9346000D02*
G75*
G02*
X10176000Y-9346000I10000J0D01*
G01*
%TO.C,U1*%
D16*
X7096950Y-8008025D02*
X8876950Y-8008025D01*
X8876950Y-10108025D01*
X7096950Y-10108025D01*
X7096950Y-8008025D01*
D19*
X7230550Y-8118025D02*
G75*
G02*
X7180150Y-8118025I-25200J0D01*
G01*
X7180150Y-8118025D02*
G75*
G02*
X7230550Y-8118025I25200J0D01*
G01*
%TO.C,U4*%
D17*
X9283000Y-9431000D02*
X9283000Y-9681000D01*
X9283000Y-9681000D02*
X9533000Y-9681000D01*
X9533000Y-9431000D02*
X9283000Y-9431000D01*
X9533000Y-9681000D02*
X9533000Y-9431000D01*
D18*
X9523000Y-9351000D02*
G75*
G02*
X9503000Y-9351000I-10000J0D01*
G01*
X9503000Y-9351000D02*
G75*
G02*
X9523000Y-9351000I10000J0D01*
G01*
%TO.C,R7*%
D16*
X6807500Y-9793000D02*
X6912500Y-9793000D01*
X6912500Y-9847000D01*
X6807500Y-9847000D01*
X6807500Y-9793000D01*
%TO.C,C6*%
X9143000Y-9455500D02*
X9223000Y-9455500D01*
X9223000Y-9615500D01*
X9143000Y-9615500D01*
X9143000Y-9455500D01*
%TO.C,C2*%
X9796000Y-9448000D02*
X9876000Y-9448000D01*
X9876000Y-9608000D01*
X9796000Y-9608000D01*
X9796000Y-9448000D01*
%TO.C,R1*%
X6812500Y-8148000D02*
X6917500Y-8148000D01*
X6917500Y-8202000D01*
X6812500Y-8202000D01*
X6812500Y-8148000D01*
%TO.C,R4*%
X6888000Y-8952500D02*
X6942000Y-8952500D01*
X6942000Y-9057500D01*
X6888000Y-9057500D01*
X6888000Y-8952500D01*
%TO.C,R20*%
X9276000Y-9228500D02*
X9330000Y-9228500D01*
X9330000Y-9333500D01*
X9276000Y-9333500D01*
X9276000Y-9228500D01*
%TO.C,R13*%
X9929000Y-9233500D02*
X9983000Y-9233500D01*
X9983000Y-9338500D01*
X9929000Y-9338500D01*
X9929000Y-9233500D01*
%TO.C,R3*%
X6888000Y-8697500D02*
X6942000Y-8697500D01*
X6942000Y-8802500D01*
X6888000Y-8802500D01*
X6888000Y-8697500D01*
%TO.C,R22*%
X9148000Y-8346500D02*
X9202000Y-8346500D01*
X9202000Y-8451500D01*
X9148000Y-8451500D01*
X9148000Y-8346500D01*
%TO.C,J1*%
D17*
X9451000Y-8085000D02*
X10241000Y-8085000D01*
X9451000Y-8845000D02*
X9451000Y-8085000D01*
X10241000Y-8085000D02*
X10241000Y-8845000D01*
X10241000Y-8845000D02*
X9451000Y-8845000D01*
D20*
X10071000Y-8945000D02*
G75*
G02*
X10051000Y-8945000I-10000J0D01*
G01*
X10051000Y-8945000D02*
G75*
G02*
X10071000Y-8945000I10000J0D01*
G01*
%TO.C,R23*%
D16*
X9253000Y-8426500D02*
X9307000Y-8426500D01*
X9307000Y-8531500D01*
X9253000Y-8531500D01*
X9253000Y-8426500D01*
%TD*%
M02*
