%TF.GenerationSoftware,KiCad,Pcbnew,10.0.3*%
%TF.CreationDate,2026-08-01T18:43:58+02:00*%
%TF.ProjectId,wulpus_pro_wifi_host,77756c70-7573-45f7-9072-6f5f77696669,rev?*%
%TF.SameCoordinates,Original*%
%TF.FileFunction,Legend,Bot*%
%TF.FilePolarity,Positive*%
%FSLAX45Y45*%
G04 Gerber Fmt 4.5, Leading zero omitted, Abs format (unit mm)*
G04 Created by KiCad (PCBNEW 10.0.3) date 2026-08-01 18:43:58*
%MOMM*%
%LPD*%
G01*
G04 APERTURE LIST*
G04 Aperture macros list*
%AMRoundRect*
0 Rectangle with rounded corners*
0 $1 Rounding radius*
0 $2 $3 $4 $5 $6 $7 $8 $9 X,Y pos of 4 corners*
0 Add a 4 corners polygon primitive as box body*
4,1,4,$2,$3,$4,$5,$6,$7,$8,$9,$2,$3,0*
0 Add four circle primitives for the rounded corners*
1,1,$1+$1,$2,$3*
1,1,$1+$1,$4,$5*
1,1,$1+$1,$6,$7*
1,1,$1+$1,$8,$9*
0 Add four rect primitives between the rounded corners*
20,1,$1+$1,$2,$3,$4,$5,0*
20,1,$1+$1,$4,$5,$6,$7,0*
20,1,$1+$1,$6,$7,$8,$9,0*
20,1,$1+$1,$8,$9,$2,$3,0*%
G04 Aperture macros list end*
%ADD10C,0.150000*%
%ADD11C,0.127000*%
%ADD12C,0.200000*%
%ADD13C,0.120000*%
%ADD14RoundRect,0.059250X-0.177750X0.552750X-0.177750X-0.552750X0.177750X-0.552750X0.177750X0.552750X0*%
%ADD15RoundRect,0.059250X-0.177750X0.512750X-0.177750X-0.512750X0.177750X-0.512750X0.177750X0.512750X0*%
%ADD16RoundRect,0.185000X0.235000X-0.185000X0.235000X0.185000X-0.235000X0.185000X-0.235000X-0.185000X0*%
%ADD17RoundRect,0.185000X0.185000X0.235000X-0.185000X0.235000X-0.185000X-0.235000X0.185000X-0.235000X0*%
%ADD18RoundRect,0.198500X-0.508500X-0.198500X0.508500X-0.198500X0.508500X0.198500X-0.508500X0.198500X0*%
%ADD19RoundRect,0.185000X-0.185000X-0.235000X0.185000X-0.235000X0.185000X0.235000X-0.185000X0.235000X0*%
%ADD20RoundRect,0.275000X-0.275000X-0.300000X0.275000X-0.300000X0.275000X0.300000X-0.275000X0.300000X0*%
%ADD21RoundRect,0.050000X-0.330000X0.115000X-0.330000X-0.115000X0.330000X-0.115000X0.330000X0.115000X0*%
%ADD22RoundRect,0.102000X-0.330000X0.175000X-0.330000X-0.175000X0.330000X-0.175000X0.330000X0.175000X0*%
%ADD23RoundRect,0.190000X-0.190000X-0.220000X0.190000X-0.220000X0.190000X0.220000X-0.190000X0.220000X0*%
G04 APERTURE END LIST*
D10*
X10196703Y-9341880D02*
X10160989Y-9491880D01*
X10160989Y-9491880D02*
X10132417Y-9384737D01*
X10132417Y-9384737D02*
X10103846Y-9491880D01*
X10103846Y-9491880D02*
X10068132Y-9341880D01*
X10010989Y-9491880D02*
X10010989Y-9391880D01*
X10010989Y-9341880D02*
X10018132Y-9349023D01*
X10018132Y-9349023D02*
X10010989Y-9356165D01*
X10010989Y-9356165D02*
X10003846Y-9349023D01*
X10003846Y-9349023D02*
X10010989Y-9341880D01*
X10010989Y-9341880D02*
X10010989Y-9356165D01*
X9889560Y-9413308D02*
X9939560Y-9413308D01*
X9939560Y-9491880D02*
X9939560Y-9341880D01*
X9939560Y-9341880D02*
X9868132Y-9341880D01*
X9810989Y-9491880D02*
X9810989Y-9391880D01*
X9810989Y-9341880D02*
X9818132Y-9349023D01*
X9818132Y-9349023D02*
X9810989Y-9356165D01*
X9810989Y-9356165D02*
X9803846Y-9349023D01*
X9803846Y-9349023D02*
X9810989Y-9341880D01*
X9810989Y-9341880D02*
X9810989Y-9356165D01*
X9625274Y-9491880D02*
X9625274Y-9341880D01*
X9625274Y-9413308D02*
X9539560Y-9413308D01*
X9539560Y-9491880D02*
X9539560Y-9341880D01*
X9446703Y-9491880D02*
X9460989Y-9484737D01*
X9460989Y-9484737D02*
X9468132Y-9477594D01*
X9468132Y-9477594D02*
X9475274Y-9463308D01*
X9475274Y-9463308D02*
X9475274Y-9420451D01*
X9475274Y-9420451D02*
X9468132Y-9406165D01*
X9468132Y-9406165D02*
X9460989Y-9399023D01*
X9460989Y-9399023D02*
X9446703Y-9391880D01*
X9446703Y-9391880D02*
X9425274Y-9391880D01*
X9425274Y-9391880D02*
X9410989Y-9399023D01*
X9410989Y-9399023D02*
X9403846Y-9406165D01*
X9403846Y-9406165D02*
X9396703Y-9420451D01*
X9396703Y-9420451D02*
X9396703Y-9463308D01*
X9396703Y-9463308D02*
X9403846Y-9477594D01*
X9403846Y-9477594D02*
X9410989Y-9484737D01*
X9410989Y-9484737D02*
X9425274Y-9491880D01*
X9425274Y-9491880D02*
X9446703Y-9491880D01*
X9339560Y-9484737D02*
X9325274Y-9491880D01*
X9325274Y-9491880D02*
X9296703Y-9491880D01*
X9296703Y-9491880D02*
X9282417Y-9484737D01*
X9282417Y-9484737D02*
X9275274Y-9470451D01*
X9275274Y-9470451D02*
X9275274Y-9463308D01*
X9275274Y-9463308D02*
X9282417Y-9449023D01*
X9282417Y-9449023D02*
X9296703Y-9441880D01*
X9296703Y-9441880D02*
X9318132Y-9441880D01*
X9318132Y-9441880D02*
X9332417Y-9434737D01*
X9332417Y-9434737D02*
X9339560Y-9420451D01*
X9339560Y-9420451D02*
X9339560Y-9413308D01*
X9339560Y-9413308D02*
X9332417Y-9399023D01*
X9332417Y-9399023D02*
X9318132Y-9391880D01*
X9318132Y-9391880D02*
X9296703Y-9391880D01*
X9296703Y-9391880D02*
X9282417Y-9399023D01*
X9232417Y-9391880D02*
X9175274Y-9391880D01*
X9210989Y-9341880D02*
X9210989Y-9470451D01*
X9210989Y-9470451D02*
X9203846Y-9484737D01*
X9203846Y-9484737D02*
X9189560Y-9491880D01*
X9189560Y-9491880D02*
X9175274Y-9491880D01*
X8960989Y-9413308D02*
X8939560Y-9420451D01*
X8939560Y-9420451D02*
X8932417Y-9427594D01*
X8932417Y-9427594D02*
X8925274Y-9441880D01*
X8925274Y-9441880D02*
X8925274Y-9463308D01*
X8925274Y-9463308D02*
X8932417Y-9477594D01*
X8932417Y-9477594D02*
X8939560Y-9484737D01*
X8939560Y-9484737D02*
X8953846Y-9491880D01*
X8953846Y-9491880D02*
X9010989Y-9491880D01*
X9010989Y-9491880D02*
X9010989Y-9341880D01*
X9010989Y-9341880D02*
X8960989Y-9341880D01*
X8960989Y-9341880D02*
X8946703Y-9349023D01*
X8946703Y-9349023D02*
X8939560Y-9356165D01*
X8939560Y-9356165D02*
X8932417Y-9370451D01*
X8932417Y-9370451D02*
X8932417Y-9384737D01*
X8932417Y-9384737D02*
X8939560Y-9399023D01*
X8939560Y-9399023D02*
X8946703Y-9406165D01*
X8946703Y-9406165D02*
X8960989Y-9413308D01*
X8960989Y-9413308D02*
X9010989Y-9413308D01*
X8839560Y-9491880D02*
X8853846Y-9484737D01*
X8853846Y-9484737D02*
X8860989Y-9477594D01*
X8860989Y-9477594D02*
X8868131Y-9463308D01*
X8868131Y-9463308D02*
X8868131Y-9420451D01*
X8868131Y-9420451D02*
X8860989Y-9406165D01*
X8860989Y-9406165D02*
X8853846Y-9399023D01*
X8853846Y-9399023D02*
X8839560Y-9391880D01*
X8839560Y-9391880D02*
X8818131Y-9391880D01*
X8818131Y-9391880D02*
X8803846Y-9399023D01*
X8803846Y-9399023D02*
X8796703Y-9406165D01*
X8796703Y-9406165D02*
X8789560Y-9420451D01*
X8789560Y-9420451D02*
X8789560Y-9463308D01*
X8789560Y-9463308D02*
X8796703Y-9477594D01*
X8796703Y-9477594D02*
X8803846Y-9484737D01*
X8803846Y-9484737D02*
X8818131Y-9491880D01*
X8818131Y-9491880D02*
X8839560Y-9491880D01*
X8660989Y-9491880D02*
X8660989Y-9413308D01*
X8660989Y-9413308D02*
X8668131Y-9399023D01*
X8668131Y-9399023D02*
X8682417Y-9391880D01*
X8682417Y-9391880D02*
X8710989Y-9391880D01*
X8710989Y-9391880D02*
X8725274Y-9399023D01*
X8660989Y-9484737D02*
X8675274Y-9491880D01*
X8675274Y-9491880D02*
X8710989Y-9491880D01*
X8710989Y-9491880D02*
X8725274Y-9484737D01*
X8725274Y-9484737D02*
X8732417Y-9470451D01*
X8732417Y-9470451D02*
X8732417Y-9456165D01*
X8732417Y-9456165D02*
X8725274Y-9441880D01*
X8725274Y-9441880D02*
X8710989Y-9434737D01*
X8710989Y-9434737D02*
X8675274Y-9434737D01*
X8675274Y-9434737D02*
X8660989Y-9427594D01*
X8589560Y-9491880D02*
X8589560Y-9391880D01*
X8589560Y-9420451D02*
X8582417Y-9406165D01*
X8582417Y-9406165D02*
X8575274Y-9399023D01*
X8575274Y-9399023D02*
X8560989Y-9391880D01*
X8560989Y-9391880D02*
X8546703Y-9391880D01*
X8432417Y-9491880D02*
X8432417Y-9341880D01*
X8432417Y-9484737D02*
X8446703Y-9491880D01*
X8446703Y-9491880D02*
X8475274Y-9491880D01*
X8475274Y-9491880D02*
X8489560Y-9484737D01*
X8489560Y-9484737D02*
X8496703Y-9477594D01*
X8496703Y-9477594D02*
X8503846Y-9463308D01*
X8503846Y-9463308D02*
X8503846Y-9420451D01*
X8503846Y-9420451D02*
X8496703Y-9406165D01*
X8496703Y-9406165D02*
X8489560Y-9399023D01*
X8489560Y-9399023D02*
X8475274Y-9391880D01*
X8475274Y-9391880D02*
X8446703Y-9391880D01*
X8446703Y-9391880D02*
X8432417Y-9399023D01*
X8260989Y-9391880D02*
X8225274Y-9491880D01*
X8225274Y-9491880D02*
X8189560Y-9391880D01*
X8053846Y-9491880D02*
X8139560Y-9491880D01*
X8096703Y-9491880D02*
X8096703Y-9341880D01*
X8096703Y-9341880D02*
X8110989Y-9363308D01*
X8110989Y-9363308D02*
X8125274Y-9377594D01*
X8125274Y-9377594D02*
X8139560Y-9384737D01*
X7989560Y-9477594D02*
X7982417Y-9484737D01*
X7982417Y-9484737D02*
X7989560Y-9491880D01*
X7989560Y-9491880D02*
X7996703Y-9484737D01*
X7996703Y-9484737D02*
X7989560Y-9477594D01*
X7989560Y-9477594D02*
X7989560Y-9491880D01*
X7889560Y-9341880D02*
X7875274Y-9341880D01*
X7875274Y-9341880D02*
X7860989Y-9349023D01*
X7860989Y-9349023D02*
X7853846Y-9356165D01*
X7853846Y-9356165D02*
X7846703Y-9370451D01*
X7846703Y-9370451D02*
X7839560Y-9399023D01*
X7839560Y-9399023D02*
X7839560Y-9434737D01*
X7839560Y-9434737D02*
X7846703Y-9463308D01*
X7846703Y-9463308D02*
X7853846Y-9477594D01*
X7853846Y-9477594D02*
X7860989Y-9484737D01*
X7860989Y-9484737D02*
X7875274Y-9491880D01*
X7875274Y-9491880D02*
X7889560Y-9491880D01*
X7889560Y-9491880D02*
X7903846Y-9484737D01*
X7903846Y-9484737D02*
X7910989Y-9477594D01*
X7910989Y-9477594D02*
X7918131Y-9463308D01*
X7918131Y-9463308D02*
X7925274Y-9434737D01*
X7925274Y-9434737D02*
X7925274Y-9399023D01*
X7925274Y-9399023D02*
X7918131Y-9370451D01*
X7918131Y-9370451D02*
X7910989Y-9356165D01*
X7910989Y-9356165D02*
X7903846Y-9349023D01*
X7903846Y-9349023D02*
X7889560Y-9341880D01*
X10189560Y-9726228D02*
X10168132Y-9733371D01*
X10168132Y-9733371D02*
X10132417Y-9733371D01*
X10132417Y-9733371D02*
X10118132Y-9726228D01*
X10118132Y-9726228D02*
X10110989Y-9719086D01*
X10110989Y-9719086D02*
X10103846Y-9704800D01*
X10103846Y-9704800D02*
X10103846Y-9690514D01*
X10103846Y-9690514D02*
X10110989Y-9676228D01*
X10110989Y-9676228D02*
X10118132Y-9669086D01*
X10118132Y-9669086D02*
X10132417Y-9661943D01*
X10132417Y-9661943D02*
X10160989Y-9654800D01*
X10160989Y-9654800D02*
X10175274Y-9647657D01*
X10175274Y-9647657D02*
X10182417Y-9640514D01*
X10182417Y-9640514D02*
X10189560Y-9626228D01*
X10189560Y-9626228D02*
X10189560Y-9611943D01*
X10189560Y-9611943D02*
X10182417Y-9597657D01*
X10182417Y-9597657D02*
X10175274Y-9590514D01*
X10175274Y-9590514D02*
X10160989Y-9583371D01*
X10160989Y-9583371D02*
X10125274Y-9583371D01*
X10125274Y-9583371D02*
X10103846Y-9590514D01*
X9982417Y-9726228D02*
X9996703Y-9733371D01*
X9996703Y-9733371D02*
X10025275Y-9733371D01*
X10025275Y-9733371D02*
X10039560Y-9726228D01*
X10039560Y-9726228D02*
X10046703Y-9711943D01*
X10046703Y-9711943D02*
X10046703Y-9654800D01*
X10046703Y-9654800D02*
X10039560Y-9640514D01*
X10039560Y-9640514D02*
X10025275Y-9633371D01*
X10025275Y-9633371D02*
X9996703Y-9633371D01*
X9996703Y-9633371D02*
X9982417Y-9640514D01*
X9982417Y-9640514D02*
X9975275Y-9654800D01*
X9975275Y-9654800D02*
X9975275Y-9669086D01*
X9975275Y-9669086D02*
X10046703Y-9683371D01*
X9910989Y-9733371D02*
X9910989Y-9633371D01*
X9910989Y-9661943D02*
X9903846Y-9647657D01*
X9903846Y-9647657D02*
X9896703Y-9640514D01*
X9896703Y-9640514D02*
X9882417Y-9633371D01*
X9882417Y-9633371D02*
X9868132Y-9633371D01*
X9753846Y-9633371D02*
X9753846Y-9754800D01*
X9753846Y-9754800D02*
X9760989Y-9769086D01*
X9760989Y-9769086D02*
X9768132Y-9776228D01*
X9768132Y-9776228D02*
X9782417Y-9783371D01*
X9782417Y-9783371D02*
X9803846Y-9783371D01*
X9803846Y-9783371D02*
X9818132Y-9776228D01*
X9753846Y-9726228D02*
X9768132Y-9733371D01*
X9768132Y-9733371D02*
X9796703Y-9733371D01*
X9796703Y-9733371D02*
X9810989Y-9726228D01*
X9810989Y-9726228D02*
X9818132Y-9719086D01*
X9818132Y-9719086D02*
X9825275Y-9704800D01*
X9825275Y-9704800D02*
X9825275Y-9661943D01*
X9825275Y-9661943D02*
X9818132Y-9647657D01*
X9818132Y-9647657D02*
X9810989Y-9640514D01*
X9810989Y-9640514D02*
X9796703Y-9633371D01*
X9796703Y-9633371D02*
X9768132Y-9633371D01*
X9768132Y-9633371D02*
X9753846Y-9640514D01*
X9625275Y-9726228D02*
X9639560Y-9733371D01*
X9639560Y-9733371D02*
X9668132Y-9733371D01*
X9668132Y-9733371D02*
X9682417Y-9726228D01*
X9682417Y-9726228D02*
X9689560Y-9711943D01*
X9689560Y-9711943D02*
X9689560Y-9654800D01*
X9689560Y-9654800D02*
X9682417Y-9640514D01*
X9682417Y-9640514D02*
X9668132Y-9633371D01*
X9668132Y-9633371D02*
X9639560Y-9633371D01*
X9639560Y-9633371D02*
X9625275Y-9640514D01*
X9625275Y-9640514D02*
X9618132Y-9654800D01*
X9618132Y-9654800D02*
X9618132Y-9669086D01*
X9618132Y-9669086D02*
X9689560Y-9683371D01*
X9553846Y-9733371D02*
X9553846Y-9633371D01*
X9553846Y-9583371D02*
X9560989Y-9590514D01*
X9560989Y-9590514D02*
X9553846Y-9597657D01*
X9553846Y-9597657D02*
X9546703Y-9590514D01*
X9546703Y-9590514D02*
X9553846Y-9583371D01*
X9553846Y-9583371D02*
X9553846Y-9597657D01*
X9389560Y-9583371D02*
X9339560Y-9733371D01*
X9339560Y-9733371D02*
X9289560Y-9583371D01*
X9218132Y-9733371D02*
X9232417Y-9726228D01*
X9232417Y-9726228D02*
X9239560Y-9719086D01*
X9239560Y-9719086D02*
X9246703Y-9704800D01*
X9246703Y-9704800D02*
X9246703Y-9661943D01*
X9246703Y-9661943D02*
X9239560Y-9647657D01*
X9239560Y-9647657D02*
X9232417Y-9640514D01*
X9232417Y-9640514D02*
X9218132Y-9633371D01*
X9218132Y-9633371D02*
X9196703Y-9633371D01*
X9196703Y-9633371D02*
X9182417Y-9640514D01*
X9182417Y-9640514D02*
X9175275Y-9647657D01*
X9175275Y-9647657D02*
X9168132Y-9661943D01*
X9168132Y-9661943D02*
X9168132Y-9704800D01*
X9168132Y-9704800D02*
X9175275Y-9719086D01*
X9175275Y-9719086D02*
X9182417Y-9726228D01*
X9182417Y-9726228D02*
X9196703Y-9733371D01*
X9196703Y-9733371D02*
X9218132Y-9733371D01*
X9110989Y-9726228D02*
X9096703Y-9733371D01*
X9096703Y-9733371D02*
X9068132Y-9733371D01*
X9068132Y-9733371D02*
X9053846Y-9726228D01*
X9053846Y-9726228D02*
X9046703Y-9711943D01*
X9046703Y-9711943D02*
X9046703Y-9704800D01*
X9046703Y-9704800D02*
X9053846Y-9690514D01*
X9053846Y-9690514D02*
X9068132Y-9683371D01*
X9068132Y-9683371D02*
X9089560Y-9683371D01*
X9089560Y-9683371D02*
X9103846Y-9676228D01*
X9103846Y-9676228D02*
X9110989Y-9661943D01*
X9110989Y-9661943D02*
X9110989Y-9654800D01*
X9110989Y-9654800D02*
X9103846Y-9640514D01*
X9103846Y-9640514D02*
X9089560Y-9633371D01*
X9089560Y-9633371D02*
X9068132Y-9633371D01*
X9068132Y-9633371D02*
X9053846Y-9640514D01*
X9003846Y-9633371D02*
X8946703Y-9633371D01*
X8982417Y-9583371D02*
X8982417Y-9711943D01*
X8982417Y-9711943D02*
X8975275Y-9726228D01*
X8975275Y-9726228D02*
X8960989Y-9733371D01*
X8960989Y-9733371D02*
X8946703Y-9733371D01*
X8896703Y-9733371D02*
X8896703Y-9633371D01*
X8896703Y-9661943D02*
X8889560Y-9647657D01*
X8889560Y-9647657D02*
X8882417Y-9640514D01*
X8882417Y-9640514D02*
X8868132Y-9633371D01*
X8868132Y-9633371D02*
X8853846Y-9633371D01*
X8803846Y-9733371D02*
X8803846Y-9633371D01*
X8803846Y-9583371D02*
X8810989Y-9590514D01*
X8810989Y-9590514D02*
X8803846Y-9597657D01*
X8803846Y-9597657D02*
X8796703Y-9590514D01*
X8796703Y-9590514D02*
X8803846Y-9583371D01*
X8803846Y-9583371D02*
X8803846Y-9597657D01*
X8732417Y-9733371D02*
X8732417Y-9583371D01*
X8718132Y-9676228D02*
X8675275Y-9733371D01*
X8675275Y-9633371D02*
X8732417Y-9690514D01*
X8589560Y-9733371D02*
X8603846Y-9726228D01*
X8603846Y-9726228D02*
X8610989Y-9719086D01*
X8610989Y-9719086D02*
X8618132Y-9704800D01*
X8618132Y-9704800D02*
X8618132Y-9661943D01*
X8618132Y-9661943D02*
X8610989Y-9647657D01*
X8610989Y-9647657D02*
X8603846Y-9640514D01*
X8603846Y-9640514D02*
X8589560Y-9633371D01*
X8589560Y-9633371D02*
X8568132Y-9633371D01*
X8568132Y-9633371D02*
X8553846Y-9640514D01*
X8553846Y-9640514D02*
X8546703Y-9647657D01*
X8546703Y-9647657D02*
X8539560Y-9661943D01*
X8539560Y-9661943D02*
X8539560Y-9704800D01*
X8539560Y-9704800D02*
X8546703Y-9719086D01*
X8546703Y-9719086D02*
X8553846Y-9726228D01*
X8553846Y-9726228D02*
X8568132Y-9733371D01*
X8568132Y-9733371D02*
X8589560Y-9733371D01*
X8489560Y-9633371D02*
X8453846Y-9733371D01*
X8453846Y-9733371D02*
X8418132Y-9633371D01*
X10196703Y-9824863D02*
X10103846Y-9824863D01*
X10103846Y-9824863D02*
X10153846Y-9882006D01*
X10153846Y-9882006D02*
X10132417Y-9882006D01*
X10132417Y-9882006D02*
X10118132Y-9889149D01*
X10118132Y-9889149D02*
X10110989Y-9896291D01*
X10110989Y-9896291D02*
X10103846Y-9910577D01*
X10103846Y-9910577D02*
X10103846Y-9946291D01*
X10103846Y-9946291D02*
X10110989Y-9960577D01*
X10110989Y-9960577D02*
X10118132Y-9967720D01*
X10118132Y-9967720D02*
X10132417Y-9974863D01*
X10132417Y-9974863D02*
X10175274Y-9974863D01*
X10175274Y-9974863D02*
X10189560Y-9967720D01*
X10189560Y-9967720D02*
X10196703Y-9960577D01*
X10010989Y-9824863D02*
X9996703Y-9824863D01*
X9996703Y-9824863D02*
X9982417Y-9832006D01*
X9982417Y-9832006D02*
X9975275Y-9839149D01*
X9975275Y-9839149D02*
X9968132Y-9853434D01*
X9968132Y-9853434D02*
X9960989Y-9882006D01*
X9960989Y-9882006D02*
X9960989Y-9917720D01*
X9960989Y-9917720D02*
X9968132Y-9946291D01*
X9968132Y-9946291D02*
X9975275Y-9960577D01*
X9975275Y-9960577D02*
X9982417Y-9967720D01*
X9982417Y-9967720D02*
X9996703Y-9974863D01*
X9996703Y-9974863D02*
X10010989Y-9974863D01*
X10010989Y-9974863D02*
X10025275Y-9967720D01*
X10025275Y-9967720D02*
X10032417Y-9960577D01*
X10032417Y-9960577D02*
X10039560Y-9946291D01*
X10039560Y-9946291D02*
X10046703Y-9917720D01*
X10046703Y-9917720D02*
X10046703Y-9882006D01*
X10046703Y-9882006D02*
X10039560Y-9853434D01*
X10039560Y-9853434D02*
X10032417Y-9839149D01*
X10032417Y-9839149D02*
X10025275Y-9832006D01*
X10025275Y-9832006D02*
X10010989Y-9824863D01*
X9896703Y-9960577D02*
X9889560Y-9967720D01*
X9889560Y-9967720D02*
X9896703Y-9974863D01*
X9896703Y-9974863D02*
X9903846Y-9967720D01*
X9903846Y-9967720D02*
X9896703Y-9960577D01*
X9896703Y-9960577D02*
X9896703Y-9974863D01*
X9796703Y-9824863D02*
X9782417Y-9824863D01*
X9782417Y-9824863D02*
X9768132Y-9832006D01*
X9768132Y-9832006D02*
X9760989Y-9839149D01*
X9760989Y-9839149D02*
X9753846Y-9853434D01*
X9753846Y-9853434D02*
X9746703Y-9882006D01*
X9746703Y-9882006D02*
X9746703Y-9917720D01*
X9746703Y-9917720D02*
X9753846Y-9946291D01*
X9753846Y-9946291D02*
X9760989Y-9960577D01*
X9760989Y-9960577D02*
X9768132Y-9967720D01*
X9768132Y-9967720D02*
X9782417Y-9974863D01*
X9782417Y-9974863D02*
X9796703Y-9974863D01*
X9796703Y-9974863D02*
X9810989Y-9967720D01*
X9810989Y-9967720D02*
X9818132Y-9960577D01*
X9818132Y-9960577D02*
X9825275Y-9946291D01*
X9825275Y-9946291D02*
X9832417Y-9917720D01*
X9832417Y-9917720D02*
X9832417Y-9882006D01*
X9832417Y-9882006D02*
X9825275Y-9853434D01*
X9825275Y-9853434D02*
X9818132Y-9839149D01*
X9818132Y-9839149D02*
X9810989Y-9832006D01*
X9810989Y-9832006D02*
X9796703Y-9824863D01*
X9696703Y-9824863D02*
X9596703Y-9824863D01*
X9596703Y-9824863D02*
X9660989Y-9974863D01*
X9539560Y-9960577D02*
X9532417Y-9967720D01*
X9532417Y-9967720D02*
X9539560Y-9974863D01*
X9539560Y-9974863D02*
X9546703Y-9967720D01*
X9546703Y-9967720D02*
X9539560Y-9960577D01*
X9539560Y-9960577D02*
X9539560Y-9974863D01*
X9475275Y-9839149D02*
X9468132Y-9832006D01*
X9468132Y-9832006D02*
X9453846Y-9824863D01*
X9453846Y-9824863D02*
X9418132Y-9824863D01*
X9418132Y-9824863D02*
X9403846Y-9832006D01*
X9403846Y-9832006D02*
X9396703Y-9839149D01*
X9396703Y-9839149D02*
X9389560Y-9853434D01*
X9389560Y-9853434D02*
X9389560Y-9867720D01*
X9389560Y-9867720D02*
X9396703Y-9889149D01*
X9396703Y-9889149D02*
X9482417Y-9974863D01*
X9482417Y-9974863D02*
X9389560Y-9974863D01*
X9260989Y-9824863D02*
X9289560Y-9824863D01*
X9289560Y-9824863D02*
X9303846Y-9832006D01*
X9303846Y-9832006D02*
X9310989Y-9839149D01*
X9310989Y-9839149D02*
X9325275Y-9860577D01*
X9325275Y-9860577D02*
X9332417Y-9889149D01*
X9332417Y-9889149D02*
X9332417Y-9946291D01*
X9332417Y-9946291D02*
X9325275Y-9960577D01*
X9325275Y-9960577D02*
X9318132Y-9967720D01*
X9318132Y-9967720D02*
X9303846Y-9974863D01*
X9303846Y-9974863D02*
X9275275Y-9974863D01*
X9275275Y-9974863D02*
X9260989Y-9967720D01*
X9260989Y-9967720D02*
X9253846Y-9960577D01*
X9253846Y-9960577D02*
X9246703Y-9946291D01*
X9246703Y-9946291D02*
X9246703Y-9910577D01*
X9246703Y-9910577D02*
X9253846Y-9896291D01*
X9253846Y-9896291D02*
X9260989Y-9889149D01*
X9260989Y-9889149D02*
X9275275Y-9882006D01*
X9275275Y-9882006D02*
X9303846Y-9882006D01*
X9303846Y-9882006D02*
X9318132Y-9889149D01*
X9318132Y-9889149D02*
X9325275Y-9896291D01*
X9325275Y-9896291D02*
X9332417Y-9910577D01*
X9590762Y-8177828D02*
X9590762Y-8229637D01*
X9590762Y-8229637D02*
X9587714Y-8235732D01*
X9587714Y-8235732D02*
X9584667Y-8238780D01*
X9584667Y-8238780D02*
X9578571Y-8241828D01*
X9578571Y-8241828D02*
X9566381Y-8241828D01*
X9566381Y-8241828D02*
X9560286Y-8238780D01*
X9560286Y-8238780D02*
X9557238Y-8235732D01*
X9557238Y-8235732D02*
X9554190Y-8229637D01*
X9554190Y-8229637D02*
X9554190Y-8177828D01*
X9529810Y-8177828D02*
X9490190Y-8177828D01*
X9490190Y-8177828D02*
X9511524Y-8202208D01*
X9511524Y-8202208D02*
X9502381Y-8202208D01*
X9502381Y-8202208D02*
X9496286Y-8205256D01*
X9496286Y-8205256D02*
X9493238Y-8208304D01*
X9493238Y-8208304D02*
X9490190Y-8214399D01*
X9490190Y-8214399D02*
X9490190Y-8229637D01*
X9490190Y-8229637D02*
X9493238Y-8235732D01*
X9493238Y-8235732D02*
X9496286Y-8238780D01*
X9496286Y-8238780D02*
X9502381Y-8241828D01*
X9502381Y-8241828D02*
X9520667Y-8241828D01*
X9520667Y-8241828D02*
X9526762Y-8238780D01*
X9526762Y-8238780D02*
X9529810Y-8235732D01*
X9287482Y-8386714D02*
X9239863Y-8353381D01*
X9287482Y-8329571D02*
X9187482Y-8329571D01*
X9187482Y-8329571D02*
X9187482Y-8367667D01*
X9187482Y-8367667D02*
X9192244Y-8377190D01*
X9192244Y-8377190D02*
X9197006Y-8381952D01*
X9197006Y-8381952D02*
X9206530Y-8386714D01*
X9206530Y-8386714D02*
X9220815Y-8386714D01*
X9220815Y-8386714D02*
X9230339Y-8381952D01*
X9230339Y-8381952D02*
X9235101Y-8377190D01*
X9235101Y-8377190D02*
X9239863Y-8367667D01*
X9239863Y-8367667D02*
X9239863Y-8329571D01*
X9287482Y-8481952D02*
X9287482Y-8424810D01*
X9287482Y-8453381D02*
X9187482Y-8453381D01*
X9187482Y-8453381D02*
X9201768Y-8443857D01*
X9201768Y-8443857D02*
X9211291Y-8434333D01*
X9211291Y-8434333D02*
X9216053Y-8424810D01*
X9220815Y-8567667D02*
X9287482Y-8567667D01*
X9182720Y-8543857D02*
X9254149Y-8520048D01*
X9254149Y-8520048D02*
X9254149Y-8581952D01*
X10005136Y-8163482D02*
X10038469Y-8115863D01*
X10062279Y-8163482D02*
X10062279Y-8063482D01*
X10062279Y-8063482D02*
X10024183Y-8063482D01*
X10024183Y-8063482D02*
X10014660Y-8068244D01*
X10014660Y-8068244D02*
X10009898Y-8073006D01*
X10009898Y-8073006D02*
X10005136Y-8082529D01*
X10005136Y-8082529D02*
X10005136Y-8096815D01*
X10005136Y-8096815D02*
X10009898Y-8106339D01*
X10009898Y-8106339D02*
X10014660Y-8111101D01*
X10014660Y-8111101D02*
X10024183Y-8115863D01*
X10024183Y-8115863D02*
X10062279Y-8115863D01*
X9909898Y-8163482D02*
X9967040Y-8163482D01*
X9938469Y-8163482D02*
X9938469Y-8063482D01*
X9938469Y-8063482D02*
X9947993Y-8077768D01*
X9947993Y-8077768D02*
X9957517Y-8087291D01*
X9957517Y-8087291D02*
X9967040Y-8092053D01*
X9824183Y-8063482D02*
X9843231Y-8063482D01*
X9843231Y-8063482D02*
X9852755Y-8068244D01*
X9852755Y-8068244D02*
X9857517Y-8073006D01*
X9857517Y-8073006D02*
X9867040Y-8087291D01*
X9867040Y-8087291D02*
X9871802Y-8106339D01*
X9871802Y-8106339D02*
X9871802Y-8144434D01*
X9871802Y-8144434D02*
X9867040Y-8153958D01*
X9867040Y-8153958D02*
X9862279Y-8158720D01*
X9862279Y-8158720D02*
X9852755Y-8163482D01*
X9852755Y-8163482D02*
X9833707Y-8163482D01*
X9833707Y-8163482D02*
X9824183Y-8158720D01*
X9824183Y-8158720D02*
X9819421Y-8153958D01*
X9819421Y-8153958D02*
X9814660Y-8144434D01*
X9814660Y-8144434D02*
X9814660Y-8120625D01*
X9814660Y-8120625D02*
X9819421Y-8111101D01*
X9819421Y-8111101D02*
X9824183Y-8106339D01*
X9824183Y-8106339D02*
X9833707Y-8101577D01*
X9833707Y-8101577D02*
X9852755Y-8101577D01*
X9852755Y-8101577D02*
X9862279Y-8106339D01*
X9862279Y-8106339D02*
X9867040Y-8111101D01*
X9867040Y-8111101D02*
X9871802Y-8120625D01*
X10213524Y-8257006D02*
X10223048Y-8252244D01*
X10223048Y-8252244D02*
X10232571Y-8242720D01*
X10232571Y-8242720D02*
X10246857Y-8228434D01*
X10246857Y-8228434D02*
X10256381Y-8223672D01*
X10256381Y-8223672D02*
X10265905Y-8223672D01*
X10261143Y-8247482D02*
X10270667Y-8242720D01*
X10270667Y-8242720D02*
X10280190Y-8233196D01*
X10280190Y-8233196D02*
X10284952Y-8214148D01*
X10284952Y-8214148D02*
X10284952Y-8180815D01*
X10284952Y-8180815D02*
X10280190Y-8161768D01*
X10280190Y-8161768D02*
X10270667Y-8152244D01*
X10270667Y-8152244D02*
X10261143Y-8147482D01*
X10261143Y-8147482D02*
X10242095Y-8147482D01*
X10242095Y-8147482D02*
X10232571Y-8152244D01*
X10232571Y-8152244D02*
X10223048Y-8161768D01*
X10223048Y-8161768D02*
X10218286Y-8180815D01*
X10218286Y-8180815D02*
X10218286Y-8214148D01*
X10218286Y-8214148D02*
X10223048Y-8233196D01*
X10223048Y-8233196D02*
X10232571Y-8242720D01*
X10232571Y-8242720D02*
X10242095Y-8247482D01*
X10242095Y-8247482D02*
X10261143Y-8247482D01*
X10123048Y-8247482D02*
X10180190Y-8247482D01*
X10151619Y-8247482D02*
X10151619Y-8147482D01*
X10151619Y-8147482D02*
X10161143Y-8161768D01*
X10161143Y-8161768D02*
X10170667Y-8171291D01*
X10170667Y-8171291D02*
X10180190Y-8176053D01*
X7558286Y-8573482D02*
X7591619Y-8525863D01*
X7615428Y-8573482D02*
X7615428Y-8473482D01*
X7615428Y-8473482D02*
X7577333Y-8473482D01*
X7577333Y-8473482D02*
X7567809Y-8478244D01*
X7567809Y-8478244D02*
X7563048Y-8483006D01*
X7563048Y-8483006D02*
X7558286Y-8492530D01*
X7558286Y-8492530D02*
X7558286Y-8506815D01*
X7558286Y-8506815D02*
X7563048Y-8516339D01*
X7563048Y-8516339D02*
X7567809Y-8521101D01*
X7567809Y-8521101D02*
X7577333Y-8525863D01*
X7577333Y-8525863D02*
X7615428Y-8525863D01*
X7463048Y-8573482D02*
X7520190Y-8573482D01*
X7491619Y-8573482D02*
X7491619Y-8473482D01*
X7491619Y-8473482D02*
X7501143Y-8487768D01*
X7501143Y-8487768D02*
X7510667Y-8497291D01*
X7510667Y-8497291D02*
X7520190Y-8502053D01*
X7367809Y-8573482D02*
X7424952Y-8573482D01*
X7396381Y-8573482D02*
X7396381Y-8473482D01*
X7396381Y-8473482D02*
X7405905Y-8487768D01*
X7405905Y-8487768D02*
X7415428Y-8497291D01*
X7415428Y-8497291D02*
X7424952Y-8502053D01*
X7463047Y-9049482D02*
X7496381Y-9001863D01*
X7520190Y-9049482D02*
X7520190Y-8949482D01*
X7520190Y-8949482D02*
X7482095Y-8949482D01*
X7482095Y-8949482D02*
X7472571Y-8954244D01*
X7472571Y-8954244D02*
X7467809Y-8959006D01*
X7467809Y-8959006D02*
X7463047Y-8968530D01*
X7463047Y-8968530D02*
X7463047Y-8982815D01*
X7463047Y-8982815D02*
X7467809Y-8992339D01*
X7467809Y-8992339D02*
X7472571Y-8997101D01*
X7472571Y-8997101D02*
X7482095Y-9001863D01*
X7482095Y-9001863D02*
X7520190Y-9001863D01*
X7424952Y-8959006D02*
X7420190Y-8954244D01*
X7420190Y-8954244D02*
X7410666Y-8949482D01*
X7410666Y-8949482D02*
X7386857Y-8949482D01*
X7386857Y-8949482D02*
X7377333Y-8954244D01*
X7377333Y-8954244D02*
X7372571Y-8959006D01*
X7372571Y-8959006D02*
X7367809Y-8968530D01*
X7367809Y-8968530D02*
X7367809Y-8978053D01*
X7367809Y-8978053D02*
X7372571Y-8992339D01*
X7372571Y-8992339D02*
X7429714Y-9049482D01*
X7429714Y-9049482D02*
X7367809Y-9049482D01*
X7463047Y-8321482D02*
X7496381Y-8273863D01*
X7520190Y-8321482D02*
X7520190Y-8221482D01*
X7520190Y-8221482D02*
X7482095Y-8221482D01*
X7482095Y-8221482D02*
X7472571Y-8226244D01*
X7472571Y-8226244D02*
X7467809Y-8231006D01*
X7467809Y-8231006D02*
X7463047Y-8240529D01*
X7463047Y-8240529D02*
X7463047Y-8254815D01*
X7463047Y-8254815D02*
X7467809Y-8264339D01*
X7467809Y-8264339D02*
X7472571Y-8269101D01*
X7472571Y-8269101D02*
X7482095Y-8273863D01*
X7482095Y-8273863D02*
X7520190Y-8273863D01*
X7405905Y-8264339D02*
X7415428Y-8259577D01*
X7415428Y-8259577D02*
X7420190Y-8254815D01*
X7420190Y-8254815D02*
X7424952Y-8245291D01*
X7424952Y-8245291D02*
X7424952Y-8240529D01*
X7424952Y-8240529D02*
X7420190Y-8231006D01*
X7420190Y-8231006D02*
X7415428Y-8226244D01*
X7415428Y-8226244D02*
X7405905Y-8221482D01*
X7405905Y-8221482D02*
X7386857Y-8221482D01*
X7386857Y-8221482D02*
X7377333Y-8226244D01*
X7377333Y-8226244D02*
X7372571Y-8231006D01*
X7372571Y-8231006D02*
X7367809Y-8240529D01*
X7367809Y-8240529D02*
X7367809Y-8245291D01*
X7367809Y-8245291D02*
X7372571Y-8254815D01*
X7372571Y-8254815D02*
X7377333Y-8259577D01*
X7377333Y-8259577D02*
X7386857Y-8264339D01*
X7386857Y-8264339D02*
X7405905Y-8264339D01*
X7405905Y-8264339D02*
X7415428Y-8269101D01*
X7415428Y-8269101D02*
X7420190Y-8273863D01*
X7420190Y-8273863D02*
X7424952Y-8283387D01*
X7424952Y-8283387D02*
X7424952Y-8302434D01*
X7424952Y-8302434D02*
X7420190Y-8311958D01*
X7420190Y-8311958D02*
X7415428Y-8316720D01*
X7415428Y-8316720D02*
X7405905Y-8321482D01*
X7405905Y-8321482D02*
X7386857Y-8321482D01*
X7386857Y-8321482D02*
X7377333Y-8316720D01*
X7377333Y-8316720D02*
X7372571Y-8311958D01*
X7372571Y-8311958D02*
X7367809Y-8302434D01*
X7367809Y-8302434D02*
X7367809Y-8283387D01*
X7367809Y-8283387D02*
X7372571Y-8273863D01*
X7372571Y-8273863D02*
X7377333Y-8269101D01*
X7377333Y-8269101D02*
X7386857Y-8264339D01*
X7232667Y-9328958D02*
X7237428Y-9333720D01*
X7237428Y-9333720D02*
X7251714Y-9338482D01*
X7251714Y-9338482D02*
X7261238Y-9338482D01*
X7261238Y-9338482D02*
X7275524Y-9333720D01*
X7275524Y-9333720D02*
X7285047Y-9324196D01*
X7285047Y-9324196D02*
X7289809Y-9314672D01*
X7289809Y-9314672D02*
X7294571Y-9295625D01*
X7294571Y-9295625D02*
X7294571Y-9281339D01*
X7294571Y-9281339D02*
X7289809Y-9262291D01*
X7289809Y-9262291D02*
X7285047Y-9252768D01*
X7285047Y-9252768D02*
X7275524Y-9243244D01*
X7275524Y-9243244D02*
X7261238Y-9238482D01*
X7261238Y-9238482D02*
X7251714Y-9238482D01*
X7251714Y-9238482D02*
X7237428Y-9243244D01*
X7237428Y-9243244D02*
X7232667Y-9248006D01*
X7175524Y-9281339D02*
X7185047Y-9276577D01*
X7185047Y-9276577D02*
X7189809Y-9271815D01*
X7189809Y-9271815D02*
X7194571Y-9262291D01*
X7194571Y-9262291D02*
X7194571Y-9257530D01*
X7194571Y-9257530D02*
X7189809Y-9248006D01*
X7189809Y-9248006D02*
X7185047Y-9243244D01*
X7185047Y-9243244D02*
X7175524Y-9238482D01*
X7175524Y-9238482D02*
X7156476Y-9238482D01*
X7156476Y-9238482D02*
X7146952Y-9243244D01*
X7146952Y-9243244D02*
X7142190Y-9248006D01*
X7142190Y-9248006D02*
X7137428Y-9257530D01*
X7137428Y-9257530D02*
X7137428Y-9262291D01*
X7137428Y-9262291D02*
X7142190Y-9271815D01*
X7142190Y-9271815D02*
X7146952Y-9276577D01*
X7146952Y-9276577D02*
X7156476Y-9281339D01*
X7156476Y-9281339D02*
X7175524Y-9281339D01*
X7175524Y-9281339D02*
X7185047Y-9286101D01*
X7185047Y-9286101D02*
X7189809Y-9290863D01*
X7189809Y-9290863D02*
X7194571Y-9300387D01*
X7194571Y-9300387D02*
X7194571Y-9319434D01*
X7194571Y-9319434D02*
X7189809Y-9328958D01*
X7189809Y-9328958D02*
X7185047Y-9333720D01*
X7185047Y-9333720D02*
X7175524Y-9338482D01*
X7175524Y-9338482D02*
X7156476Y-9338482D01*
X7156476Y-9338482D02*
X7146952Y-9333720D01*
X7146952Y-9333720D02*
X7142190Y-9328958D01*
X7142190Y-9328958D02*
X7137428Y-9319434D01*
X7137428Y-9319434D02*
X7137428Y-9300387D01*
X7137428Y-9300387D02*
X7142190Y-9290863D01*
X7142190Y-9290863D02*
X7146952Y-9286101D01*
X7146952Y-9286101D02*
X7156476Y-9281339D01*
X9998286Y-8866482D02*
X10031619Y-8818863D01*
X10055429Y-8866482D02*
X10055429Y-8766482D01*
X10055429Y-8766482D02*
X10017333Y-8766482D01*
X10017333Y-8766482D02*
X10007810Y-8771244D01*
X10007810Y-8771244D02*
X10003048Y-8776006D01*
X10003048Y-8776006D02*
X9998286Y-8785530D01*
X9998286Y-8785530D02*
X9998286Y-8799815D01*
X9998286Y-8799815D02*
X10003048Y-8809339D01*
X10003048Y-8809339D02*
X10007810Y-8814101D01*
X10007810Y-8814101D02*
X10017333Y-8818863D01*
X10017333Y-8818863D02*
X10055429Y-8818863D01*
X9903048Y-8866482D02*
X9960190Y-8866482D01*
X9931619Y-8866482D02*
X9931619Y-8766482D01*
X9931619Y-8766482D02*
X9941143Y-8780768D01*
X9941143Y-8780768D02*
X9950667Y-8790291D01*
X9950667Y-8790291D02*
X9960190Y-8795053D01*
X9869714Y-8766482D02*
X9803048Y-8766482D01*
X9803048Y-8766482D02*
X9845905Y-8866482D01*
X7232667Y-9638958D02*
X7237428Y-9643720D01*
X7237428Y-9643720D02*
X7251714Y-9648482D01*
X7251714Y-9648482D02*
X7261238Y-9648482D01*
X7261238Y-9648482D02*
X7275524Y-9643720D01*
X7275524Y-9643720D02*
X7285047Y-9634196D01*
X7285047Y-9634196D02*
X7289809Y-9624672D01*
X7289809Y-9624672D02*
X7294571Y-9605625D01*
X7294571Y-9605625D02*
X7294571Y-9591339D01*
X7294571Y-9591339D02*
X7289809Y-9572291D01*
X7289809Y-9572291D02*
X7285047Y-9562768D01*
X7285047Y-9562768D02*
X7275524Y-9553244D01*
X7275524Y-9553244D02*
X7261238Y-9548482D01*
X7261238Y-9548482D02*
X7251714Y-9548482D01*
X7251714Y-9548482D02*
X7237428Y-9553244D01*
X7237428Y-9553244D02*
X7232667Y-9558006D01*
X7199333Y-9548482D02*
X7132667Y-9548482D01*
X7132667Y-9548482D02*
X7175524Y-9648482D01*
X7558286Y-8445482D02*
X7591619Y-8397863D01*
X7615428Y-8445482D02*
X7615428Y-8345482D01*
X7615428Y-8345482D02*
X7577333Y-8345482D01*
X7577333Y-8345482D02*
X7567809Y-8350244D01*
X7567809Y-8350244D02*
X7563048Y-8355006D01*
X7563048Y-8355006D02*
X7558286Y-8364529D01*
X7558286Y-8364529D02*
X7558286Y-8378815D01*
X7558286Y-8378815D02*
X7563048Y-8388339D01*
X7563048Y-8388339D02*
X7567809Y-8393101D01*
X7567809Y-8393101D02*
X7577333Y-8397863D01*
X7577333Y-8397863D02*
X7615428Y-8397863D01*
X7463048Y-8445482D02*
X7520190Y-8445482D01*
X7491619Y-8445482D02*
X7491619Y-8345482D01*
X7491619Y-8345482D02*
X7501143Y-8359768D01*
X7501143Y-8359768D02*
X7510667Y-8369291D01*
X7510667Y-8369291D02*
X7520190Y-8374053D01*
X7401143Y-8345482D02*
X7391619Y-8345482D01*
X7391619Y-8345482D02*
X7382095Y-8350244D01*
X7382095Y-8350244D02*
X7377333Y-8355006D01*
X7377333Y-8355006D02*
X7372571Y-8364529D01*
X7372571Y-8364529D02*
X7367809Y-8383577D01*
X7367809Y-8383577D02*
X7367809Y-8407387D01*
X7367809Y-8407387D02*
X7372571Y-8426434D01*
X7372571Y-8426434D02*
X7377333Y-8435958D01*
X7377333Y-8435958D02*
X7382095Y-8440720D01*
X7382095Y-8440720D02*
X7391619Y-8445482D01*
X7391619Y-8445482D02*
X7401143Y-8445482D01*
X7401143Y-8445482D02*
X7410667Y-8440720D01*
X7410667Y-8440720D02*
X7415428Y-8435958D01*
X7415428Y-8435958D02*
X7420190Y-8426434D01*
X7420190Y-8426434D02*
X7424952Y-8407387D01*
X7424952Y-8407387D02*
X7424952Y-8383577D01*
X7424952Y-8383577D02*
X7420190Y-8364529D01*
X7420190Y-8364529D02*
X7415428Y-8355006D01*
X7415428Y-8355006D02*
X7410667Y-8350244D01*
X7410667Y-8350244D02*
X7401143Y-8345482D01*
X6806333Y-8247482D02*
X6806333Y-8318910D01*
X6806333Y-8318910D02*
X6811095Y-8333196D01*
X6811095Y-8333196D02*
X6820619Y-8342720D01*
X6820619Y-8342720D02*
X6834905Y-8347482D01*
X6834905Y-8347482D02*
X6844428Y-8347482D01*
X6763476Y-8257006D02*
X6758714Y-8252244D01*
X6758714Y-8252244D02*
X6749190Y-8247482D01*
X6749190Y-8247482D02*
X6725381Y-8247482D01*
X6725381Y-8247482D02*
X6715857Y-8252244D01*
X6715857Y-8252244D02*
X6711095Y-8257006D01*
X6711095Y-8257006D02*
X6706333Y-8266529D01*
X6706333Y-8266529D02*
X6706333Y-8276053D01*
X6706333Y-8276053D02*
X6711095Y-8290339D01*
X6711095Y-8290339D02*
X6768238Y-8347482D01*
X6768238Y-8347482D02*
X6706333Y-8347482D01*
X7463047Y-8185482D02*
X7496381Y-8137863D01*
X7520190Y-8185482D02*
X7520190Y-8085482D01*
X7520190Y-8085482D02*
X7482095Y-8085482D01*
X7482095Y-8085482D02*
X7472571Y-8090244D01*
X7472571Y-8090244D02*
X7467809Y-8095006D01*
X7467809Y-8095006D02*
X7463047Y-8104529D01*
X7463047Y-8104529D02*
X7463047Y-8118815D01*
X7463047Y-8118815D02*
X7467809Y-8128339D01*
X7467809Y-8128339D02*
X7472571Y-8133101D01*
X7472571Y-8133101D02*
X7482095Y-8137863D01*
X7482095Y-8137863D02*
X7520190Y-8137863D01*
X7415428Y-8185482D02*
X7396381Y-8185482D01*
X7396381Y-8185482D02*
X7386857Y-8180720D01*
X7386857Y-8180720D02*
X7382095Y-8175958D01*
X7382095Y-8175958D02*
X7372571Y-8161672D01*
X7372571Y-8161672D02*
X7367809Y-8142625D01*
X7367809Y-8142625D02*
X7367809Y-8104529D01*
X7367809Y-8104529D02*
X7372571Y-8095006D01*
X7372571Y-8095006D02*
X7377333Y-8090244D01*
X7377333Y-8090244D02*
X7386857Y-8085482D01*
X7386857Y-8085482D02*
X7405905Y-8085482D01*
X7405905Y-8085482D02*
X7415428Y-8090244D01*
X7415428Y-8090244D02*
X7420190Y-8095006D01*
X7420190Y-8095006D02*
X7424952Y-8104529D01*
X7424952Y-8104529D02*
X7424952Y-8128339D01*
X7424952Y-8128339D02*
X7420190Y-8137863D01*
X7420190Y-8137863D02*
X7415428Y-8142625D01*
X7415428Y-8142625D02*
X7405905Y-8147387D01*
X7405905Y-8147387D02*
X7386857Y-8147387D01*
X7386857Y-8147387D02*
X7377333Y-8142625D01*
X7377333Y-8142625D02*
X7372571Y-8137863D01*
X7372571Y-8137863D02*
X7367809Y-8128339D01*
X9206286Y-8710482D02*
X9239619Y-8662863D01*
X9263429Y-8710482D02*
X9263429Y-8610482D01*
X9263429Y-8610482D02*
X9225333Y-8610482D01*
X9225333Y-8610482D02*
X9215810Y-8615244D01*
X9215810Y-8615244D02*
X9211048Y-8620006D01*
X9211048Y-8620006D02*
X9206286Y-8629530D01*
X9206286Y-8629530D02*
X9206286Y-8643815D01*
X9206286Y-8643815D02*
X9211048Y-8653339D01*
X9211048Y-8653339D02*
X9215810Y-8658101D01*
X9215810Y-8658101D02*
X9225333Y-8662863D01*
X9225333Y-8662863D02*
X9263429Y-8662863D01*
X9111048Y-8710482D02*
X9168190Y-8710482D01*
X9139619Y-8710482D02*
X9139619Y-8610482D01*
X9139619Y-8610482D02*
X9149143Y-8624768D01*
X9149143Y-8624768D02*
X9158667Y-8634291D01*
X9158667Y-8634291D02*
X9168190Y-8639053D01*
X9063429Y-8710482D02*
X9044381Y-8710482D01*
X9044381Y-8710482D02*
X9034857Y-8705720D01*
X9034857Y-8705720D02*
X9030095Y-8700958D01*
X9030095Y-8700958D02*
X9020571Y-8686672D01*
X9020571Y-8686672D02*
X9015810Y-8667625D01*
X9015810Y-8667625D02*
X9015810Y-8629530D01*
X9015810Y-8629530D02*
X9020571Y-8620006D01*
X9020571Y-8620006D02*
X9025333Y-8615244D01*
X9025333Y-8615244D02*
X9034857Y-8610482D01*
X9034857Y-8610482D02*
X9053905Y-8610482D01*
X9053905Y-8610482D02*
X9063429Y-8615244D01*
X9063429Y-8615244D02*
X9068190Y-8620006D01*
X9068190Y-8620006D02*
X9072952Y-8629530D01*
X9072952Y-8629530D02*
X9072952Y-8653339D01*
X9072952Y-8653339D02*
X9068190Y-8662863D01*
X9068190Y-8662863D02*
X9063429Y-8667625D01*
X9063429Y-8667625D02*
X9053905Y-8672387D01*
X9053905Y-8672387D02*
X9034857Y-8672387D01*
X9034857Y-8672387D02*
X9025333Y-8667625D01*
X9025333Y-8667625D02*
X9020571Y-8662863D01*
X9020571Y-8662863D02*
X9015810Y-8653339D01*
X9542667Y-8981958D02*
X9547429Y-8986720D01*
X9547429Y-8986720D02*
X9561714Y-8991482D01*
X9561714Y-8991482D02*
X9571238Y-8991482D01*
X9571238Y-8991482D02*
X9585524Y-8986720D01*
X9585524Y-8986720D02*
X9595048Y-8977196D01*
X9595048Y-8977196D02*
X9599809Y-8967672D01*
X9599809Y-8967672D02*
X9604571Y-8948625D01*
X9604571Y-8948625D02*
X9604571Y-8934339D01*
X9604571Y-8934339D02*
X9599809Y-8915291D01*
X9599809Y-8915291D02*
X9595048Y-8905768D01*
X9595048Y-8905768D02*
X9585524Y-8896244D01*
X9585524Y-8896244D02*
X9571238Y-8891482D01*
X9571238Y-8891482D02*
X9561714Y-8891482D01*
X9561714Y-8891482D02*
X9547429Y-8896244D01*
X9547429Y-8896244D02*
X9542667Y-8901006D01*
X9509333Y-8891482D02*
X9447429Y-8891482D01*
X9447429Y-8891482D02*
X9480762Y-8929577D01*
X9480762Y-8929577D02*
X9466476Y-8929577D01*
X9466476Y-8929577D02*
X9456952Y-8934339D01*
X9456952Y-8934339D02*
X9452190Y-8939101D01*
X9452190Y-8939101D02*
X9447429Y-8948625D01*
X9447429Y-8948625D02*
X9447429Y-8972434D01*
X9447429Y-8972434D02*
X9452190Y-8981958D01*
X9452190Y-8981958D02*
X9456952Y-8986720D01*
X9456952Y-8986720D02*
X9466476Y-8991482D01*
X9466476Y-8991482D02*
X9495048Y-8991482D01*
X9495048Y-8991482D02*
X9504571Y-8986720D01*
X9504571Y-8986720D02*
X9509333Y-8981958D01*
%TO.C,U3*%
D11*
X9450350Y-8390000D02*
X9450350Y-8540000D01*
X9641350Y-8390000D02*
X9641350Y-8540000D01*
D12*
X9505850Y-8287500D02*
G75*
G02*
X9485850Y-8287500I-10000J0D01*
G01*
X9485850Y-8287500D02*
G75*
G02*
X9505850Y-8287500I10000J0D01*
G01*
%TO.C,R14*%
D13*
X9332850Y-8495364D02*
X9332850Y-8464636D01*
X9408850Y-8495364D02*
X9408850Y-8464636D01*
%TO.C,R16*%
X9956214Y-8197000D02*
X9925486Y-8197000D01*
X9956214Y-8273000D02*
X9925486Y-8273000D01*
%TO.C,Q1*%
D11*
X9845500Y-8295000D02*
X10005500Y-8295000D01*
X9845500Y-8615000D02*
X10005500Y-8615000D01*
D12*
X9692700Y-8549500D02*
G75*
G02*
X9672700Y-8549500I-10000J0D01*
G01*
X9672700Y-8549500D02*
G75*
G02*
X9692700Y-8549500I10000J0D01*
G01*
%TO.C,R11*%
D13*
X7229364Y-8503667D02*
X7198636Y-8503667D01*
X7229364Y-8579667D02*
X7198636Y-8579667D01*
%TO.C,R2*%
X7198636Y-8967000D02*
X7229364Y-8967000D01*
X7198636Y-9043000D02*
X7229364Y-9043000D01*
%TO.C,R8*%
X7229364Y-8237000D02*
X7198636Y-8237000D01*
X7229364Y-8313000D02*
X7198636Y-8313000D01*
%TO.C,C8*%
X7201942Y-9099000D02*
X7230058Y-9099000D01*
X7201942Y-9201000D02*
X7230058Y-9201000D01*
%TO.C,R17*%
X9946214Y-8637000D02*
X9915486Y-8637000D01*
X9946214Y-8713000D02*
X9915486Y-8713000D01*
%TO.C,QR\u002A\u002A\u002A\u002A\u002A*%
G36*
X7719000Y-8108000D02*
G01*
X7759000Y-8108000D01*
X7759000Y-8148000D01*
X7719000Y-8148000D01*
X7719000Y-8108000D01*
G37*
G36*
X7719000Y-8148000D02*
G01*
X7759000Y-8148000D01*
X7759000Y-8188000D01*
X7719000Y-8188000D01*
X7719000Y-8148000D01*
G37*
G36*
X7719000Y-8188000D02*
G01*
X7759000Y-8188000D01*
X7759000Y-8228000D01*
X7719000Y-8228000D01*
X7719000Y-8188000D01*
G37*
G36*
X7719000Y-8228000D02*
G01*
X7759000Y-8228000D01*
X7759000Y-8268000D01*
X7719000Y-8268000D01*
X7719000Y-8228000D01*
G37*
G36*
X7719000Y-8268000D02*
G01*
X7759000Y-8268000D01*
X7759000Y-8308000D01*
X7719000Y-8308000D01*
X7719000Y-8268000D01*
G37*
G36*
X7719000Y-8308000D02*
G01*
X7759000Y-8308000D01*
X7759000Y-8348000D01*
X7719000Y-8348000D01*
X7719000Y-8308000D01*
G37*
G36*
X7719000Y-8348000D02*
G01*
X7759000Y-8348000D01*
X7759000Y-8388000D01*
X7719000Y-8388000D01*
X7719000Y-8348000D01*
G37*
G36*
X7719000Y-8588000D02*
G01*
X7759000Y-8588000D01*
X7759000Y-8628000D01*
X7719000Y-8628000D01*
X7719000Y-8588000D01*
G37*
G36*
X7719000Y-8628000D02*
G01*
X7759000Y-8628000D01*
X7759000Y-8668000D01*
X7719000Y-8668000D01*
X7719000Y-8628000D01*
G37*
G36*
X7719000Y-8708000D02*
G01*
X7759000Y-8708000D01*
X7759000Y-8748000D01*
X7719000Y-8748000D01*
X7719000Y-8708000D01*
G37*
G36*
X7719000Y-8788000D02*
G01*
X7759000Y-8788000D01*
X7759000Y-8828000D01*
X7719000Y-8828000D01*
X7719000Y-8788000D01*
G37*
G36*
X7719000Y-8828000D02*
G01*
X7759000Y-8828000D01*
X7759000Y-8868000D01*
X7719000Y-8868000D01*
X7719000Y-8828000D01*
G37*
G36*
X7719000Y-8908000D02*
G01*
X7759000Y-8908000D01*
X7759000Y-8948000D01*
X7719000Y-8948000D01*
X7719000Y-8908000D01*
G37*
G36*
X7719000Y-9108000D02*
G01*
X7759000Y-9108000D01*
X7759000Y-9148000D01*
X7719000Y-9148000D01*
X7719000Y-9108000D01*
G37*
G36*
X7719000Y-9188000D02*
G01*
X7759000Y-9188000D01*
X7759000Y-9228000D01*
X7719000Y-9228000D01*
X7719000Y-9188000D01*
G37*
G36*
X7759000Y-8108000D02*
G01*
X7799000Y-8108000D01*
X7799000Y-8148000D01*
X7759000Y-8148000D01*
X7759000Y-8108000D01*
G37*
G36*
X7759000Y-8348000D02*
G01*
X7799000Y-8348000D01*
X7799000Y-8388000D01*
X7759000Y-8388000D01*
X7759000Y-8348000D01*
G37*
G36*
X7759000Y-8428000D02*
G01*
X7799000Y-8428000D01*
X7799000Y-8468000D01*
X7759000Y-8468000D01*
X7759000Y-8428000D01*
G37*
G36*
X7759000Y-8468000D02*
G01*
X7799000Y-8468000D01*
X7799000Y-8508000D01*
X7759000Y-8508000D01*
X7759000Y-8468000D01*
G37*
G36*
X7759000Y-8628000D02*
G01*
X7799000Y-8628000D01*
X7799000Y-8668000D01*
X7759000Y-8668000D01*
X7759000Y-8628000D01*
G37*
G36*
X7759000Y-8788000D02*
G01*
X7799000Y-8788000D01*
X7799000Y-8828000D01*
X7759000Y-8828000D01*
X7759000Y-8788000D01*
G37*
G36*
X7759000Y-8908000D02*
G01*
X7799000Y-8908000D01*
X7799000Y-8948000D01*
X7759000Y-8948000D01*
X7759000Y-8908000D01*
G37*
G36*
X7759000Y-9068000D02*
G01*
X7799000Y-9068000D01*
X7799000Y-9108000D01*
X7759000Y-9108000D01*
X7759000Y-9068000D01*
G37*
G36*
X7759000Y-9148000D02*
G01*
X7799000Y-9148000D01*
X7799000Y-9188000D01*
X7759000Y-9188000D01*
X7759000Y-9148000D01*
G37*
G36*
X7799000Y-8108000D02*
G01*
X7839000Y-8108000D01*
X7839000Y-8148000D01*
X7799000Y-8148000D01*
X7799000Y-8108000D01*
G37*
G36*
X7799000Y-8188000D02*
G01*
X7839000Y-8188000D01*
X7839000Y-8228000D01*
X7799000Y-8228000D01*
X7799000Y-8188000D01*
G37*
G36*
X7799000Y-8228000D02*
G01*
X7839000Y-8228000D01*
X7839000Y-8268000D01*
X7799000Y-8268000D01*
X7799000Y-8228000D01*
G37*
G36*
X7799000Y-8268000D02*
G01*
X7839000Y-8268000D01*
X7839000Y-8308000D01*
X7799000Y-8308000D01*
X7799000Y-8268000D01*
G37*
G36*
X7799000Y-8348000D02*
G01*
X7839000Y-8348000D01*
X7839000Y-8388000D01*
X7799000Y-8388000D01*
X7799000Y-8348000D01*
G37*
G36*
X7799000Y-8428000D02*
G01*
X7839000Y-8428000D01*
X7839000Y-8468000D01*
X7799000Y-8468000D01*
X7799000Y-8428000D01*
G37*
G36*
X7799000Y-8468000D02*
G01*
X7839000Y-8468000D01*
X7839000Y-8508000D01*
X7799000Y-8508000D01*
X7799000Y-8468000D01*
G37*
G36*
X7799000Y-8668000D02*
G01*
X7839000Y-8668000D01*
X7839000Y-8708000D01*
X7799000Y-8708000D01*
X7799000Y-8668000D01*
G37*
G36*
X7799000Y-8708000D02*
G01*
X7839000Y-8708000D01*
X7839000Y-8748000D01*
X7799000Y-8748000D01*
X7799000Y-8708000D01*
G37*
G36*
X7799000Y-8748000D02*
G01*
X7839000Y-8748000D01*
X7839000Y-8788000D01*
X7799000Y-8788000D01*
X7799000Y-8748000D01*
G37*
G36*
X7799000Y-8788000D02*
G01*
X7839000Y-8788000D01*
X7839000Y-8828000D01*
X7799000Y-8828000D01*
X7799000Y-8788000D01*
G37*
G36*
X7799000Y-8908000D02*
G01*
X7839000Y-8908000D01*
X7839000Y-8948000D01*
X7799000Y-8948000D01*
X7799000Y-8908000D01*
G37*
G36*
X7799000Y-8988000D02*
G01*
X7839000Y-8988000D01*
X7839000Y-9028000D01*
X7799000Y-9028000D01*
X7799000Y-8988000D01*
G37*
G36*
X7799000Y-9108000D02*
G01*
X7839000Y-9108000D01*
X7839000Y-9148000D01*
X7799000Y-9148000D01*
X7799000Y-9108000D01*
G37*
G36*
X7799000Y-9148000D02*
G01*
X7839000Y-9148000D01*
X7839000Y-9188000D01*
X7799000Y-9188000D01*
X7799000Y-9148000D01*
G37*
G36*
X7799000Y-9188000D02*
G01*
X7839000Y-9188000D01*
X7839000Y-9228000D01*
X7799000Y-9228000D01*
X7799000Y-9188000D01*
G37*
G36*
X7799000Y-9228000D02*
G01*
X7839000Y-9228000D01*
X7839000Y-9268000D01*
X7799000Y-9268000D01*
X7799000Y-9228000D01*
G37*
G36*
X7839000Y-8108000D02*
G01*
X7879000Y-8108000D01*
X7879000Y-8148000D01*
X7839000Y-8148000D01*
X7839000Y-8108000D01*
G37*
G36*
X7839000Y-8188000D02*
G01*
X7879000Y-8188000D01*
X7879000Y-8228000D01*
X7839000Y-8228000D01*
X7839000Y-8188000D01*
G37*
G36*
X7839000Y-8228000D02*
G01*
X7879000Y-8228000D01*
X7879000Y-8268000D01*
X7839000Y-8268000D01*
X7839000Y-8228000D01*
G37*
G36*
X7839000Y-8268000D02*
G01*
X7879000Y-8268000D01*
X7879000Y-8308000D01*
X7839000Y-8308000D01*
X7839000Y-8268000D01*
G37*
G36*
X7839000Y-8348000D02*
G01*
X7879000Y-8348000D01*
X7879000Y-8388000D01*
X7839000Y-8388000D01*
X7839000Y-8348000D01*
G37*
G36*
X7839000Y-8428000D02*
G01*
X7879000Y-8428000D01*
X7879000Y-8468000D01*
X7839000Y-8468000D01*
X7839000Y-8428000D01*
G37*
G36*
X7839000Y-8548000D02*
G01*
X7879000Y-8548000D01*
X7879000Y-8588000D01*
X7839000Y-8588000D01*
X7839000Y-8548000D01*
G37*
G36*
X7839000Y-8668000D02*
G01*
X7879000Y-8668000D01*
X7879000Y-8708000D01*
X7839000Y-8708000D01*
X7839000Y-8668000D01*
G37*
G36*
X7839000Y-8748000D02*
G01*
X7879000Y-8748000D01*
X7879000Y-8788000D01*
X7839000Y-8788000D01*
X7839000Y-8748000D01*
G37*
G36*
X7839000Y-8828000D02*
G01*
X7879000Y-8828000D01*
X7879000Y-8868000D01*
X7839000Y-8868000D01*
X7839000Y-8828000D01*
G37*
G36*
X7839000Y-8948000D02*
G01*
X7879000Y-8948000D01*
X7879000Y-8988000D01*
X7839000Y-8988000D01*
X7839000Y-8948000D01*
G37*
G36*
X7839000Y-8988000D02*
G01*
X7879000Y-8988000D01*
X7879000Y-9028000D01*
X7839000Y-9028000D01*
X7839000Y-8988000D01*
G37*
G36*
X7839000Y-9068000D02*
G01*
X7879000Y-9068000D01*
X7879000Y-9108000D01*
X7839000Y-9108000D01*
X7839000Y-9068000D01*
G37*
G36*
X7839000Y-9108000D02*
G01*
X7879000Y-9108000D01*
X7879000Y-9148000D01*
X7839000Y-9148000D01*
X7839000Y-9108000D01*
G37*
G36*
X7839000Y-9148000D02*
G01*
X7879000Y-9148000D01*
X7879000Y-9188000D01*
X7839000Y-9188000D01*
X7839000Y-9148000D01*
G37*
G36*
X7839000Y-9188000D02*
G01*
X7879000Y-9188000D01*
X7879000Y-9228000D01*
X7839000Y-9228000D01*
X7839000Y-9188000D01*
G37*
G36*
X7879000Y-8108000D02*
G01*
X7919000Y-8108000D01*
X7919000Y-8148000D01*
X7879000Y-8148000D01*
X7879000Y-8108000D01*
G37*
G36*
X7879000Y-8188000D02*
G01*
X7919000Y-8188000D01*
X7919000Y-8228000D01*
X7879000Y-8228000D01*
X7879000Y-8188000D01*
G37*
G36*
X7879000Y-8228000D02*
G01*
X7919000Y-8228000D01*
X7919000Y-8268000D01*
X7879000Y-8268000D01*
X7879000Y-8228000D01*
G37*
G36*
X7879000Y-8268000D02*
G01*
X7919000Y-8268000D01*
X7919000Y-8308000D01*
X7879000Y-8308000D01*
X7879000Y-8268000D01*
G37*
G36*
X7879000Y-8348000D02*
G01*
X7919000Y-8348000D01*
X7919000Y-8388000D01*
X7879000Y-8388000D01*
X7879000Y-8348000D01*
G37*
G36*
X7879000Y-8468000D02*
G01*
X7919000Y-8468000D01*
X7919000Y-8508000D01*
X7879000Y-8508000D01*
X7879000Y-8468000D01*
G37*
G36*
X7879000Y-8508000D02*
G01*
X7919000Y-8508000D01*
X7919000Y-8548000D01*
X7879000Y-8548000D01*
X7879000Y-8508000D01*
G37*
G36*
X7879000Y-8628000D02*
G01*
X7919000Y-8628000D01*
X7919000Y-8668000D01*
X7879000Y-8668000D01*
X7879000Y-8628000D01*
G37*
G36*
X7879000Y-8668000D02*
G01*
X7919000Y-8668000D01*
X7919000Y-8708000D01*
X7879000Y-8708000D01*
X7879000Y-8668000D01*
G37*
G36*
X7879000Y-8708000D02*
G01*
X7919000Y-8708000D01*
X7919000Y-8748000D01*
X7879000Y-8748000D01*
X7879000Y-8708000D01*
G37*
G36*
X7879000Y-8788000D02*
G01*
X7919000Y-8788000D01*
X7919000Y-8828000D01*
X7879000Y-8828000D01*
X7879000Y-8788000D01*
G37*
G36*
X7879000Y-8828000D02*
G01*
X7919000Y-8828000D01*
X7919000Y-8868000D01*
X7879000Y-8868000D01*
X7879000Y-8828000D01*
G37*
G36*
X7879000Y-8908000D02*
G01*
X7919000Y-8908000D01*
X7919000Y-8948000D01*
X7879000Y-8948000D01*
X7879000Y-8908000D01*
G37*
G36*
X7879000Y-8948000D02*
G01*
X7919000Y-8948000D01*
X7919000Y-8988000D01*
X7879000Y-8988000D01*
X7879000Y-8948000D01*
G37*
G36*
X7879000Y-8988000D02*
G01*
X7919000Y-8988000D01*
X7919000Y-9028000D01*
X7879000Y-9028000D01*
X7879000Y-8988000D01*
G37*
G36*
X7879000Y-9028000D02*
G01*
X7919000Y-9028000D01*
X7919000Y-9068000D01*
X7879000Y-9068000D01*
X7879000Y-9028000D01*
G37*
G36*
X7879000Y-9068000D02*
G01*
X7919000Y-9068000D01*
X7919000Y-9108000D01*
X7879000Y-9108000D01*
X7879000Y-9068000D01*
G37*
G36*
X7879000Y-9148000D02*
G01*
X7919000Y-9148000D01*
X7919000Y-9188000D01*
X7879000Y-9188000D01*
X7879000Y-9148000D01*
G37*
G36*
X7879000Y-9228000D02*
G01*
X7919000Y-9228000D01*
X7919000Y-9268000D01*
X7879000Y-9268000D01*
X7879000Y-9228000D01*
G37*
G36*
X7919000Y-8108000D02*
G01*
X7959000Y-8108000D01*
X7959000Y-8148000D01*
X7919000Y-8148000D01*
X7919000Y-8108000D01*
G37*
G36*
X7919000Y-8348000D02*
G01*
X7959000Y-8348000D01*
X7959000Y-8388000D01*
X7919000Y-8388000D01*
X7919000Y-8348000D01*
G37*
G36*
X7919000Y-8468000D02*
G01*
X7959000Y-8468000D01*
X7959000Y-8508000D01*
X7919000Y-8508000D01*
X7919000Y-8468000D01*
G37*
G36*
X7919000Y-8588000D02*
G01*
X7959000Y-8588000D01*
X7959000Y-8628000D01*
X7919000Y-8628000D01*
X7919000Y-8588000D01*
G37*
G36*
X7919000Y-8628000D02*
G01*
X7959000Y-8628000D01*
X7959000Y-8668000D01*
X7919000Y-8668000D01*
X7919000Y-8628000D01*
G37*
G36*
X7919000Y-8708000D02*
G01*
X7959000Y-8708000D01*
X7959000Y-8748000D01*
X7919000Y-8748000D01*
X7919000Y-8708000D01*
G37*
G36*
X7919000Y-8748000D02*
G01*
X7959000Y-8748000D01*
X7959000Y-8788000D01*
X7919000Y-8788000D01*
X7919000Y-8748000D01*
G37*
G36*
X7919000Y-8788000D02*
G01*
X7959000Y-8788000D01*
X7959000Y-8828000D01*
X7919000Y-8828000D01*
X7919000Y-8788000D01*
G37*
G36*
X7919000Y-8908000D02*
G01*
X7959000Y-8908000D01*
X7959000Y-8948000D01*
X7919000Y-8948000D01*
X7919000Y-8908000D01*
G37*
G36*
X7919000Y-9068000D02*
G01*
X7959000Y-9068000D01*
X7959000Y-9108000D01*
X7919000Y-9108000D01*
X7919000Y-9068000D01*
G37*
G36*
X7919000Y-9148000D02*
G01*
X7959000Y-9148000D01*
X7959000Y-9188000D01*
X7919000Y-9188000D01*
X7919000Y-9148000D01*
G37*
G36*
X7919000Y-9188000D02*
G01*
X7959000Y-9188000D01*
X7959000Y-9228000D01*
X7919000Y-9228000D01*
X7919000Y-9188000D01*
G37*
G36*
X7919000Y-9228000D02*
G01*
X7959000Y-9228000D01*
X7959000Y-9268000D01*
X7919000Y-9268000D01*
X7919000Y-9228000D01*
G37*
G36*
X7959000Y-8108000D02*
G01*
X7999000Y-8108000D01*
X7999000Y-8148000D01*
X7959000Y-8148000D01*
X7959000Y-8108000D01*
G37*
G36*
X7959000Y-8148000D02*
G01*
X7999000Y-8148000D01*
X7999000Y-8188000D01*
X7959000Y-8188000D01*
X7959000Y-8148000D01*
G37*
G36*
X7959000Y-8188000D02*
G01*
X7999000Y-8188000D01*
X7999000Y-8228000D01*
X7959000Y-8228000D01*
X7959000Y-8188000D01*
G37*
G36*
X7959000Y-8228000D02*
G01*
X7999000Y-8228000D01*
X7999000Y-8268000D01*
X7959000Y-8268000D01*
X7959000Y-8228000D01*
G37*
G36*
X7959000Y-8268000D02*
G01*
X7999000Y-8268000D01*
X7999000Y-8308000D01*
X7959000Y-8308000D01*
X7959000Y-8268000D01*
G37*
G36*
X7959000Y-8308000D02*
G01*
X7999000Y-8308000D01*
X7999000Y-8348000D01*
X7959000Y-8348000D01*
X7959000Y-8308000D01*
G37*
G36*
X7959000Y-8348000D02*
G01*
X7999000Y-8348000D01*
X7999000Y-8388000D01*
X7959000Y-8388000D01*
X7959000Y-8348000D01*
G37*
G36*
X7959000Y-8428000D02*
G01*
X7999000Y-8428000D01*
X7999000Y-8468000D01*
X7959000Y-8468000D01*
X7959000Y-8428000D01*
G37*
G36*
X7959000Y-8588000D02*
G01*
X7999000Y-8588000D01*
X7999000Y-8628000D01*
X7959000Y-8628000D01*
X7959000Y-8588000D01*
G37*
G36*
X7959000Y-8628000D02*
G01*
X7999000Y-8628000D01*
X7999000Y-8668000D01*
X7959000Y-8668000D01*
X7959000Y-8628000D01*
G37*
G36*
X7959000Y-8788000D02*
G01*
X7999000Y-8788000D01*
X7999000Y-8828000D01*
X7959000Y-8828000D01*
X7959000Y-8788000D01*
G37*
G36*
X7959000Y-8868000D02*
G01*
X7999000Y-8868000D01*
X7999000Y-8908000D01*
X7959000Y-8908000D01*
X7959000Y-8868000D01*
G37*
G36*
X7959000Y-8908000D02*
G01*
X7999000Y-8908000D01*
X7999000Y-8948000D01*
X7959000Y-8948000D01*
X7959000Y-8908000D01*
G37*
G36*
X7959000Y-8988000D02*
G01*
X7999000Y-8988000D01*
X7999000Y-9028000D01*
X7959000Y-9028000D01*
X7959000Y-8988000D01*
G37*
G36*
X7959000Y-9068000D02*
G01*
X7999000Y-9068000D01*
X7999000Y-9108000D01*
X7959000Y-9108000D01*
X7959000Y-9068000D01*
G37*
G36*
X7959000Y-9148000D02*
G01*
X7999000Y-9148000D01*
X7999000Y-9188000D01*
X7959000Y-9188000D01*
X7959000Y-9148000D01*
G37*
G36*
X7959000Y-9188000D02*
G01*
X7999000Y-9188000D01*
X7999000Y-9228000D01*
X7959000Y-9228000D01*
X7959000Y-9188000D01*
G37*
G36*
X7959000Y-9228000D02*
G01*
X7999000Y-9228000D01*
X7999000Y-9268000D01*
X7959000Y-9268000D01*
X7959000Y-9228000D01*
G37*
G36*
X7999000Y-8428000D02*
G01*
X8039000Y-8428000D01*
X8039000Y-8468000D01*
X7999000Y-8468000D01*
X7999000Y-8428000D01*
G37*
G36*
X7999000Y-8468000D02*
G01*
X8039000Y-8468000D01*
X8039000Y-8508000D01*
X7999000Y-8508000D01*
X7999000Y-8468000D01*
G37*
G36*
X7999000Y-8548000D02*
G01*
X8039000Y-8548000D01*
X8039000Y-8588000D01*
X7999000Y-8588000D01*
X7999000Y-8548000D01*
G37*
G36*
X7999000Y-8668000D02*
G01*
X8039000Y-8668000D01*
X8039000Y-8708000D01*
X7999000Y-8708000D01*
X7999000Y-8668000D01*
G37*
G36*
X7999000Y-8748000D02*
G01*
X8039000Y-8748000D01*
X8039000Y-8788000D01*
X7999000Y-8788000D01*
X7999000Y-8748000D01*
G37*
G36*
X7999000Y-8908000D02*
G01*
X8039000Y-8908000D01*
X8039000Y-8948000D01*
X7999000Y-8948000D01*
X7999000Y-8908000D01*
G37*
G36*
X7999000Y-9068000D02*
G01*
X8039000Y-9068000D01*
X8039000Y-9108000D01*
X7999000Y-9108000D01*
X7999000Y-9068000D01*
G37*
G36*
X7999000Y-9108000D02*
G01*
X8039000Y-9108000D01*
X8039000Y-9148000D01*
X7999000Y-9148000D01*
X7999000Y-9108000D01*
G37*
G36*
X7999000Y-9148000D02*
G01*
X8039000Y-9148000D01*
X8039000Y-9188000D01*
X7999000Y-9188000D01*
X7999000Y-9148000D01*
G37*
G36*
X8039000Y-8268000D02*
G01*
X8079000Y-8268000D01*
X8079000Y-8308000D01*
X8039000Y-8308000D01*
X8039000Y-8268000D01*
G37*
G36*
X8039000Y-8308000D02*
G01*
X8079000Y-8308000D01*
X8079000Y-8348000D01*
X8039000Y-8348000D01*
X8039000Y-8308000D01*
G37*
G36*
X8039000Y-8348000D02*
G01*
X8079000Y-8348000D01*
X8079000Y-8388000D01*
X8039000Y-8388000D01*
X8039000Y-8348000D01*
G37*
G36*
X8039000Y-8388000D02*
G01*
X8079000Y-8388000D01*
X8079000Y-8428000D01*
X8039000Y-8428000D01*
X8039000Y-8388000D01*
G37*
G36*
X8039000Y-8508000D02*
G01*
X8079000Y-8508000D01*
X8079000Y-8548000D01*
X8039000Y-8548000D01*
X8039000Y-8508000D01*
G37*
G36*
X8039000Y-8628000D02*
G01*
X8079000Y-8628000D01*
X8079000Y-8668000D01*
X8039000Y-8668000D01*
X8039000Y-8628000D01*
G37*
G36*
X8039000Y-8668000D02*
G01*
X8079000Y-8668000D01*
X8079000Y-8708000D01*
X8039000Y-8708000D01*
X8039000Y-8668000D01*
G37*
G36*
X8039000Y-8868000D02*
G01*
X8079000Y-8868000D01*
X8079000Y-8908000D01*
X8039000Y-8908000D01*
X8039000Y-8868000D01*
G37*
G36*
X8039000Y-8908000D02*
G01*
X8079000Y-8908000D01*
X8079000Y-8948000D01*
X8039000Y-8948000D01*
X8039000Y-8908000D01*
G37*
G36*
X8039000Y-8948000D02*
G01*
X8079000Y-8948000D01*
X8079000Y-8988000D01*
X8039000Y-8988000D01*
X8039000Y-8948000D01*
G37*
G36*
X8039000Y-8988000D02*
G01*
X8079000Y-8988000D01*
X8079000Y-9028000D01*
X8039000Y-9028000D01*
X8039000Y-8988000D01*
G37*
G36*
X8039000Y-9028000D02*
G01*
X8079000Y-9028000D01*
X8079000Y-9068000D01*
X8039000Y-9068000D01*
X8039000Y-9028000D01*
G37*
G36*
X8039000Y-9068000D02*
G01*
X8079000Y-9068000D01*
X8079000Y-9108000D01*
X8039000Y-9108000D01*
X8039000Y-9068000D01*
G37*
G36*
X8039000Y-9108000D02*
G01*
X8079000Y-9108000D01*
X8079000Y-9148000D01*
X8039000Y-9148000D01*
X8039000Y-9108000D01*
G37*
G36*
X8039000Y-9148000D02*
G01*
X8079000Y-9148000D01*
X8079000Y-9188000D01*
X8039000Y-9188000D01*
X8039000Y-9148000D01*
G37*
G36*
X8079000Y-8188000D02*
G01*
X8119000Y-8188000D01*
X8119000Y-8228000D01*
X8079000Y-8228000D01*
X8079000Y-8188000D01*
G37*
G36*
X8079000Y-8268000D02*
G01*
X8119000Y-8268000D01*
X8119000Y-8308000D01*
X8079000Y-8308000D01*
X8079000Y-8268000D01*
G37*
G36*
X8079000Y-8468000D02*
G01*
X8119000Y-8468000D01*
X8119000Y-8508000D01*
X8079000Y-8508000D01*
X8079000Y-8468000D01*
G37*
G36*
X8079000Y-8548000D02*
G01*
X8119000Y-8548000D01*
X8119000Y-8588000D01*
X8079000Y-8588000D01*
X8079000Y-8548000D01*
G37*
G36*
X8079000Y-8588000D02*
G01*
X8119000Y-8588000D01*
X8119000Y-8628000D01*
X8079000Y-8628000D01*
X8079000Y-8588000D01*
G37*
G36*
X8079000Y-8708000D02*
G01*
X8119000Y-8708000D01*
X8119000Y-8748000D01*
X8079000Y-8748000D01*
X8079000Y-8708000D01*
G37*
G36*
X8079000Y-8748000D02*
G01*
X8119000Y-8748000D01*
X8119000Y-8788000D01*
X8079000Y-8788000D01*
X8079000Y-8748000D01*
G37*
G36*
X8079000Y-8788000D02*
G01*
X8119000Y-8788000D01*
X8119000Y-8828000D01*
X8079000Y-8828000D01*
X8079000Y-8788000D01*
G37*
G36*
X8079000Y-8828000D02*
G01*
X8119000Y-8828000D01*
X8119000Y-8868000D01*
X8079000Y-8868000D01*
X8079000Y-8828000D01*
G37*
G36*
X8079000Y-8908000D02*
G01*
X8119000Y-8908000D01*
X8119000Y-8948000D01*
X8079000Y-8948000D01*
X8079000Y-8908000D01*
G37*
G36*
X8079000Y-8988000D02*
G01*
X8119000Y-8988000D01*
X8119000Y-9028000D01*
X8079000Y-9028000D01*
X8079000Y-8988000D01*
G37*
G36*
X8079000Y-9028000D02*
G01*
X8119000Y-9028000D01*
X8119000Y-9068000D01*
X8079000Y-9068000D01*
X8079000Y-9028000D01*
G37*
G36*
X8079000Y-9068000D02*
G01*
X8119000Y-9068000D01*
X8119000Y-9108000D01*
X8079000Y-9108000D01*
X8079000Y-9068000D01*
G37*
G36*
X8079000Y-9108000D02*
G01*
X8119000Y-9108000D01*
X8119000Y-9148000D01*
X8079000Y-9148000D01*
X8079000Y-9108000D01*
G37*
G36*
X8079000Y-9148000D02*
G01*
X8119000Y-9148000D01*
X8119000Y-9188000D01*
X8079000Y-9188000D01*
X8079000Y-9148000D01*
G37*
G36*
X8079000Y-9228000D02*
G01*
X8119000Y-9228000D01*
X8119000Y-9268000D01*
X8079000Y-9268000D01*
X8079000Y-9228000D01*
G37*
G36*
X8119000Y-8108000D02*
G01*
X8159000Y-8108000D01*
X8159000Y-8148000D01*
X8119000Y-8148000D01*
X8119000Y-8108000D01*
G37*
G36*
X8119000Y-8268000D02*
G01*
X8159000Y-8268000D01*
X8159000Y-8308000D01*
X8119000Y-8308000D01*
X8119000Y-8268000D01*
G37*
G36*
X8119000Y-8308000D02*
G01*
X8159000Y-8308000D01*
X8159000Y-8348000D01*
X8119000Y-8348000D01*
X8119000Y-8308000D01*
G37*
G36*
X8119000Y-8348000D02*
G01*
X8159000Y-8348000D01*
X8159000Y-8388000D01*
X8119000Y-8388000D01*
X8119000Y-8348000D01*
G37*
G36*
X8119000Y-8468000D02*
G01*
X8159000Y-8468000D01*
X8159000Y-8508000D01*
X8119000Y-8508000D01*
X8119000Y-8468000D01*
G37*
G36*
X8119000Y-8588000D02*
G01*
X8159000Y-8588000D01*
X8159000Y-8628000D01*
X8119000Y-8628000D01*
X8119000Y-8588000D01*
G37*
G36*
X8119000Y-8748000D02*
G01*
X8159000Y-8748000D01*
X8159000Y-8788000D01*
X8119000Y-8788000D01*
X8119000Y-8748000D01*
G37*
G36*
X8119000Y-8908000D02*
G01*
X8159000Y-8908000D01*
X8159000Y-8948000D01*
X8119000Y-8948000D01*
X8119000Y-8908000D01*
G37*
G36*
X8119000Y-8988000D02*
G01*
X8159000Y-8988000D01*
X8159000Y-9028000D01*
X8119000Y-9028000D01*
X8119000Y-8988000D01*
G37*
G36*
X8119000Y-9068000D02*
G01*
X8159000Y-9068000D01*
X8159000Y-9108000D01*
X8119000Y-9108000D01*
X8119000Y-9068000D01*
G37*
G36*
X8119000Y-9188000D02*
G01*
X8159000Y-9188000D01*
X8159000Y-9228000D01*
X8119000Y-9228000D01*
X8119000Y-9188000D01*
G37*
G36*
X8119000Y-9228000D02*
G01*
X8159000Y-9228000D01*
X8159000Y-9268000D01*
X8119000Y-9268000D01*
X8119000Y-9228000D01*
G37*
G36*
X8159000Y-8108000D02*
G01*
X8199000Y-8108000D01*
X8199000Y-8148000D01*
X8159000Y-8148000D01*
X8159000Y-8108000D01*
G37*
G36*
X8159000Y-8148000D02*
G01*
X8199000Y-8148000D01*
X8199000Y-8188000D01*
X8159000Y-8188000D01*
X8159000Y-8148000D01*
G37*
G36*
X8159000Y-8228000D02*
G01*
X8199000Y-8228000D01*
X8199000Y-8268000D01*
X8159000Y-8268000D01*
X8159000Y-8228000D01*
G37*
G36*
X8159000Y-8268000D02*
G01*
X8199000Y-8268000D01*
X8199000Y-8308000D01*
X8159000Y-8308000D01*
X8159000Y-8268000D01*
G37*
G36*
X8159000Y-8428000D02*
G01*
X8199000Y-8428000D01*
X8199000Y-8468000D01*
X8159000Y-8468000D01*
X8159000Y-8428000D01*
G37*
G36*
X8159000Y-8468000D02*
G01*
X8199000Y-8468000D01*
X8199000Y-8508000D01*
X8159000Y-8508000D01*
X8159000Y-8468000D01*
G37*
G36*
X8159000Y-8508000D02*
G01*
X8199000Y-8508000D01*
X8199000Y-8548000D01*
X8159000Y-8548000D01*
X8159000Y-8508000D01*
G37*
G36*
X8159000Y-8748000D02*
G01*
X8199000Y-8748000D01*
X8199000Y-8788000D01*
X8159000Y-8788000D01*
X8159000Y-8748000D01*
G37*
G36*
X8159000Y-8908000D02*
G01*
X8199000Y-8908000D01*
X8199000Y-8948000D01*
X8159000Y-8948000D01*
X8159000Y-8908000D01*
G37*
G36*
X8159000Y-9228000D02*
G01*
X8199000Y-9228000D01*
X8199000Y-9268000D01*
X8159000Y-9268000D01*
X8159000Y-9228000D01*
G37*
G36*
X8199000Y-8108000D02*
G01*
X8239000Y-8108000D01*
X8239000Y-8148000D01*
X8199000Y-8148000D01*
X8199000Y-8108000D01*
G37*
G36*
X8199000Y-8148000D02*
G01*
X8239000Y-8148000D01*
X8239000Y-8188000D01*
X8199000Y-8188000D01*
X8199000Y-8148000D01*
G37*
G36*
X8199000Y-8268000D02*
G01*
X8239000Y-8268000D01*
X8239000Y-8308000D01*
X8199000Y-8308000D01*
X8199000Y-8268000D01*
G37*
G36*
X8199000Y-8308000D02*
G01*
X8239000Y-8308000D01*
X8239000Y-8348000D01*
X8199000Y-8348000D01*
X8199000Y-8308000D01*
G37*
G36*
X8199000Y-8348000D02*
G01*
X8239000Y-8348000D01*
X8239000Y-8388000D01*
X8199000Y-8388000D01*
X8199000Y-8348000D01*
G37*
G36*
X8199000Y-8388000D02*
G01*
X8239000Y-8388000D01*
X8239000Y-8428000D01*
X8199000Y-8428000D01*
X8199000Y-8388000D01*
G37*
G36*
X8199000Y-8428000D02*
G01*
X8239000Y-8428000D01*
X8239000Y-8468000D01*
X8199000Y-8468000D01*
X8199000Y-8428000D01*
G37*
G36*
X8199000Y-8628000D02*
G01*
X8239000Y-8628000D01*
X8239000Y-8668000D01*
X8199000Y-8668000D01*
X8199000Y-8628000D01*
G37*
G36*
X8199000Y-8788000D02*
G01*
X8239000Y-8788000D01*
X8239000Y-8828000D01*
X8199000Y-8828000D01*
X8199000Y-8788000D01*
G37*
G36*
X8199000Y-8868000D02*
G01*
X8239000Y-8868000D01*
X8239000Y-8908000D01*
X8199000Y-8908000D01*
X8199000Y-8868000D01*
G37*
G36*
X8199000Y-8908000D02*
G01*
X8239000Y-8908000D01*
X8239000Y-8948000D01*
X8199000Y-8948000D01*
X8199000Y-8908000D01*
G37*
G36*
X8199000Y-8988000D02*
G01*
X8239000Y-8988000D01*
X8239000Y-9028000D01*
X8199000Y-9028000D01*
X8199000Y-8988000D01*
G37*
G36*
X8199000Y-9028000D02*
G01*
X8239000Y-9028000D01*
X8239000Y-9068000D01*
X8199000Y-9068000D01*
X8199000Y-9028000D01*
G37*
G36*
X8199000Y-9108000D02*
G01*
X8239000Y-9108000D01*
X8239000Y-9148000D01*
X8199000Y-9148000D01*
X8199000Y-9108000D01*
G37*
G36*
X8199000Y-9148000D02*
G01*
X8239000Y-9148000D01*
X8239000Y-9188000D01*
X8199000Y-9188000D01*
X8199000Y-9148000D01*
G37*
G36*
X8239000Y-8428000D02*
G01*
X8279000Y-8428000D01*
X8279000Y-8468000D01*
X8239000Y-8468000D01*
X8239000Y-8428000D01*
G37*
G36*
X8239000Y-8468000D02*
G01*
X8279000Y-8468000D01*
X8279000Y-8508000D01*
X8239000Y-8508000D01*
X8239000Y-8468000D01*
G37*
G36*
X8239000Y-8508000D02*
G01*
X8279000Y-8508000D01*
X8279000Y-8548000D01*
X8239000Y-8548000D01*
X8239000Y-8508000D01*
G37*
G36*
X8239000Y-8588000D02*
G01*
X8279000Y-8588000D01*
X8279000Y-8628000D01*
X8239000Y-8628000D01*
X8239000Y-8588000D01*
G37*
G36*
X8239000Y-8628000D02*
G01*
X8279000Y-8628000D01*
X8279000Y-8668000D01*
X8239000Y-8668000D01*
X8239000Y-8628000D01*
G37*
G36*
X8239000Y-8668000D02*
G01*
X8279000Y-8668000D01*
X8279000Y-8708000D01*
X8239000Y-8708000D01*
X8239000Y-8668000D01*
G37*
G36*
X8239000Y-8788000D02*
G01*
X8279000Y-8788000D01*
X8279000Y-8828000D01*
X8239000Y-8828000D01*
X8239000Y-8788000D01*
G37*
G36*
X8239000Y-8828000D02*
G01*
X8279000Y-8828000D01*
X8279000Y-8868000D01*
X8239000Y-8868000D01*
X8239000Y-8828000D01*
G37*
G36*
X8239000Y-8908000D02*
G01*
X8279000Y-8908000D01*
X8279000Y-8948000D01*
X8239000Y-8948000D01*
X8239000Y-8908000D01*
G37*
G36*
X8239000Y-8948000D02*
G01*
X8279000Y-8948000D01*
X8279000Y-8988000D01*
X8239000Y-8988000D01*
X8239000Y-8948000D01*
G37*
G36*
X8239000Y-8988000D02*
G01*
X8279000Y-8988000D01*
X8279000Y-9028000D01*
X8239000Y-9028000D01*
X8239000Y-8988000D01*
G37*
G36*
X8239000Y-9028000D02*
G01*
X8279000Y-9028000D01*
X8279000Y-9068000D01*
X8239000Y-9068000D01*
X8239000Y-9028000D01*
G37*
G36*
X8239000Y-9068000D02*
G01*
X8279000Y-9068000D01*
X8279000Y-9108000D01*
X8239000Y-9108000D01*
X8239000Y-9068000D01*
G37*
G36*
X8239000Y-9108000D02*
G01*
X8279000Y-9108000D01*
X8279000Y-9148000D01*
X8239000Y-9148000D01*
X8239000Y-9108000D01*
G37*
G36*
X8239000Y-9148000D02*
G01*
X8279000Y-9148000D01*
X8279000Y-9188000D01*
X8239000Y-9188000D01*
X8239000Y-9148000D01*
G37*
G36*
X8239000Y-9188000D02*
G01*
X8279000Y-9188000D01*
X8279000Y-9228000D01*
X8239000Y-9228000D01*
X8239000Y-9188000D01*
G37*
G36*
X8279000Y-8108000D02*
G01*
X8319000Y-8108000D01*
X8319000Y-8148000D01*
X8279000Y-8148000D01*
X8279000Y-8108000D01*
G37*
G36*
X8279000Y-8148000D02*
G01*
X8319000Y-8148000D01*
X8319000Y-8188000D01*
X8279000Y-8188000D01*
X8279000Y-8148000D01*
G37*
G36*
X8279000Y-8188000D02*
G01*
X8319000Y-8188000D01*
X8319000Y-8228000D01*
X8279000Y-8228000D01*
X8279000Y-8188000D01*
G37*
G36*
X8279000Y-8268000D02*
G01*
X8319000Y-8268000D01*
X8319000Y-8308000D01*
X8279000Y-8308000D01*
X8279000Y-8268000D01*
G37*
G36*
X8279000Y-8348000D02*
G01*
X8319000Y-8348000D01*
X8319000Y-8388000D01*
X8279000Y-8388000D01*
X8279000Y-8348000D01*
G37*
G36*
X8279000Y-8428000D02*
G01*
X8319000Y-8428000D01*
X8319000Y-8468000D01*
X8279000Y-8468000D01*
X8279000Y-8428000D01*
G37*
G36*
X8279000Y-8668000D02*
G01*
X8319000Y-8668000D01*
X8319000Y-8708000D01*
X8279000Y-8708000D01*
X8279000Y-8668000D01*
G37*
G36*
X8279000Y-8908000D02*
G01*
X8319000Y-8908000D01*
X8319000Y-8948000D01*
X8279000Y-8948000D01*
X8279000Y-8908000D01*
G37*
G36*
X8279000Y-8948000D02*
G01*
X8319000Y-8948000D01*
X8319000Y-8988000D01*
X8279000Y-8988000D01*
X8279000Y-8948000D01*
G37*
G36*
X8279000Y-9028000D02*
G01*
X8319000Y-9028000D01*
X8319000Y-9068000D01*
X8279000Y-9068000D01*
X8279000Y-9028000D01*
G37*
G36*
X8279000Y-9068000D02*
G01*
X8319000Y-9068000D01*
X8319000Y-9108000D01*
X8279000Y-9108000D01*
X8279000Y-9068000D01*
G37*
G36*
X8279000Y-9108000D02*
G01*
X8319000Y-9108000D01*
X8319000Y-9148000D01*
X8279000Y-9148000D01*
X8279000Y-9108000D01*
G37*
G36*
X8279000Y-9148000D02*
G01*
X8319000Y-9148000D01*
X8319000Y-9188000D01*
X8279000Y-9188000D01*
X8279000Y-9148000D01*
G37*
G36*
X8279000Y-9188000D02*
G01*
X8319000Y-9188000D01*
X8319000Y-9228000D01*
X8279000Y-9228000D01*
X8279000Y-9188000D01*
G37*
G36*
X8279000Y-9228000D02*
G01*
X8319000Y-9228000D01*
X8319000Y-9268000D01*
X8279000Y-9268000D01*
X8279000Y-9228000D01*
G37*
G36*
X8319000Y-8228000D02*
G01*
X8359000Y-8228000D01*
X8359000Y-8268000D01*
X8319000Y-8268000D01*
X8319000Y-8228000D01*
G37*
G36*
X8319000Y-8428000D02*
G01*
X8359000Y-8428000D01*
X8359000Y-8468000D01*
X8319000Y-8468000D01*
X8319000Y-8428000D01*
G37*
G36*
X8319000Y-8508000D02*
G01*
X8359000Y-8508000D01*
X8359000Y-8548000D01*
X8319000Y-8548000D01*
X8319000Y-8508000D01*
G37*
G36*
X8319000Y-8628000D02*
G01*
X8359000Y-8628000D01*
X8359000Y-8668000D01*
X8319000Y-8668000D01*
X8319000Y-8628000D01*
G37*
G36*
X8319000Y-8668000D02*
G01*
X8359000Y-8668000D01*
X8359000Y-8708000D01*
X8319000Y-8708000D01*
X8319000Y-8668000D01*
G37*
G36*
X8319000Y-8788000D02*
G01*
X8359000Y-8788000D01*
X8359000Y-8828000D01*
X8319000Y-8828000D01*
X8319000Y-8788000D01*
G37*
G36*
X8319000Y-8868000D02*
G01*
X8359000Y-8868000D01*
X8359000Y-8908000D01*
X8319000Y-8908000D01*
X8319000Y-8868000D01*
G37*
G36*
X8319000Y-9068000D02*
G01*
X8359000Y-9068000D01*
X8359000Y-9108000D01*
X8319000Y-9108000D01*
X8319000Y-9068000D01*
G37*
G36*
X8319000Y-9108000D02*
G01*
X8359000Y-9108000D01*
X8359000Y-9148000D01*
X8319000Y-9148000D01*
X8319000Y-9108000D01*
G37*
G36*
X8319000Y-9228000D02*
G01*
X8359000Y-9228000D01*
X8359000Y-9268000D01*
X8319000Y-9268000D01*
X8319000Y-9228000D01*
G37*
G36*
X8359000Y-8108000D02*
G01*
X8399000Y-8108000D01*
X8399000Y-8148000D01*
X8359000Y-8148000D01*
X8359000Y-8108000D01*
G37*
G36*
X8359000Y-8188000D02*
G01*
X8399000Y-8188000D01*
X8399000Y-8228000D01*
X8359000Y-8228000D01*
X8359000Y-8188000D01*
G37*
G36*
X8359000Y-8228000D02*
G01*
X8399000Y-8228000D01*
X8399000Y-8268000D01*
X8359000Y-8268000D01*
X8359000Y-8228000D01*
G37*
G36*
X8359000Y-8348000D02*
G01*
X8399000Y-8348000D01*
X8399000Y-8388000D01*
X8359000Y-8388000D01*
X8359000Y-8348000D01*
G37*
G36*
X8359000Y-8388000D02*
G01*
X8399000Y-8388000D01*
X8399000Y-8428000D01*
X8359000Y-8428000D01*
X8359000Y-8388000D01*
G37*
G36*
X8359000Y-8468000D02*
G01*
X8399000Y-8468000D01*
X8399000Y-8508000D01*
X8359000Y-8508000D01*
X8359000Y-8468000D01*
G37*
G36*
X8359000Y-8548000D02*
G01*
X8399000Y-8548000D01*
X8399000Y-8588000D01*
X8359000Y-8588000D01*
X8359000Y-8548000D01*
G37*
G36*
X8359000Y-8588000D02*
G01*
X8399000Y-8588000D01*
X8399000Y-8628000D01*
X8359000Y-8628000D01*
X8359000Y-8588000D01*
G37*
G36*
X8359000Y-8628000D02*
G01*
X8399000Y-8628000D01*
X8399000Y-8668000D01*
X8359000Y-8668000D01*
X8359000Y-8628000D01*
G37*
G36*
X8359000Y-8908000D02*
G01*
X8399000Y-8908000D01*
X8399000Y-8948000D01*
X8359000Y-8948000D01*
X8359000Y-8908000D01*
G37*
G36*
X8359000Y-8988000D02*
G01*
X8399000Y-8988000D01*
X8399000Y-9028000D01*
X8359000Y-9028000D01*
X8359000Y-8988000D01*
G37*
G36*
X8359000Y-9108000D02*
G01*
X8399000Y-9108000D01*
X8399000Y-9148000D01*
X8359000Y-9148000D01*
X8359000Y-9108000D01*
G37*
G36*
X8359000Y-9228000D02*
G01*
X8399000Y-9228000D01*
X8399000Y-9268000D01*
X8359000Y-9268000D01*
X8359000Y-9228000D01*
G37*
G36*
X8399000Y-8108000D02*
G01*
X8439000Y-8108000D01*
X8439000Y-8148000D01*
X8399000Y-8148000D01*
X8399000Y-8108000D01*
G37*
G36*
X8399000Y-8188000D02*
G01*
X8439000Y-8188000D01*
X8439000Y-8228000D01*
X8399000Y-8228000D01*
X8399000Y-8188000D01*
G37*
G36*
X8399000Y-8228000D02*
G01*
X8439000Y-8228000D01*
X8439000Y-8268000D01*
X8399000Y-8268000D01*
X8399000Y-8228000D01*
G37*
G36*
X8399000Y-8268000D02*
G01*
X8439000Y-8268000D01*
X8439000Y-8308000D01*
X8399000Y-8308000D01*
X8399000Y-8268000D01*
G37*
G36*
X8399000Y-8308000D02*
G01*
X8439000Y-8308000D01*
X8439000Y-8348000D01*
X8399000Y-8348000D01*
X8399000Y-8308000D01*
G37*
G36*
X8399000Y-8468000D02*
G01*
X8439000Y-8468000D01*
X8439000Y-8508000D01*
X8399000Y-8508000D01*
X8399000Y-8468000D01*
G37*
G36*
X8399000Y-8588000D02*
G01*
X8439000Y-8588000D01*
X8439000Y-8628000D01*
X8399000Y-8628000D01*
X8399000Y-8588000D01*
G37*
G36*
X8399000Y-8628000D02*
G01*
X8439000Y-8628000D01*
X8439000Y-8668000D01*
X8399000Y-8668000D01*
X8399000Y-8628000D01*
G37*
G36*
X8399000Y-8668000D02*
G01*
X8439000Y-8668000D01*
X8439000Y-8708000D01*
X8399000Y-8708000D01*
X8399000Y-8668000D01*
G37*
G36*
X8399000Y-8708000D02*
G01*
X8439000Y-8708000D01*
X8439000Y-8748000D01*
X8399000Y-8748000D01*
X8399000Y-8708000D01*
G37*
G36*
X8399000Y-8748000D02*
G01*
X8439000Y-8748000D01*
X8439000Y-8788000D01*
X8399000Y-8788000D01*
X8399000Y-8748000D01*
G37*
G36*
X8399000Y-8868000D02*
G01*
X8439000Y-8868000D01*
X8439000Y-8908000D01*
X8399000Y-8908000D01*
X8399000Y-8868000D01*
G37*
G36*
X8399000Y-9028000D02*
G01*
X8439000Y-9028000D01*
X8439000Y-9068000D01*
X8399000Y-9068000D01*
X8399000Y-9028000D01*
G37*
G36*
X8399000Y-9068000D02*
G01*
X8439000Y-9068000D01*
X8439000Y-9108000D01*
X8399000Y-9108000D01*
X8399000Y-9068000D01*
G37*
G36*
X8399000Y-9108000D02*
G01*
X8439000Y-9108000D01*
X8439000Y-9148000D01*
X8399000Y-9148000D01*
X8399000Y-9108000D01*
G37*
G36*
X8399000Y-9148000D02*
G01*
X8439000Y-9148000D01*
X8439000Y-9188000D01*
X8399000Y-9188000D01*
X8399000Y-9148000D01*
G37*
G36*
X8399000Y-9228000D02*
G01*
X8439000Y-9228000D01*
X8439000Y-9268000D01*
X8399000Y-9268000D01*
X8399000Y-9228000D01*
G37*
G36*
X8439000Y-8108000D02*
G01*
X8479000Y-8108000D01*
X8479000Y-8148000D01*
X8439000Y-8148000D01*
X8439000Y-8108000D01*
G37*
G36*
X8439000Y-8148000D02*
G01*
X8479000Y-8148000D01*
X8479000Y-8188000D01*
X8439000Y-8188000D01*
X8439000Y-8148000D01*
G37*
G36*
X8439000Y-8188000D02*
G01*
X8479000Y-8188000D01*
X8479000Y-8228000D01*
X8439000Y-8228000D01*
X8439000Y-8188000D01*
G37*
G36*
X8439000Y-8228000D02*
G01*
X8479000Y-8228000D01*
X8479000Y-8268000D01*
X8439000Y-8268000D01*
X8439000Y-8228000D01*
G37*
G36*
X8439000Y-8268000D02*
G01*
X8479000Y-8268000D01*
X8479000Y-8308000D01*
X8439000Y-8308000D01*
X8439000Y-8268000D01*
G37*
G36*
X8439000Y-8348000D02*
G01*
X8479000Y-8348000D01*
X8479000Y-8388000D01*
X8439000Y-8388000D01*
X8439000Y-8348000D01*
G37*
G36*
X8439000Y-8468000D02*
G01*
X8479000Y-8468000D01*
X8479000Y-8508000D01*
X8439000Y-8508000D01*
X8439000Y-8468000D01*
G37*
G36*
X8439000Y-8548000D02*
G01*
X8479000Y-8548000D01*
X8479000Y-8588000D01*
X8439000Y-8588000D01*
X8439000Y-8548000D01*
G37*
G36*
X8439000Y-8668000D02*
G01*
X8479000Y-8668000D01*
X8479000Y-8708000D01*
X8439000Y-8708000D01*
X8439000Y-8668000D01*
G37*
G36*
X8439000Y-8828000D02*
G01*
X8479000Y-8828000D01*
X8479000Y-8868000D01*
X8439000Y-8868000D01*
X8439000Y-8828000D01*
G37*
G36*
X8439000Y-8948000D02*
G01*
X8479000Y-8948000D01*
X8479000Y-8988000D01*
X8439000Y-8988000D01*
X8439000Y-8948000D01*
G37*
G36*
X8439000Y-8988000D02*
G01*
X8479000Y-8988000D01*
X8479000Y-9028000D01*
X8439000Y-9028000D01*
X8439000Y-8988000D01*
G37*
G36*
X8439000Y-9028000D02*
G01*
X8479000Y-9028000D01*
X8479000Y-9068000D01*
X8439000Y-9068000D01*
X8439000Y-9028000D01*
G37*
G36*
X8439000Y-9108000D02*
G01*
X8479000Y-9108000D01*
X8479000Y-9148000D01*
X8439000Y-9148000D01*
X8439000Y-9108000D01*
G37*
G36*
X8439000Y-9148000D02*
G01*
X8479000Y-9148000D01*
X8479000Y-9188000D01*
X8439000Y-9188000D01*
X8439000Y-9148000D01*
G37*
G36*
X8439000Y-9188000D02*
G01*
X8479000Y-9188000D01*
X8479000Y-9228000D01*
X8439000Y-9228000D01*
X8439000Y-9188000D01*
G37*
G36*
X8479000Y-8108000D02*
G01*
X8519000Y-8108000D01*
X8519000Y-8148000D01*
X8479000Y-8148000D01*
X8479000Y-8108000D01*
G37*
G36*
X8479000Y-8148000D02*
G01*
X8519000Y-8148000D01*
X8519000Y-8188000D01*
X8479000Y-8188000D01*
X8479000Y-8148000D01*
G37*
G36*
X8479000Y-8188000D02*
G01*
X8519000Y-8188000D01*
X8519000Y-8228000D01*
X8479000Y-8228000D01*
X8479000Y-8188000D01*
G37*
G36*
X8479000Y-8228000D02*
G01*
X8519000Y-8228000D01*
X8519000Y-8268000D01*
X8479000Y-8268000D01*
X8479000Y-8228000D01*
G37*
G36*
X8479000Y-8268000D02*
G01*
X8519000Y-8268000D01*
X8519000Y-8308000D01*
X8479000Y-8308000D01*
X8479000Y-8268000D01*
G37*
G36*
X8479000Y-8308000D02*
G01*
X8519000Y-8308000D01*
X8519000Y-8348000D01*
X8479000Y-8348000D01*
X8479000Y-8308000D01*
G37*
G36*
X8479000Y-8428000D02*
G01*
X8519000Y-8428000D01*
X8519000Y-8468000D01*
X8479000Y-8468000D01*
X8479000Y-8428000D01*
G37*
G36*
X8479000Y-8468000D02*
G01*
X8519000Y-8468000D01*
X8519000Y-8508000D01*
X8479000Y-8508000D01*
X8479000Y-8468000D01*
G37*
G36*
X8479000Y-8508000D02*
G01*
X8519000Y-8508000D01*
X8519000Y-8548000D01*
X8479000Y-8548000D01*
X8479000Y-8508000D01*
G37*
G36*
X8479000Y-8588000D02*
G01*
X8519000Y-8588000D01*
X8519000Y-8628000D01*
X8479000Y-8628000D01*
X8479000Y-8588000D01*
G37*
G36*
X8479000Y-8628000D02*
G01*
X8519000Y-8628000D01*
X8519000Y-8668000D01*
X8479000Y-8668000D01*
X8479000Y-8628000D01*
G37*
G36*
X8479000Y-8668000D02*
G01*
X8519000Y-8668000D01*
X8519000Y-8708000D01*
X8479000Y-8708000D01*
X8479000Y-8668000D01*
G37*
G36*
X8479000Y-8708000D02*
G01*
X8519000Y-8708000D01*
X8519000Y-8748000D01*
X8479000Y-8748000D01*
X8479000Y-8708000D01*
G37*
G36*
X8479000Y-8788000D02*
G01*
X8519000Y-8788000D01*
X8519000Y-8828000D01*
X8479000Y-8828000D01*
X8479000Y-8788000D01*
G37*
G36*
X8479000Y-8908000D02*
G01*
X8519000Y-8908000D01*
X8519000Y-8948000D01*
X8479000Y-8948000D01*
X8479000Y-8908000D01*
G37*
G36*
X8479000Y-8948000D02*
G01*
X8519000Y-8948000D01*
X8519000Y-8988000D01*
X8479000Y-8988000D01*
X8479000Y-8948000D01*
G37*
G36*
X8479000Y-9028000D02*
G01*
X8519000Y-9028000D01*
X8519000Y-9068000D01*
X8479000Y-9068000D01*
X8479000Y-9028000D01*
G37*
G36*
X8479000Y-9068000D02*
G01*
X8519000Y-9068000D01*
X8519000Y-9108000D01*
X8479000Y-9108000D01*
X8479000Y-9068000D01*
G37*
G36*
X8479000Y-9108000D02*
G01*
X8519000Y-9108000D01*
X8519000Y-9148000D01*
X8479000Y-9148000D01*
X8479000Y-9108000D01*
G37*
G36*
X8479000Y-9188000D02*
G01*
X8519000Y-9188000D01*
X8519000Y-9228000D01*
X8479000Y-9228000D01*
X8479000Y-9188000D01*
G37*
G36*
X8479000Y-9228000D02*
G01*
X8519000Y-9228000D01*
X8519000Y-9268000D01*
X8479000Y-9268000D01*
X8479000Y-9228000D01*
G37*
G36*
X8519000Y-8148000D02*
G01*
X8559000Y-8148000D01*
X8559000Y-8188000D01*
X8519000Y-8188000D01*
X8519000Y-8148000D01*
G37*
G36*
X8519000Y-8188000D02*
G01*
X8559000Y-8188000D01*
X8559000Y-8228000D01*
X8519000Y-8228000D01*
X8519000Y-8188000D01*
G37*
G36*
X8519000Y-8228000D02*
G01*
X8559000Y-8228000D01*
X8559000Y-8268000D01*
X8519000Y-8268000D01*
X8519000Y-8228000D01*
G37*
G36*
X8519000Y-8348000D02*
G01*
X8559000Y-8348000D01*
X8559000Y-8388000D01*
X8519000Y-8388000D01*
X8519000Y-8348000D01*
G37*
G36*
X8519000Y-8388000D02*
G01*
X8559000Y-8388000D01*
X8559000Y-8428000D01*
X8519000Y-8428000D01*
X8519000Y-8388000D01*
G37*
G36*
X8519000Y-8428000D02*
G01*
X8559000Y-8428000D01*
X8559000Y-8468000D01*
X8519000Y-8468000D01*
X8519000Y-8428000D01*
G37*
G36*
X8519000Y-8508000D02*
G01*
X8559000Y-8508000D01*
X8559000Y-8548000D01*
X8519000Y-8548000D01*
X8519000Y-8508000D01*
G37*
G36*
X8519000Y-8548000D02*
G01*
X8559000Y-8548000D01*
X8559000Y-8588000D01*
X8519000Y-8588000D01*
X8519000Y-8548000D01*
G37*
G36*
X8519000Y-8588000D02*
G01*
X8559000Y-8588000D01*
X8559000Y-8628000D01*
X8519000Y-8628000D01*
X8519000Y-8588000D01*
G37*
G36*
X8519000Y-8628000D02*
G01*
X8559000Y-8628000D01*
X8559000Y-8668000D01*
X8519000Y-8668000D01*
X8519000Y-8628000D01*
G37*
G36*
X8519000Y-8668000D02*
G01*
X8559000Y-8668000D01*
X8559000Y-8708000D01*
X8519000Y-8708000D01*
X8519000Y-8668000D01*
G37*
G36*
X8519000Y-8708000D02*
G01*
X8559000Y-8708000D01*
X8559000Y-8748000D01*
X8519000Y-8748000D01*
X8519000Y-8708000D01*
G37*
G36*
X8519000Y-8788000D02*
G01*
X8559000Y-8788000D01*
X8559000Y-8828000D01*
X8519000Y-8828000D01*
X8519000Y-8788000D01*
G37*
G36*
X8519000Y-8828000D02*
G01*
X8559000Y-8828000D01*
X8559000Y-8868000D01*
X8519000Y-8868000D01*
X8519000Y-8828000D01*
G37*
G36*
X8519000Y-8948000D02*
G01*
X8559000Y-8948000D01*
X8559000Y-8988000D01*
X8519000Y-8988000D01*
X8519000Y-8948000D01*
G37*
G36*
X8519000Y-9228000D02*
G01*
X8559000Y-9228000D01*
X8559000Y-9268000D01*
X8519000Y-9268000D01*
X8519000Y-9228000D01*
G37*
G36*
X8559000Y-8708000D02*
G01*
X8599000Y-8708000D01*
X8599000Y-8748000D01*
X8559000Y-8748000D01*
X8559000Y-8708000D01*
G37*
G36*
X8559000Y-8748000D02*
G01*
X8599000Y-8748000D01*
X8599000Y-8788000D01*
X8559000Y-8788000D01*
X8559000Y-8748000D01*
G37*
G36*
X8559000Y-8828000D02*
G01*
X8599000Y-8828000D01*
X8599000Y-8868000D01*
X8559000Y-8868000D01*
X8559000Y-8828000D01*
G37*
G36*
X8559000Y-8908000D02*
G01*
X8599000Y-8908000D01*
X8599000Y-8948000D01*
X8559000Y-8948000D01*
X8559000Y-8908000D01*
G37*
G36*
X8599000Y-8108000D02*
G01*
X8639000Y-8108000D01*
X8639000Y-8148000D01*
X8599000Y-8148000D01*
X8599000Y-8108000D01*
G37*
G36*
X8599000Y-8148000D02*
G01*
X8639000Y-8148000D01*
X8639000Y-8188000D01*
X8599000Y-8188000D01*
X8599000Y-8148000D01*
G37*
G36*
X8599000Y-8188000D02*
G01*
X8639000Y-8188000D01*
X8639000Y-8228000D01*
X8599000Y-8228000D01*
X8599000Y-8188000D01*
G37*
G36*
X8599000Y-8228000D02*
G01*
X8639000Y-8228000D01*
X8639000Y-8268000D01*
X8599000Y-8268000D01*
X8599000Y-8228000D01*
G37*
G36*
X8599000Y-8268000D02*
G01*
X8639000Y-8268000D01*
X8639000Y-8308000D01*
X8599000Y-8308000D01*
X8599000Y-8268000D01*
G37*
G36*
X8599000Y-8308000D02*
G01*
X8639000Y-8308000D01*
X8639000Y-8348000D01*
X8599000Y-8348000D01*
X8599000Y-8308000D01*
G37*
G36*
X8599000Y-8348000D02*
G01*
X8639000Y-8348000D01*
X8639000Y-8388000D01*
X8599000Y-8388000D01*
X8599000Y-8348000D01*
G37*
G36*
X8599000Y-8428000D02*
G01*
X8639000Y-8428000D01*
X8639000Y-8468000D01*
X8599000Y-8468000D01*
X8599000Y-8428000D01*
G37*
G36*
X8599000Y-8508000D02*
G01*
X8639000Y-8508000D01*
X8639000Y-8548000D01*
X8599000Y-8548000D01*
X8599000Y-8508000D01*
G37*
G36*
X8599000Y-8588000D02*
G01*
X8639000Y-8588000D01*
X8639000Y-8628000D01*
X8599000Y-8628000D01*
X8599000Y-8588000D01*
G37*
G36*
X8599000Y-8668000D02*
G01*
X8639000Y-8668000D01*
X8639000Y-8708000D01*
X8599000Y-8708000D01*
X8599000Y-8668000D01*
G37*
G36*
X8599000Y-8748000D02*
G01*
X8639000Y-8748000D01*
X8639000Y-8788000D01*
X8599000Y-8788000D01*
X8599000Y-8748000D01*
G37*
G36*
X8599000Y-8828000D02*
G01*
X8639000Y-8828000D01*
X8639000Y-8868000D01*
X8599000Y-8868000D01*
X8599000Y-8828000D01*
G37*
G36*
X8599000Y-8908000D02*
G01*
X8639000Y-8908000D01*
X8639000Y-8948000D01*
X8599000Y-8948000D01*
X8599000Y-8908000D01*
G37*
G36*
X8599000Y-8988000D02*
G01*
X8639000Y-8988000D01*
X8639000Y-9028000D01*
X8599000Y-9028000D01*
X8599000Y-8988000D01*
G37*
G36*
X8599000Y-9028000D02*
G01*
X8639000Y-9028000D01*
X8639000Y-9068000D01*
X8599000Y-9068000D01*
X8599000Y-9028000D01*
G37*
G36*
X8599000Y-9068000D02*
G01*
X8639000Y-9068000D01*
X8639000Y-9108000D01*
X8599000Y-9108000D01*
X8599000Y-9068000D01*
G37*
G36*
X8599000Y-9108000D02*
G01*
X8639000Y-9108000D01*
X8639000Y-9148000D01*
X8599000Y-9148000D01*
X8599000Y-9108000D01*
G37*
G36*
X8599000Y-9148000D02*
G01*
X8639000Y-9148000D01*
X8639000Y-9188000D01*
X8599000Y-9188000D01*
X8599000Y-9148000D01*
G37*
G36*
X8599000Y-9188000D02*
G01*
X8639000Y-9188000D01*
X8639000Y-9228000D01*
X8599000Y-9228000D01*
X8599000Y-9188000D01*
G37*
G36*
X8599000Y-9228000D02*
G01*
X8639000Y-9228000D01*
X8639000Y-9268000D01*
X8599000Y-9268000D01*
X8599000Y-9228000D01*
G37*
G36*
X8639000Y-8108000D02*
G01*
X8679000Y-8108000D01*
X8679000Y-8148000D01*
X8639000Y-8148000D01*
X8639000Y-8108000D01*
G37*
G36*
X8639000Y-8348000D02*
G01*
X8679000Y-8348000D01*
X8679000Y-8388000D01*
X8639000Y-8388000D01*
X8639000Y-8348000D01*
G37*
G36*
X8639000Y-8508000D02*
G01*
X8679000Y-8508000D01*
X8679000Y-8548000D01*
X8639000Y-8548000D01*
X8639000Y-8508000D01*
G37*
G36*
X8639000Y-8548000D02*
G01*
X8679000Y-8548000D01*
X8679000Y-8588000D01*
X8639000Y-8588000D01*
X8639000Y-8548000D01*
G37*
G36*
X8639000Y-8788000D02*
G01*
X8679000Y-8788000D01*
X8679000Y-8828000D01*
X8639000Y-8828000D01*
X8639000Y-8788000D01*
G37*
G36*
X8639000Y-8908000D02*
G01*
X8679000Y-8908000D01*
X8679000Y-8948000D01*
X8639000Y-8948000D01*
X8639000Y-8908000D01*
G37*
G36*
X8639000Y-8988000D02*
G01*
X8679000Y-8988000D01*
X8679000Y-9028000D01*
X8639000Y-9028000D01*
X8639000Y-8988000D01*
G37*
G36*
X8639000Y-9228000D02*
G01*
X8679000Y-9228000D01*
X8679000Y-9268000D01*
X8639000Y-9268000D01*
X8639000Y-9228000D01*
G37*
G36*
X8679000Y-8108000D02*
G01*
X8719000Y-8108000D01*
X8719000Y-8148000D01*
X8679000Y-8148000D01*
X8679000Y-8108000D01*
G37*
G36*
X8679000Y-8188000D02*
G01*
X8719000Y-8188000D01*
X8719000Y-8228000D01*
X8679000Y-8228000D01*
X8679000Y-8188000D01*
G37*
G36*
X8679000Y-8228000D02*
G01*
X8719000Y-8228000D01*
X8719000Y-8268000D01*
X8679000Y-8268000D01*
X8679000Y-8228000D01*
G37*
G36*
X8679000Y-8268000D02*
G01*
X8719000Y-8268000D01*
X8719000Y-8308000D01*
X8679000Y-8308000D01*
X8679000Y-8268000D01*
G37*
G36*
X8679000Y-8348000D02*
G01*
X8719000Y-8348000D01*
X8719000Y-8388000D01*
X8679000Y-8388000D01*
X8679000Y-8348000D01*
G37*
G36*
X8679000Y-8468000D02*
G01*
X8719000Y-8468000D01*
X8719000Y-8508000D01*
X8679000Y-8508000D01*
X8679000Y-8468000D01*
G37*
G36*
X8679000Y-8508000D02*
G01*
X8719000Y-8508000D01*
X8719000Y-8548000D01*
X8679000Y-8548000D01*
X8679000Y-8508000D01*
G37*
G36*
X8679000Y-8548000D02*
G01*
X8719000Y-8548000D01*
X8719000Y-8588000D01*
X8679000Y-8588000D01*
X8679000Y-8548000D01*
G37*
G36*
X8679000Y-8588000D02*
G01*
X8719000Y-8588000D01*
X8719000Y-8628000D01*
X8679000Y-8628000D01*
X8679000Y-8588000D01*
G37*
G36*
X8679000Y-8628000D02*
G01*
X8719000Y-8628000D01*
X8719000Y-8668000D01*
X8679000Y-8668000D01*
X8679000Y-8628000D01*
G37*
G36*
X8679000Y-8748000D02*
G01*
X8719000Y-8748000D01*
X8719000Y-8788000D01*
X8679000Y-8788000D01*
X8679000Y-8748000D01*
G37*
G36*
X8679000Y-8788000D02*
G01*
X8719000Y-8788000D01*
X8719000Y-8828000D01*
X8679000Y-8828000D01*
X8679000Y-8788000D01*
G37*
G36*
X8679000Y-8828000D02*
G01*
X8719000Y-8828000D01*
X8719000Y-8868000D01*
X8679000Y-8868000D01*
X8679000Y-8828000D01*
G37*
G36*
X8679000Y-8868000D02*
G01*
X8719000Y-8868000D01*
X8719000Y-8908000D01*
X8679000Y-8908000D01*
X8679000Y-8868000D01*
G37*
G36*
X8679000Y-8908000D02*
G01*
X8719000Y-8908000D01*
X8719000Y-8948000D01*
X8679000Y-8948000D01*
X8679000Y-8908000D01*
G37*
G36*
X8679000Y-8988000D02*
G01*
X8719000Y-8988000D01*
X8719000Y-9028000D01*
X8679000Y-9028000D01*
X8679000Y-8988000D01*
G37*
G36*
X8679000Y-9068000D02*
G01*
X8719000Y-9068000D01*
X8719000Y-9108000D01*
X8679000Y-9108000D01*
X8679000Y-9068000D01*
G37*
G36*
X8679000Y-9108000D02*
G01*
X8719000Y-9108000D01*
X8719000Y-9148000D01*
X8679000Y-9148000D01*
X8679000Y-9108000D01*
G37*
G36*
X8679000Y-9148000D02*
G01*
X8719000Y-9148000D01*
X8719000Y-9188000D01*
X8679000Y-9188000D01*
X8679000Y-9148000D01*
G37*
G36*
X8679000Y-9228000D02*
G01*
X8719000Y-9228000D01*
X8719000Y-9268000D01*
X8679000Y-9268000D01*
X8679000Y-9228000D01*
G37*
G36*
X8719000Y-8108000D02*
G01*
X8759000Y-8108000D01*
X8759000Y-8148000D01*
X8719000Y-8148000D01*
X8719000Y-8108000D01*
G37*
G36*
X8719000Y-8188000D02*
G01*
X8759000Y-8188000D01*
X8759000Y-8228000D01*
X8719000Y-8228000D01*
X8719000Y-8188000D01*
G37*
G36*
X8719000Y-8228000D02*
G01*
X8759000Y-8228000D01*
X8759000Y-8268000D01*
X8719000Y-8268000D01*
X8719000Y-8228000D01*
G37*
G36*
X8719000Y-8268000D02*
G01*
X8759000Y-8268000D01*
X8759000Y-8308000D01*
X8719000Y-8308000D01*
X8719000Y-8268000D01*
G37*
G36*
X8719000Y-8348000D02*
G01*
X8759000Y-8348000D01*
X8759000Y-8388000D01*
X8719000Y-8388000D01*
X8719000Y-8348000D01*
G37*
G36*
X8719000Y-8468000D02*
G01*
X8759000Y-8468000D01*
X8759000Y-8508000D01*
X8719000Y-8508000D01*
X8719000Y-8468000D01*
G37*
G36*
X8719000Y-8508000D02*
G01*
X8759000Y-8508000D01*
X8759000Y-8548000D01*
X8719000Y-8548000D01*
X8719000Y-8508000D01*
G37*
G36*
X8719000Y-8548000D02*
G01*
X8759000Y-8548000D01*
X8759000Y-8588000D01*
X8719000Y-8588000D01*
X8719000Y-8548000D01*
G37*
G36*
X8719000Y-8628000D02*
G01*
X8759000Y-8628000D01*
X8759000Y-8668000D01*
X8719000Y-8668000D01*
X8719000Y-8628000D01*
G37*
G36*
X8719000Y-8668000D02*
G01*
X8759000Y-8668000D01*
X8759000Y-8708000D01*
X8719000Y-8708000D01*
X8719000Y-8668000D01*
G37*
G36*
X8719000Y-8908000D02*
G01*
X8759000Y-8908000D01*
X8759000Y-8948000D01*
X8719000Y-8948000D01*
X8719000Y-8908000D01*
G37*
G36*
X8719000Y-8988000D02*
G01*
X8759000Y-8988000D01*
X8759000Y-9028000D01*
X8719000Y-9028000D01*
X8719000Y-8988000D01*
G37*
G36*
X8719000Y-9068000D02*
G01*
X8759000Y-9068000D01*
X8759000Y-9108000D01*
X8719000Y-9108000D01*
X8719000Y-9068000D01*
G37*
G36*
X8719000Y-9108000D02*
G01*
X8759000Y-9108000D01*
X8759000Y-9148000D01*
X8719000Y-9148000D01*
X8719000Y-9108000D01*
G37*
G36*
X8719000Y-9148000D02*
G01*
X8759000Y-9148000D01*
X8759000Y-9188000D01*
X8719000Y-9188000D01*
X8719000Y-9148000D01*
G37*
G36*
X8719000Y-9228000D02*
G01*
X8759000Y-9228000D01*
X8759000Y-9268000D01*
X8719000Y-9268000D01*
X8719000Y-9228000D01*
G37*
G36*
X8759000Y-8108000D02*
G01*
X8799000Y-8108000D01*
X8799000Y-8148000D01*
X8759000Y-8148000D01*
X8759000Y-8108000D01*
G37*
G36*
X8759000Y-8188000D02*
G01*
X8799000Y-8188000D01*
X8799000Y-8228000D01*
X8759000Y-8228000D01*
X8759000Y-8188000D01*
G37*
G36*
X8759000Y-8228000D02*
G01*
X8799000Y-8228000D01*
X8799000Y-8268000D01*
X8759000Y-8268000D01*
X8759000Y-8228000D01*
G37*
G36*
X8759000Y-8268000D02*
G01*
X8799000Y-8268000D01*
X8799000Y-8308000D01*
X8759000Y-8308000D01*
X8759000Y-8268000D01*
G37*
G36*
X8759000Y-8348000D02*
G01*
X8799000Y-8348000D01*
X8799000Y-8388000D01*
X8759000Y-8388000D01*
X8759000Y-8348000D01*
G37*
G36*
X8759000Y-8468000D02*
G01*
X8799000Y-8468000D01*
X8799000Y-8508000D01*
X8759000Y-8508000D01*
X8759000Y-8468000D01*
G37*
G36*
X8759000Y-8548000D02*
G01*
X8799000Y-8548000D01*
X8799000Y-8588000D01*
X8759000Y-8588000D01*
X8759000Y-8548000D01*
G37*
G36*
X8759000Y-8748000D02*
G01*
X8799000Y-8748000D01*
X8799000Y-8788000D01*
X8759000Y-8788000D01*
X8759000Y-8748000D01*
G37*
G36*
X8759000Y-8908000D02*
G01*
X8799000Y-8908000D01*
X8799000Y-8948000D01*
X8759000Y-8948000D01*
X8759000Y-8908000D01*
G37*
G36*
X8759000Y-8988000D02*
G01*
X8799000Y-8988000D01*
X8799000Y-9028000D01*
X8759000Y-9028000D01*
X8759000Y-8988000D01*
G37*
G36*
X8759000Y-9068000D02*
G01*
X8799000Y-9068000D01*
X8799000Y-9108000D01*
X8759000Y-9108000D01*
X8759000Y-9068000D01*
G37*
G36*
X8759000Y-9108000D02*
G01*
X8799000Y-9108000D01*
X8799000Y-9148000D01*
X8759000Y-9148000D01*
X8759000Y-9108000D01*
G37*
G36*
X8759000Y-9148000D02*
G01*
X8799000Y-9148000D01*
X8799000Y-9188000D01*
X8759000Y-9188000D01*
X8759000Y-9148000D01*
G37*
G36*
X8759000Y-9228000D02*
G01*
X8799000Y-9228000D01*
X8799000Y-9268000D01*
X8759000Y-9268000D01*
X8759000Y-9228000D01*
G37*
G36*
X8799000Y-8108000D02*
G01*
X8839000Y-8108000D01*
X8839000Y-8148000D01*
X8799000Y-8148000D01*
X8799000Y-8108000D01*
G37*
G36*
X8799000Y-8348000D02*
G01*
X8839000Y-8348000D01*
X8839000Y-8388000D01*
X8799000Y-8388000D01*
X8799000Y-8348000D01*
G37*
G36*
X8799000Y-8508000D02*
G01*
X8839000Y-8508000D01*
X8839000Y-8548000D01*
X8799000Y-8548000D01*
X8799000Y-8508000D01*
G37*
G36*
X8799000Y-8548000D02*
G01*
X8839000Y-8548000D01*
X8839000Y-8588000D01*
X8799000Y-8588000D01*
X8799000Y-8548000D01*
G37*
G36*
X8799000Y-8588000D02*
G01*
X8839000Y-8588000D01*
X8839000Y-8628000D01*
X8799000Y-8628000D01*
X8799000Y-8588000D01*
G37*
G36*
X8799000Y-8628000D02*
G01*
X8839000Y-8628000D01*
X8839000Y-8668000D01*
X8799000Y-8668000D01*
X8799000Y-8628000D01*
G37*
G36*
X8799000Y-8708000D02*
G01*
X8839000Y-8708000D01*
X8839000Y-8748000D01*
X8799000Y-8748000D01*
X8799000Y-8708000D01*
G37*
G36*
X8799000Y-8748000D02*
G01*
X8839000Y-8748000D01*
X8839000Y-8788000D01*
X8799000Y-8788000D01*
X8799000Y-8748000D01*
G37*
G36*
X8799000Y-8828000D02*
G01*
X8839000Y-8828000D01*
X8839000Y-8868000D01*
X8799000Y-8868000D01*
X8799000Y-8828000D01*
G37*
G36*
X8799000Y-8988000D02*
G01*
X8839000Y-8988000D01*
X8839000Y-9028000D01*
X8799000Y-9028000D01*
X8799000Y-8988000D01*
G37*
G36*
X8799000Y-9228000D02*
G01*
X8839000Y-9228000D01*
X8839000Y-9268000D01*
X8799000Y-9268000D01*
X8799000Y-9228000D01*
G37*
G36*
X8839000Y-8108000D02*
G01*
X8879000Y-8108000D01*
X8879000Y-8148000D01*
X8839000Y-8148000D01*
X8839000Y-8108000D01*
G37*
G36*
X8839000Y-8148000D02*
G01*
X8879000Y-8148000D01*
X8879000Y-8188000D01*
X8839000Y-8188000D01*
X8839000Y-8148000D01*
G37*
G36*
X8839000Y-8188000D02*
G01*
X8879000Y-8188000D01*
X8879000Y-8228000D01*
X8839000Y-8228000D01*
X8839000Y-8188000D01*
G37*
G36*
X8839000Y-8228000D02*
G01*
X8879000Y-8228000D01*
X8879000Y-8268000D01*
X8839000Y-8268000D01*
X8839000Y-8228000D01*
G37*
G36*
X8839000Y-8268000D02*
G01*
X8879000Y-8268000D01*
X8879000Y-8308000D01*
X8839000Y-8308000D01*
X8839000Y-8268000D01*
G37*
G36*
X8839000Y-8308000D02*
G01*
X8879000Y-8308000D01*
X8879000Y-8348000D01*
X8839000Y-8348000D01*
X8839000Y-8308000D01*
G37*
G36*
X8839000Y-8348000D02*
G01*
X8879000Y-8348000D01*
X8879000Y-8388000D01*
X8839000Y-8388000D01*
X8839000Y-8348000D01*
G37*
G36*
X8839000Y-8428000D02*
G01*
X8879000Y-8428000D01*
X8879000Y-8468000D01*
X8839000Y-8468000D01*
X8839000Y-8428000D01*
G37*
G36*
X8839000Y-8468000D02*
G01*
X8879000Y-8468000D01*
X8879000Y-8508000D01*
X8839000Y-8508000D01*
X8839000Y-8468000D01*
G37*
G36*
X8839000Y-8548000D02*
G01*
X8879000Y-8548000D01*
X8879000Y-8588000D01*
X8839000Y-8588000D01*
X8839000Y-8548000D01*
G37*
G36*
X8839000Y-8708000D02*
G01*
X8879000Y-8708000D01*
X8879000Y-8748000D01*
X8839000Y-8748000D01*
X8839000Y-8708000D01*
G37*
G36*
X8839000Y-8748000D02*
G01*
X8879000Y-8748000D01*
X8879000Y-8788000D01*
X8839000Y-8788000D01*
X8839000Y-8748000D01*
G37*
G36*
X8839000Y-8788000D02*
G01*
X8879000Y-8788000D01*
X8879000Y-8828000D01*
X8839000Y-8828000D01*
X8839000Y-8788000D01*
G37*
G36*
X8839000Y-8828000D02*
G01*
X8879000Y-8828000D01*
X8879000Y-8868000D01*
X8839000Y-8868000D01*
X8839000Y-8828000D01*
G37*
G36*
X8839000Y-8868000D02*
G01*
X8879000Y-8868000D01*
X8879000Y-8908000D01*
X8839000Y-8908000D01*
X8839000Y-8868000D01*
G37*
G36*
X8839000Y-8908000D02*
G01*
X8879000Y-8908000D01*
X8879000Y-8948000D01*
X8839000Y-8948000D01*
X8839000Y-8908000D01*
G37*
G36*
X8839000Y-8988000D02*
G01*
X8879000Y-8988000D01*
X8879000Y-9028000D01*
X8839000Y-9028000D01*
X8839000Y-8988000D01*
G37*
G36*
X8839000Y-9028000D02*
G01*
X8879000Y-9028000D01*
X8879000Y-9068000D01*
X8839000Y-9068000D01*
X8839000Y-9028000D01*
G37*
G36*
X8839000Y-9068000D02*
G01*
X8879000Y-9068000D01*
X8879000Y-9108000D01*
X8839000Y-9108000D01*
X8839000Y-9068000D01*
G37*
G36*
X8839000Y-9108000D02*
G01*
X8879000Y-9108000D01*
X8879000Y-9148000D01*
X8839000Y-9148000D01*
X8839000Y-9108000D01*
G37*
G36*
X8839000Y-9148000D02*
G01*
X8879000Y-9148000D01*
X8879000Y-9188000D01*
X8839000Y-9188000D01*
X8839000Y-9148000D01*
G37*
G36*
X8839000Y-9188000D02*
G01*
X8879000Y-9188000D01*
X8879000Y-9228000D01*
X8839000Y-9228000D01*
X8839000Y-9188000D01*
G37*
G36*
X8839000Y-9228000D02*
G01*
X8879000Y-9228000D01*
X8879000Y-9268000D01*
X8839000Y-9268000D01*
X8839000Y-9228000D01*
G37*
%TO.C,C7*%
X7201942Y-9409000D02*
X7230058Y-9409000D01*
X7201942Y-9511000D02*
X7230058Y-9511000D01*
%TO.C,R10*%
X7229364Y-8370333D02*
X7198636Y-8370333D01*
X7229364Y-8446333D02*
X7198636Y-8446333D01*
%TO.C,J2*%
D11*
X6677500Y-8426000D02*
X6862500Y-8426000D01*
X6862500Y-9578000D02*
X6677500Y-9578000D01*
D12*
X7010000Y-8522000D02*
G75*
G02*
X6990000Y-8522000I-10000J0D01*
G01*
X6990000Y-8522000D02*
G75*
G02*
X7010000Y-8522000I10000J0D01*
G01*
%TO.C,R9*%
D13*
X7229364Y-8103667D02*
X7198636Y-8103667D01*
X7229364Y-8179667D02*
X7198636Y-8179667D01*
%TO.C,R19*%
X9414636Y-8622000D02*
X9445364Y-8622000D01*
X9414636Y-8698000D02*
X9445364Y-8698000D01*
%TO.C,C3*%
X9519216Y-8729000D02*
X9540784Y-8729000D01*
X9519216Y-8801000D02*
X9540784Y-8801000D01*
%TD*%
%LPC*%
D14*
%TO.C,U3*%
X9495850Y-8406000D03*
D15*
X9545850Y-8402000D03*
X9595850Y-8402000D03*
X9595850Y-8528000D03*
X9545850Y-8528000D03*
X9495850Y-8528000D03*
%TD*%
D16*
%TO.C,R14*%
X9370850Y-8531000D03*
X9370850Y-8429000D03*
%TD*%
D17*
%TO.C,R16*%
X9991850Y-8235000D03*
X9889850Y-8235000D03*
%TD*%
D18*
%TO.C,Q1*%
X9800000Y-8550000D03*
X9800000Y-8455000D03*
X9800000Y-8360000D03*
X10051000Y-8360000D03*
X10051000Y-8455000D03*
X10051000Y-8550000D03*
%TD*%
D17*
%TO.C,R11*%
X7265000Y-8541667D03*
X7163000Y-8541667D03*
%TD*%
D19*
%TO.C,R2*%
X7163000Y-9005000D03*
X7265000Y-9005000D03*
%TD*%
D17*
%TO.C,R8*%
X7265000Y-8275000D03*
X7163000Y-8275000D03*
%TD*%
D20*
%TO.C,C8*%
X7138500Y-9150000D03*
X7293500Y-9150000D03*
%TD*%
D17*
%TO.C,R17*%
X9981850Y-8675000D03*
X9879850Y-8675000D03*
%TD*%
D20*
%TO.C,C7*%
X7138500Y-9460000D03*
X7293500Y-9460000D03*
%TD*%
D17*
%TO.C,R10*%
X7265000Y-8408333D03*
X7163000Y-8408333D03*
%TD*%
D21*
%TO.C,J2*%
X6905500Y-8522000D03*
X6634500Y-8522000D03*
X6905500Y-8562000D03*
X6634500Y-8562000D03*
X6905500Y-8602000D03*
X6634500Y-8602000D03*
X6905500Y-8642000D03*
X6634500Y-8642000D03*
X6905500Y-8682000D03*
X6634500Y-8682000D03*
X6905500Y-8722000D03*
X6634500Y-8722000D03*
X6905500Y-8762000D03*
X6634500Y-8762000D03*
X6905500Y-8802000D03*
X6634500Y-8802000D03*
X6905500Y-8842000D03*
X6634500Y-8842000D03*
X6905500Y-8882000D03*
X6634500Y-8882000D03*
X6905500Y-8922000D03*
X6634500Y-8922000D03*
X6905500Y-8962000D03*
X6634500Y-8962000D03*
X6905500Y-9002000D03*
X6634500Y-9002000D03*
X6905500Y-9042000D03*
X6634500Y-9042000D03*
X6905500Y-9082000D03*
X6634500Y-9082000D03*
X6905500Y-9122000D03*
X6634500Y-9122000D03*
X6905500Y-9162000D03*
X6634500Y-9162000D03*
X6905500Y-9202000D03*
X6634500Y-9202000D03*
X6905500Y-9242000D03*
X6634500Y-9242000D03*
X6905500Y-9282000D03*
X6634500Y-9282000D03*
X6905500Y-9322000D03*
X6634500Y-9322000D03*
X6905500Y-9362000D03*
X6634500Y-9362000D03*
X6905500Y-9402000D03*
X6634500Y-9402000D03*
X6905500Y-9442000D03*
X6634500Y-9442000D03*
X6905500Y-9482000D03*
X6634500Y-9482000D03*
D22*
X6905500Y-8474500D03*
X6634500Y-8474500D03*
X6905500Y-9529500D03*
X6634500Y-9529500D03*
%TD*%
D17*
%TO.C,R9*%
X7265000Y-8141667D03*
X7163000Y-8141667D03*
%TD*%
D19*
%TO.C,R19*%
X9379000Y-8660000D03*
X9481000Y-8660000D03*
%TD*%
D23*
%TO.C,C3*%
X9482000Y-8765000D03*
X9578000Y-8765000D03*
%TD*%
%LPD*%
M02*
